<svg width="600" height="480" xmlns="http://www.w3.org/2000/svg">
 <g stroke="null">
  <title>background</title>
  <rect x="-1" y="-1" width="602" height="482" id="canvas_background" fill="#fff" stroke="null"/>
  <g id="canvasGrid" display="none" stroke="null">
   <rect id="svg_4" width="100%" height="100%" x="0" y="0" stroke-width="0" fill="url(#gridpattern)"/>
  </g>
 </g>

 <g stroke="null">
  <title>Layer 1</title>
  <rect fill="#d4ffaa" stroke-width="1.5" x="154.5" y="9.4375" width="302" height="33" id="svg_2" stroke="#000"/>
  <text fill="#000000" stroke-width="0" x="195.63282" y="34.4375" id="svg_1" font-size="24" font-family="Helvetica, Arial, sans-serif" text-anchor="start" xml:space="preserve" stroke="#000">NSE Scrape - Async</text>
  <text fill="#000000" stroke-width="0" x="155.9762" y="60.58036" id="svg_3" font-size="16" font-family="Helvetica, Arial, sans-serif" text-anchor="start" xml:space="preserve" stroke="#000000">*Sample of 2 symbols (NIFTY and PNB)</text>
  <text fill="#000000" stroke-width="0" x="14.5038" y="192.47641" id="svg_5" font-size="20" font-family="Helvetica, Arial, sans-serif" text-anchor="start" xml:space="preserve" stroke="#000000" font-style="italic">extract symbols</text>
  <text fill="#000000" stroke-width="0" x="15.50158" y="466.93082" id="svg_6" font-size="20" font-family="Helvetica, Arial, sans-serif" text-anchor="start" xml:space="preserve" stroke="#000000">...get_nse_chain()</text>
  <path fill="#000000" stroke="#000000" stroke-width="0" stroke-opacity="null" fill-opacity="null" d="m32.26846,370.64966l6.1978,-6.21896l-11.98314,0l-11.98312,0l0,-3.84983l0,-3.84984l11.84565,0c6.5151,0 11.84564,-0.19513 11.84564,-0.43362c0,-0.23849 -2.59364,-3.03702 -5.76364,-6.21896l-5.76365,-5.78535l5.32738,0l5.32736,0l8.13608,8.15168l8.13608,8.15168l-8.15169,8.13608l-8.15168,8.13608l-5.60843,0l-5.60845,0l6.19782,-6.21897l0,0l-0.00001,0.00001z" id="svg_7" transform="rotate(90 34.04544830322261,360.5808715820313) "/>
  <text fill="#ff0000" stroke-width="0" x="277.10228" y="121.56738" id="svg_8" font-size="16" font-family="Helvetica, Arial, sans-serif" text-anchor="start" xml:space="preserve" stroke="#000000">expiry1, expiry2, expiry3</text>
  <path fill="#000000" stroke="#000000" stroke-width="0" stroke-opacity="null" fill-opacity="null" d="m32.26846,162.64971l6.1978,-6.21896l-11.98314,0l-11.98312,0l0,-3.84983l0,-3.84984l11.84565,0c6.51509,0 11.84563,-0.19513 11.84563,-0.43362c0,-0.23848 -2.59364,-3.03702 -5.76363,-6.21896l-5.76366,-5.78535l5.32738,0l5.32736,0l8.13608,8.15168l8.13608,8.15168l-8.15169,8.13609l-8.15168,8.13608l-5.60843,0l-5.60845,0l6.19782,-6.21897l0,0z" id="svg_9" transform="rotate(90 34.04544448852537,152.58091735839847) "/>
  <rect stroke="#000000" id="svg_15" height="25" width="400.99998" y="393" x="14.5" stroke-opacity="null" stroke-width="0" fill="#aaaaff"/>
  <text fill="#000000" stroke-width="0" x="15.50732" y="412.00488" id="svg_10" font-size="20" font-family="Helvetica, Arial, sans-serif" text-anchor="start" xml:space="preserve" stroke="#000000">fn: get_nse_chain(symbol, expiry, undPrice)</text>
  <text fill="#000000" stroke-width="0" x="206.82963" y="465.92676" id="svg_11" font-size="16" font-family="Helvetica, Arial, sans-serif" text-anchor="start" xml:space="preserve" stroke="#000000">opt_chain with symbol, expiry, undPrice, lot</text>
  <text fill="#000000" stroke-width="0" x="15.50732" y="300.65817" id="svg_12" font-size="20" font-family="Helvetica, Arial, sans-serif" text-anchor="start" xml:space="preserve" stroke="#000000">for each symbol...</text>
  <text fill="#000000" stroke-width="0" x="14.50731" y="326.1127" id="svg_13" font-size="20" font-family="Helvetica, Arial, sans-serif" text-anchor="start" xml:space="preserve" stroke="#000000">...get list of expiries and undPrice</text>
  <text fill="#000000" stroke-width="0" x="16.50444" y="442.02176" id="svg_14" font-size="20" font-family="Helvetica, Arial, sans-serif" text-anchor="start" xml:space="preserve" stroke="#000000">for each expiry...</text>
  <rect id="svg_16" height="25" width="117" y="103.4375" x="14.5" stroke-opacity="null" stroke-width="0" stroke="#000000" fill="#aaaaff"/>
  <text fill="#000000" stroke-width="0" x="15.50732" y="121.56738" id="svg_17" font-size="20" font-family="Helvetica, Arial, sans-serif" text-anchor="start" xml:space="preserve" stroke="#000000">fn: get_lots()</text>
  <text fill="#000000" stroke-width="0" x="189.82963" y="121.56738" id="svg_18" font-size="16" font-family="Helvetica, Arial, sans-serif" text-anchor="start" xml:space="preserve" stroke="#000000">symbol, lot</text>
  <rect stroke="#000000" id="svg_19" height="25" width="176.00001" y="251.5" x="14.5" stroke-opacity="null" stroke-width="0" fill="#aaaaff"/>
  <text fill="#000000" stroke-width="0" x="15.50732" y="270.50488" id="svg_20" font-size="20" font-family="Helvetica, Arial, sans-serif" text-anchor="start" xml:space="preserve" stroke="#000000">fn: get_xu(symbol)</text>
  <path fill="#000000" stroke="#000000" stroke-width="0" stroke-opacity="null" fill-opacity="null" d="m32.26846,232.64966l6.1978,-6.21896l-11.98314,0l-11.98312,0l0,-3.84983l0,-3.84984l11.84565,0c6.5151,0 11.84564,-0.19513 11.84564,-0.43362c0,-0.23849 -2.59364,-3.03702 -5.76364,-6.21896l-5.76365,-5.78535l5.32738,0l5.32736,0l8.13608,8.15168l8.13608,8.15168l-8.15169,8.13608l-8.15168,8.13608l-5.60843,0l-5.60845,0l6.19782,-6.21897l0,0l-0.00001,0.00001z" id="svg_21" transform="rotate(90 34.04544448852537,222.58087158203128) "/>
 </g>
</svg>