<svg width="580" height="400" xmlns="http://www.w3.org/2000/svg">
 <!-- Created with Method Draw - http://github.com/duopixel/Method-Draw/ -->

 <g>
  <title>background</title>
  <rect height="402" width="582" y="-1" x="-1" fill="#fff" id="canvas_background"/>
  <g display="none" id="canvasGrid">
   <rect height="100%" width="100%" y="0" x="0" stroke-width="0" fill="url(#gridpattern)" id="svg_2"/>
  </g>
 </g>
 <g>
  <g id="svg_37">
   <title>Layer 1</title>
  </g>
  <g id="chains">
   <path d="m84.303467,69.883331c2.701614,2.513367 6.138344,3.705795 9.54055,4.352768c3.068985,0.522354 6.525154,0.254013 9.177521,-2.063667c2.323769,-2.064072 3.465309,-5.673752 3.186615,-8.939003c-0.342415,-3.355087 -2.467712,-5.945908 -4.840935,-7.531879c-2.776207,-1.824478 -5.942741,-2.816929 -9.143707,-3.172348c-2.904732,-0.276623 -6.115059,0.323639 -8.422928,2.754169c-1.931763,2.096607 -2.77813,4.935738 -2.534203,7.913589c1.515137,-0.498161 2.829041,-0.938099 4.205482,-1.88345c0.52317,-0.609631 0.664116,-1.501633 1.369957,-2.059879c1.475952,-1.479382 3.516212,-1.489941 5.289589,-1.29105c2.577263,0.412937 5.177483,1.182327 7.352814,2.836689c1.238007,0.949711 2.393059,2.55682 2.106209,4.465607c-0.169853,1.638824 -1.306702,3.001854 -2.646759,3.411995c-2.515633,0.832977 -5.106529,0.143646 -7.496582,-0.663803c-1.432953,-0.523766 -2.652229,-1.097961 -3.83226,-2.184296c-1.299713,1.231476 -2.888969,2.115707 -4.450317,2.730995c0.386307,0.518593 0.683189,0.889664 1.138947,1.323524l0,0l0,0.000015l0.000008,0.000023l0,0.000015l0,-0.000015z" stroke="#000000" fill="#ffffff" id="path1088"/>
   <path d="m67.592392,67.059486c1.912346,1.665253 4.259895,2.590393 6.676437,2.722504c3.090889,0.175247 6.248932,-0.337311 9.226822,-1.538849c0.699249,-0.379463 1.664337,-0.755203 2.417,-1.273651c1.642517,-1.081161 3.092522,-2.620697 4.185959,-4.430969c0.833023,-1.426281 1.296417,-2.93 0.742172,-4.49966c-1.413101,0.049389 -3.039001,0.25071 -3.922234,1.72187c-0.025581,1.09433 -0.945091,1.708469 -1.747322,2.099091c-3.18438,1.782619 -6.67823,2.522198 -10.122307,2.678249c-1.160667,0.023827 -2.391998,-0.054794 -3.521156,-0.441864c-0.733765,-0.268406 -1.422363,-0.975826 -1.397232,-1.959576c-0.212738,-1.17791 0.836571,-1.653591 1.128769,-2.423321c0.152328,-1.651749 -0.89389,-2.842949 -2.273224,-3.296219c-1.412247,1.11721 -2.313026,1.961727 -3.065697,3.78764c-0.790649,2.211559 -0.331459,4.964169 1.217194,6.427967c0.146278,0.149803 0.298645,0.291313 0.454796,0.426804l0.000023,0l0,0l0,-0.000023l0,0.000008zm8.80397,-8.691547c2.117249,-0.478161 3.689529,-0.854309 5.824898,-0.784691c0.772072,-1.914497 2.193779,-3.27018 3.824051,-4.13493c-3.50029,-1.472179 -7.136124,-1.136288 -10.805603,-0.274998c-0.651711,0.071411 -1.033859,0.248909 -0.464737,0.841141c0.745445,1.292759 1.548096,2.753429 1.621391,4.35347l0,0.000008z" stroke="#000000" fill="#ffffff" id="path1089"/>
   <path d="m54.569561,73.562263c2.197178,2.157166 5.382248,2.245148 8.124359,1.341827c3.080509,-1.029419 6.427967,-3.080292 8.957523,-5.434311c-1.399994,-0.105438 -4.030754,-1.747849 -4.879463,-2.787781c-2.109047,1.533043 -4.639931,3.313843 -7.130981,3.327179c-1.510288,0.064713 -2.89909,-1.172577 -3.198879,-2.904709c-0.377361,-2.075211 0.874489,-4.038078 2.114422,-5.424889c1.885868,-2.019508 4.10841,-3.59465 6.45121,-4.706352c1.642326,-0.718887 3.658279,-1.250217 5.167542,-0.0676c1.244087,1.001904 1.664986,3.105633 0.952995,4.753193c-0.034546,0.642517 -0.885971,1.309967 -0.563835,1.642788c0.367836,0.635281 2.200645,1.088413 4.110558,1.040363c1.443016,-2.504154 1.899971,-4.922211 0.978226,-7.671993c-0.875999,-2.800289 -2.880417,-5.145908 -5.445107,-5.673691c-2.973518,-0.69648 -6.084877,0.461693 -8.798355,2.072643c-3.270252,2.021069 -6.52346,4.632889 -8.446312,8.46629c-1.240273,2.416557 -1.648788,5.451382 -0.768688,8.013592c0.505627,1.540817 1.296398,2.964859 2.374786,4.013458l0,0l0,0l-0.000011,-0.000023l0.000011,0l0,0.000023l0,-0.000008z" stroke="#000000" fill="#ffffff" id="path1100"/>
   <path d="m59.865891,59.323662c-1.867111,-1.563793 -4.144249,-2.402672 -6.477402,-2.474033c-2.984287,-0.097317 -6.024227,0.471241 -8.88121,1.701023c-0.669559,0.38274 -1.59565,0.768097 -2.314888,1.28635c-1.570259,1.082447 -2.948681,2.603127 -3.9795,4.376957c-0.784691,1.396912 -1.21175,2.860023 -0.65617,4.363144c1.362659,-0.080612 2.928577,-0.312881 3.761108,-1.754303c0.010132,-1.057533 0.889061,-1.672058 1.657829,-2.068008c3.048462,-1.795803 6.409351,-2.591431 9.730003,-2.8223c1.119431,-0.05003 2.30843,-0.00275 3.402943,0.344799c0.71146,0.242161 1.385223,0.909389 1.374065,1.860092c0.220898,1.132675 -0.785099,1.616516 -1.05677,2.36676c-0.124989,1.598816 0.900211,2.724945 2.236961,3.130615c1.347633,-1.111885 2.205433,-1.948517 2.90728,-3.729515c0.733372,-2.154354 0.253731,-4.802204 -1.259819,-6.179901c-0.14312,-0.1413 -0.292,-0.274433 -0.444458,-0.401661l0.000019,0l0,-0.000011l0,-0.000008l0.000004,0l0.000004,0zm-8.378109,8.599358c-2.036293,0.511093 -3.548161,0.911003 -5.609211,0.893463c-0.719391,1.86702 -2.07296,3.209465 -3.634289,4.082596c3.396519,1.340363 6.899776,0.931343 10.428478,0.014084c0.627789,-0.084145 0.994129,-0.264481 0.43718,-0.823235c-0.736378,-1.231201 -1.53019,-2.623276 -1.622158,-4.166916l0,0.000008z" stroke="#000000" fill="#ffffff" id="svg_1"/>
   <path d="m43.02916,57.187679c-2.663441,-2.198891 -5.971428,-3.085461 -9.2248,-3.45459c-2.93236,-0.274719 -6.20035,0.23233 -8.623829,2.63401c-2.121891,2.136089 -3.060341,5.65926 -2.66539,8.750851c0.45912,3.172676 2.578779,5.487267 4.893629,6.826233c2.706671,1.536896 5.75038,2.252518 8.801142,2.358429c2.76667,0.052521 5.788147,-0.753075 7.880329,-3.237244c1.748749,-2.138565 2.43808,-4.90593 2.087578,-7.726151c-1.417427,0.584911 -2.646328,1.099693 -3.914219,2.100769c-0.471989,0.618973 -0.569981,1.47937 -1.2173,2.062683c-1.341,1.517197 -3.276009,1.675697 -4.966309,1.615067c-2.461472,-0.206245 -4.958931,-0.750366 -7.08872,-2.168839c-1.21246,-0.815117 -2.372519,-2.262657 -2.17676,-4.102669c0.095579,-1.574249 1.11957,-2.955921 2.374359,-3.444279c2.353121,-0.976791 4.838612,-0.508205 7.138279,0.087563c1.380291,0.394958 2.559921,0.853508 3.722912,1.80307c1.18367,-1.268185 2.655949,-2.226433 4.112499,-2.926392c-0.387249,-0.466167 -0.68364,-0.798141 -1.1334,-1.17852l0,0.000008z" stroke="#000000" fill="#ffffff" id="svg_3"/>
  </g>
  <g id="ohlcs">
   <line y2="72.4306" x2="133.608" y1="54.8285" x1="133.608" stroke-linejoin="null" stroke-linecap="null" stroke="#ff0000" fill="none" id="svg_5"/>
   <line y2="58.2887" x2="131.162" y1="58.2887" x1="133.534" stroke-width="null" stroke-opacity="null" stroke-linejoin="null" stroke-linecap="null" stroke="#000000" fill-opacity="null" fill="none" id="svg_6"/>
   <line y2="68.5209" x2="134.125" y1="68.5209" x1="136.497" stroke-width="null" stroke-opacity="null" stroke-linejoin="null" stroke-linecap="null" stroke="#000000" fill-opacity="null" fill="none" id="svg_7"/>
   <line y2="75.1172" x2="139.534" y1="51.1166" x1="139.534" stroke-linejoin="null" stroke-linecap="null" stroke="#00bf00" fill-opacity="null" fill="none" id="svg_8"/>
   <line y2="56.8934" x2="137.088" y1="56.8934" x1="139.46" stroke-width="null" stroke-opacity="null" stroke-linejoin="null" stroke-linecap="null" stroke="#000000" fill-opacity="null" fill="none" id="svg_9"/>
   <line y2="67.1256" x2="140.051" y1="67.1256" x1="142.423" stroke-width="null" stroke-opacity="null" stroke-linejoin="null" stroke-linecap="null" stroke="#000000" fill-opacity="null" fill="none" id="svg_10"/>
   <line y2="79.1181" x2="146.052" y1="48.1166" x1="146.052" stroke-linejoin="null" stroke-linecap="null" stroke="#00bf00" fill-opacity="null" fill="none" id="svg_11"/>
   <line y2="60.1491" x2="143.607" y1="60.1491" x1="145.979" stroke-width="null" stroke-opacity="null" stroke-linejoin="null" stroke-linecap="null" stroke="#000000" fill-opacity="null" fill="none" id="svg_12"/>
   <line y2="71.3115" x2="146.57" y1="71.3115" x1="148.942" stroke-width="null" stroke-opacity="null" stroke-linejoin="null" stroke-linecap="null" stroke="#000000" fill-opacity="null" fill="none" id="svg_13"/>
   <line y2="79.1181" x2="153.756" y1="48.1166" x1="153.756" stroke-linejoin="null" stroke-linecap="null" stroke="#ff0000" fill-opacity="null" fill="none" id="svg_14"/>
   <line y2="53.6377" x2="151.311" y1="53.6377" x1="153.682" stroke-width="null" stroke-opacity="null" stroke-linejoin="null" stroke-linecap="null" stroke="#000000" fill-opacity="null" fill="none" id="svg_15"/>
   <line y2="71.3115" x2="154.274" y1="71.3115" x1="156.645" stroke-width="null" stroke-opacity="null" stroke-linejoin="null" stroke-linecap="null" stroke="#000000" fill-opacity="null" fill="none" id="svg_16"/>
   <line y2="80.1183" x2="160.867" y1="46.1166" x1="160.867" stroke-linejoin="null" stroke-linecap="null" stroke="#00bf5f" fill-opacity="null" fill="none" id="svg_17"/>
   <line y2="53.6377" x2="158.422" y1="53.6377" x1="160.793" stroke-width="null" stroke-opacity="null" stroke-linejoin="null" stroke-linecap="null" stroke="#000000" fill-opacity="null" fill="none" id="svg_18"/>
   <line y2="66.6604" x2="161.385" y1="66.6604" x1="163.756" stroke-width="null" stroke-opacity="null" stroke-linejoin="null" stroke-linecap="null" stroke="#000000" fill-opacity="null" fill="none" id="svg_19"/>
   <line y2="72.4306" x2="195.238" y1="54.8285" x1="195.238" stroke-linejoin="null" stroke-linecap="null" stroke="#00bf00" fill-opacity="null" fill="none" id="svg_20"/>
   <line y2="58.2887" x2="192.792" y1="58.2887" x1="195.164" stroke-width="null" stroke-opacity="null" stroke-linejoin="null" stroke-linecap="null" stroke="#000000" fill-opacity="null" fill="none" id="svg_21"/>
   <line y2="68.5209" x2="195.755" y1="68.5209" x1="198.127" stroke-width="null" stroke-opacity="null" stroke-linejoin="null" stroke-linecap="null" stroke="#000000" fill-opacity="null" fill="none" id="svg_22"/>
   <line y2="75.1172" x2="189.312" y1="51.1166" x1="189.312" stroke-linejoin="null" stroke-linecap="null" stroke="#ff0000" fill-opacity="null" fill="none" id="svg_23"/>
   <line y2="56.8934" x2="186.866" y1="56.8934" x1="189.238" stroke-width="null" stroke-opacity="null" stroke-linejoin="null" stroke-linecap="null" stroke="#000000" fill-opacity="null" fill="none" id="svg_24"/>
   <line y2="67.1256" x2="189.829" y1="67.1256" x1="192.201" stroke-width="null" stroke-opacity="null" stroke-linejoin="null" stroke-linecap="null" stroke="#000000" fill-opacity="null" fill="none" id="svg_25"/>
   <line y2="79.1181" x2="183.386" y1="48.1166" x1="183.386" stroke-linejoin="null" stroke-linecap="null" stroke="#00bf00" fill-opacity="null" fill="none" id="svg_26"/>
   <line y2="60.1491" x2="180.94" y1="60.1491" x1="183.312" stroke-width="null" stroke-opacity="null" stroke-linejoin="null" stroke-linecap="null" stroke="#000000" fill-opacity="null" fill="none" id="svg_27"/>
   <line y2="71.3115" x2="183.903" y1="71.3115" x1="186.275" stroke-width="null" stroke-opacity="null" stroke-linejoin="null" stroke-linecap="null" stroke="#000000" fill-opacity="null" fill="none" id="svg_28"/>
   <line y2="79.1181" x2="176.275" y1="48.1166" x1="176.275" stroke-linejoin="null" stroke-linecap="null" stroke="#ff0000" fill-opacity="null" fill="none" id="svg_29"/>
   <line y2="53.6377" x2="173.829" y1="53.6377" x1="176.201" stroke-width="null" stroke-opacity="null" stroke-linejoin="null" stroke-linecap="null" stroke="#000000" fill-opacity="null" fill="none" id="svg_30"/>
   <line y2="71.3115" x2="176.792" y1="71.3115" x1="179.164" stroke-width="null" stroke-opacity="null" stroke-linejoin="null" stroke-linecap="null" stroke="#000000" fill-opacity="null" fill="none" id="svg_31"/>
   <line y2="80.1183" x2="168.571" y1="46.1166" x1="168.571" stroke-linejoin="null" stroke-linecap="null" stroke="#00bf00" fill-opacity="null" fill="none" id="svg_32"/>
   <line y2="53.6377" x2="166.126" y1="53.6377" x1="168.497" stroke-width="null" stroke-opacity="null" stroke-linejoin="null" stroke-linecap="null" stroke="#000000" fill-opacity="null" fill="none" id="svg_33"/>
   <line y2="66.6604" x2="169.089" y1="66.6604" x1="171.46" stroke-width="null" stroke-opacity="null" stroke-linejoin="null" stroke-linecap="null" stroke="#000000" fill-opacity="null" fill="none" id="svg_34"/>
  </g>
  <g transform="matrix(2.2954, -0.665352, 0.665352, 2.2954, -618.273, -1565.64)" id="sized">
   <path d="m169.80217,755.486206c-0.609985,-1.393005 -2.303986,-1.835999 -3.699005,-1.713013l-8.742981,0.695984c-1.936005,-1.914001 -4.307022,-2.204956 -4.132019,-2.815979c0.137009,-0.479004 0.546021,-0.247986 0.837006,-1.510986c0.280029,-1.213989 -0.714996,-2.455994 -1.915985,-2.715027c-1.178024,-0.346008 -2.660004,0.208008 -3.02803,1.452026c-0.447998,1.22998 0.274017,2.698975 1.498978,3.139954c1.401001,0.637024 4.247025,0.493042 4.838013,3.021057c-1.384979,1.41095 -2.992981,0.954956 -4.422012,0.454956c-1.185989,-0.415955 -2.733978,-0.484985 -3.649597,0.536011c-0.881668,0.976013 -0.800079,2.75 0.376709,3.463989c1.152878,0.842041 3.092911,0.752014 3.823868,-0.641968c0.564041,-1.074036 -0.090958,-1.842041 0.338013,-2.16803c0.32402,-0.244995 1.76001,0.362 4.75,-0.067993l7.684998,5.463989c0.994034,0.611023 2.316025,0.979004 3.578003,0.19104l-7.902969,-5.891052l9.766998,-0.894958l0,0l-0.000031,0l0.000031,0l0.000015,0zm-17.075989,-6.872009c1.04599,1.051025 0.403992,2.906982 -0.994019,2.901001c-1.28598,0.072021 -2.455002,-1.492981 -1.718964,-2.653015c0.516998,-0.977966 1.998001,-0.968018 2.712982,-0.247986l0,0zm-2.154999,7.721985c1.16098,0.85199 0.310989,2.986023 -1.093994,2.903015c-0.962997,0.052979 -2.08989,-0.744019 -1.882721,-1.801025c0.188904,-1.302979 1.987701,-2.013977 2.97673,-1.10199l-0.000015,0z" marker-start="none" id="path4599"/>
  </g>
  <g id="target">
   <path d="m357,63.853901l-6.57901,0c-0.583984,-10.348202 -8.927002,-18.690601 -19.274994,-19.2747l0,-6.579201l-2.303009,0l0,6.579201c-10.336975,0.584099 -18.679993,8.926498 -19.263977,19.2747l-6.57901,0l0,2.303196l6.57901,0c0.583984,10.337204 8.927002,18.679703 19.274994,19.263702l0,6.579201l2.303009,0l0,-6.579201c10.347992,-0.584099 18.690979,-8.915497 19.263977,-19.263702l6.57901,0l0,-2.303196zm-8.881989,0l-5.301025,0c-0.539978,-6.204502 -5.465973,-11.119602 -11.67099,-11.670601l0,-5.3008c9.09201,0.573002 16.39801,7.879601 16.972015,16.971401l0,0zm-7.615997,2.292202c-0.540009,4.926201 -4.507019,8.816399 -9.356018,9.3564l0,-3.4935l-2.303009,0l0,3.504494c-4.936981,-0.528999 -8.826996,-4.419197 -9.355988,-9.3564l3.503998,0l0,-2.303196l-3.493011,0c0.540009,-4.926102 4.507019,-8.816299 9.356018,-9.3563l0,3.493401l2.303009,0l0,-3.493401c4.848999,0.540001 8.815979,4.430199 9.355988,9.3563l-3.493011,0l0,2.303196l3.482025,0l0,-0.010994zm-11.64801,-19.274605l0,5.300701c-6.205017,0.540001 -11.119995,5.466202 -11.67099,11.6707l-5.301025,0c0.574005,-9.0919 7.880005,-16.398399 16.972015,-16.9715l0,0.000099zm-16.972015,19.263603l5.301025,0c0.539978,6.204498 5.465973,11.119598 11.67099,11.670601l0,5.300896c-9.09201,-0.573097 -16.399017,-7.879601 -16.972015,-16.971497l0,0l0,0zm19.264008,16.971497l0,-5.300896c6.205017,-0.540001 11.119995,-5.466103 11.67099,-11.670601l5.301025,0c-0.574005,9.091896 -7.880005,16.398399 -16.972015,16.971497l0,0l0,0z" id="svg_38"/>
  </g>
  <g id="morning">
   <path d="m405.817322,73.449448l3.916718,0l0.892883,-0.855042a1.257885,1.257885 0 0 1 1.744598,0l0.892822,0.855042l3.916718,0c0,-0.616623 0.397919,-1.2332 1.192108,-1.2332l4.663208,0a13.401,13.401 0 0 0 -8.933441,-20.045605c-5.472198,-1.108269 -11.219025,1.465046 -14.101471,6.225281a13.622979,13.622979 0 0 0 -0.08551,13.821964l4.710907,0c0.789246,-0.00164 1.19046,0.614937 1.19046,1.23156z" fill="#ffda56" id="svg_4" class="cls-1"/>
   <path d="m400.001465,58.395924c2.884094,-4.760235 8.629272,-7.333549 14.101471,-6.225281a13.595026,13.595026 0 0 1 10.842499,13.195477c0.011475,-1.588402 2.477905,-1.586761 2.466431,0a16.114086,16.114086 0 0 0 -10.523499,-14.974621c-6.21048,-2.272408 -13.475006,-0.266357 -17.646545,4.839172c-3.895386,4.768463 -4.725739,11.468937 -2.103058,16.985577l2.775543,0a13.622979,13.622979 0 0 1 0.087158,-13.820324z" id="svg_35" class="cls-2"/>
   <path d="m424.945404,65.366119c0.011505,1.586723 2.477936,1.590012 2.466461,0s-2.454956,-1.593338 -2.466461,0z" id="svg_36" class="cls-2"/>
   <path d="m424.945404,65.366119a13.726571,13.726571 0 0 1 -1.907379,6.850128l2.767334,0a16.053247,16.053247 0 0 0 1.608124,-6.850128c0.009857,1.590012 -2.456573,1.586723 -2.468079,0z" id="svg_39" class="cls-2"/>
   <path d="m412.733215,44.837093l0,-5.534695c0,-1.586758 -2.4664,-1.590046 -2.4664,0l0,5.533051c0,1.588367 2.4664,1.590012 2.4664,0.001644zm-1.233185,-5.534695l0,0z" id="svg_40" class="cls-2"/>
   <path d="m402.291962,46.96479l-2.767334,-4.793106c-0.79422,-1.374626 -2.925201,-0.133198 -2.137604,1.244717l2.767365,4.793144c0.80899,1.374622 2.94165,0.13316 2.137573,-1.244755zm-1.065491,0.623199l-2.767334,-4.793106l2.767334,4.793106z" id="svg_41" class="cls-2"/>
   <path d="m388.305603,53.398911l4.793121,2.767349c1.377899,0.795845 2.621002,-1.33514 1.24472,-2.137566l-4.793121,-2.752541c-1.376251,-0.800785 -2.621002,1.328587 -1.24472,2.122757zm0.623169,-1.065491l4.793121,2.767345l-4.793121,-2.767345z" id="svg_42" class="cls-2"/>
   <path d="m385.43631,66.599319l5.533051,0c1.586731,0 1.590027,-2.466438 0,-2.466438l-5.533051,0c-1.586761,0 -1.590027,2.466438 0,2.466438zm0,-1.2332l0,0z" id="svg_43" class="cls-2"/>
   <path d="m437.563721,64.132881l-5.533051,0c-1.586731,0 -1.590027,2.466438 0,2.466438l5.53302,0c1.586792,0 1.590088,-2.466438 0.000031,-2.466438zm-5.533051,1.233238l0,0z" id="svg_44" class="cls-2"/>
   <path d="m429.901306,56.16626l4.793121,-2.767349c1.374603,-0.794167 0.133179,-2.925186 -1.24472,-2.137566l-4.793121,2.767349c-1.371338,0.800781 -0.133179,2.933411 1.24472,2.137566zm4.169952,-3.831196l-4.793152,2.767349l4.793152,-2.767349z" id="svg_45" class="cls-2"/>
   <path d="m422.829224,48.209545l2.767334,-4.793144c0.795807,-1.37627 -1.335175,-2.620987 -2.137604,-1.244717l-2.750885,4.793106c-0.802429,1.37627 1.326935,2.621025 2.121155,1.244755zm1.701843,-5.414661l-2.767365,4.793106l2.767365,-4.793106z" id="svg_46" class="cls-2"/>
   <path d="m437.368042,72.216248l-18.994873,0c-0.794189,0 -1.19046,0.616577 -1.192108,1.2332s0.396271,1.233238 1.192108,1.233238l18.994873,0c1.591675,0 1.591675,-2.466438 0,-2.466438z" id="svg_47" class="cls-2"/>
   <path d="m398.605438,74.682686l6.021423,0c0.794189,0 1.19046,-0.616623 1.19046,-1.233238s-0.396271,-1.2332 -1.19046,-1.2332l-18.994873,0c-1.586761,0 -1.590057,2.466438 0,2.466438l12.971802,0l0.001648,0z" id="svg_48" class="cls-2"/>
   <path d="m432.078369,78.811493l-13.210266,0l-1.432159,-1.36969l-4.1716,-3.992355l-0.892822,-0.855042a1.257885,1.257885 0 0 0 -1.744598,0l-0.892883,0.855042l-4.14032,3.961098l-1.46344,1.399307l-13.208618,0c-1.586761,0 -1.589996,2.466438 0,2.466438l10.151886,0c1.174042,0 2.380951,0.080582 3.553314,0c0.634705,-0.04274 1.083588,-0.537682 1.516052,-0.973427l0.164398,-0.154549l0.095398,-0.097038l1.762665,-1.687042l0.291077,-0.277878l3.043579,-2.908768c1.093445,1.068817 2.17868,2.15731 3.288574,3.224487c0.5755,0.55574 1.151001,1.106583 1.747864,1.644302c0.113464,0.103584 0.228607,0.203873 0.34201,0.305809c0.203918,0.182518 0.406158,0.365036 0.613373,0.542618c0.822144,0.716904 2.611115,0.384773 3.617401,0.384773l10.987213,0c1.568604,-0.00164 1.571899,-2.468086 -0.018097,-2.468086z" id="svg_49" class="cls-2"/>
   <path d="m427.367462,85.406746l-31.734863,0c-1.586761,0 -1.590057,2.466446 0,2.466446l31.734863,0c1.586731,0 1.590027,-2.466446 0,-2.466446z" id="svg_50" class="cls-2"/>
  </g>
 </g>
</svg>