<svg width="950" height="850" xmlns="http://www.w3.org/2000/svg">
 <!-- Created with Method Draw - http://github.com/duopixel/Method-Draw/ -->
 <defs>
  <radialGradient spreadMethod="pad" id="svg_101">
   <stop offset="0.12891" stop-color="rgb(255, 0, 0)"/>
   <stop offset="0.80078" stop-opacity="0.99609" stop-color="rgb(191, 0, 0)"/>
  </radialGradient>
  <radialGradient r="0.5" cy="0.5" cx="0.5" spreadMethod="pad" id="svg_1">
   <stop offset="0.12891" stop-opacity="0.99609" stop-color="rgb(255, 86, 255)"/>
   <stop offset="0.80078" stop-opacity="0.99609" stop-color="rgb(127, 0, 127)"/>
  </radialGradient>
  <radialGradient r="0.5" cy="0.5" cx="0.5" spreadMethod="pad" id="svg_74">
   <stop offset="0.14453" stop-opacity="0.99609" stop-color="rgb(95, 191, 0)"/>
   <stop offset="0.80078" stop-opacity="0.99609" stop-color="rgb(0, 127, 0)"/>
  </radialGradient>
  <radialGradient r="0.5" cy="0.5" cx="0.5" spreadMethod="pad" id="svg_102">
   <stop offset="0.14844" stop-opacity="0.99609" stop-color="rgb(86, 170, 255)"/>
   <stop offset="0.80078" stop-opacity="0.99609" stop-color="rgb(0, 0, 191)"/>
  </radialGradient>
 </defs>
 <g>
  <title>background</title>
  <rect height="852" width="952" y="-1" x="-1" fill="#fff" id="canvas_background"/>
 </g>
 <g>
  <title>Layer 1</title>
  <rect rx="8" height="45" width="269" y="700.941" x="397.556" stroke-dasharray="2px, 2px" stroke="#000000" fill="none" id="svg_115"/>
  <rect rx="8" height="25" width="81" y="583.645" x="13.506" stroke="#000000" fill="#559e84" id="svg_45"/>
  <rect height="33" width="240" y="645.171" x="401.556" stroke-width="0" stroke-opacity="null" stroke="#000" fill="#ff5656" id="svg_3"/>
  <text xml:space="preserve" y="670.1714" x="405.5639" text-anchor="start" stroke-width="0" stroke-opacity="null" stroke="#000" fill="#ffffff" font-size="24px" font-family="Helvetica,Arial,sans-serif" id="svg_4">Workout</text>
  <rect height="33" width="240" y="241.02" x="400.556" stroke-width="0" stroke-opacity="null" stroke="#000" fill="#ff5656" id="svg_7"/>
  <text xml:space="preserve" y="266.5" x="404.5639" text-anchor="start" stroke-width="0" stroke-opacity="null" stroke="#000" fill="#ffffff" font-size="24px" font-family="Helvetica,Arial,sans-serif" id="svg_8">OHLCs</text>
  <rect height="33" width="240" y="128.477" x="400.556" stroke-width="0" stroke-opacity="null" stroke="#000" fill="#ff5656" id="svg_9"/>
  <text xml:space="preserve" y="152.4768" x="404.5639" text-anchor="start" stroke-width="0" stroke-opacity="null" stroke="#000" fill="#ffffff" font-size="24px" font-family="Helvetica,Arial,sans-serif" id="svg_10">Chains</text>
  <rect height="33" width="240" y="369.5" x="400.556" stroke-width="0" stroke-opacity="null" stroke="#000" fill="#ff5656" id="svg_11"/>
  <text xml:space="preserve" y="394.5" x="404.5639" text-anchor="start" stroke-width="0" stroke-opacity="null" stroke="#000" fill="#ffffff" font-size="24px" font-family="Helvetica,Arial,sans-serif" id="svg_12">Size Down</text>
  <text xml:space="preserve" y="839.2394" x="545.5136" text-anchor="start" stroke-width="0" stroke="#000000" fill="#000000" font-size="12px" font-family="Helvetica,Arial,sans-serif" id="svg_14">***Composite RoI = (Realized+Unrealized PnL)/(Mkt Val - Cost)*365 / DTE</text>
  <text xml:space="preserve" y="41" x="102.0763" text-anchor="start" stroke-width="0" stroke-opacity="null" stroke="#000" fill="#000000" font-size="14px" font-family="Helvetica,Arial,sans-serif" id="svg_19">NSE</text>
  <rect ry="5" height="10" width="47" y="31.15" x="48.5763" stroke="null" fill="#005fbf" id="ButtonBase"/>
  <ellipse ry="7.5" rx="7.5" cy="36.15" cx="83.576" stroke="#000000" fill="#ffffff" id="svg_21"/>
  <text xml:space="preserve" y="572.7104" x="14.1713" text-anchor="start" stroke-width="0" stroke-opacity="null" stroke="null" fill-opacity="null" fill="#000000" font-weight="bold" font-style="normal" font-size="18px" font-family="Helvetica,Arial,sans-serif" id="svg_22">Filters</text>
  <line y2="579.71" x2="203.671" y1="579.71" x1="14.1713" stroke-width="null" stroke-linejoin="null" stroke-linecap="null" stroke="#000000" fill="none" id="svg_23"/>
  <text xml:space="preserve" y="602.3955" x="209.1713" text-anchor="start" stroke-width="0" stroke="#000000" fill="#000000" font-size="18px" font-family="Helvetica,Arial,sans-serif" id="svg_26">HiLo52</text>
  <text xml:space="preserve" y="833.2104" x="14.1713" text-anchor="start" stroke-width="0" stroke="#000000" fill="#000000" font-size="18px" font-family="Helvetica,Arial,sans-serif" id="svg_28">Naked Mean, Median  PoP</text>
  <text xml:space="preserve" y="126.5" x="16.1713" text-anchor="start" stroke-width="0" stroke-opacity="null" stroke="null" fill-opacity="null" fill="#000000" font-weight="bold" font-style="normal" font-size="18px" font-family="Helvetica,Arial,sans-serif" id="svg_29">Settings</text>
  <line y2="133.5" x2="203.671" y1="133.5" x1="16.1713" stroke-width="null" stroke-linejoin="null" stroke-linecap="null" stroke="#000000" fill="none" id="svg_30"/>
  <path d="m23.671329,717.127014c-5.247009,0 -9.499999,4.252991 -9.499999,9.5c0,5.245972 4.25299,9.5 9.499999,9.5c5.247,0 9.5,-4.254028 9.5,-9.5c0,-5.247009 -4.253,-9.5 -9.5,-9.5zm-1.526009,15.856995l-2.312012,-2.314026l4.04401,-4.044006l-4.04401,-4.043945l2.312012,-2.311035l6.35602,6.35498l-6.35602,6.358032l0,0z" transform="rotate(90 23.6713 726.627)" stroke-width="null" stroke="#000000" fill="#000000" id="sort1"/>
  <text xml:space="preserve" y="732.7104" x="40.1713" text-anchor="start" stroke-width="0" stroke-opacity="null" stroke="#000000" fill-opacity="null" fill="#000000" font-size="18px" font-family="Helvetica,Arial,sans-serif" id="svg_24">Sized RoMs grouped by Symbols</text>
  <path d="m23.671329,692.126709c-5.24671,0 -9.499999,4.253296 -9.499999,9.5c0,5.246704 4.253289,9.5 9.499999,9.5c5.2467,0 9.5,-4.253296 9.5,-9.5c0,-5.246704 -4.2533,-9.5 -9.5,-9.5zm-1.526249,15.856812l-2.311401,-2.313477l4.04413,-4.043823l-4.04413,-4.043884l2.311401,-2.311462l6.35602,6.355347l-6.35602,6.3573l0,0z" transform="rotate(90 23.6713 701.627)" stroke-width="null" stroke="#000000" fill="#000000" id="svg_31"/>
  <text xml:space="preserve" y="707.7104" x="40.1713" text-anchor="start" stroke-width="0" stroke-opacity="null" stroke="#000000" fill-opacity="null" fill="#000000" font-size="18px" font-family="Helvetica,Arial,sans-serif" id="svg_32">Descending sized RoMs</text>
  <text xml:space="preserve" y="677.7104" x="14.1713" text-anchor="start" stroke-width="0" stroke-opacity="null" stroke="null" fill-opacity="null" fill="#000000" font-weight="bold" font-style="normal" font-size="18px" font-family="Helvetica,Arial,sans-serif" id="svg_33">Views</text>
  <line y2="684.71" x2="203.671" y1="684.71" x1="14.1713" stroke-width="null" stroke-linejoin="null" stroke-linecap="null" stroke="#000000" fill="none" id="svg_34"/>
  <text xml:space="preserve" y="447.4975" x="13.1713" text-anchor="start" stroke-width="0" stroke="#000000" fill="#000000" font-size="18px" font-family="Helvetica,Arial,sans-serif" id="svg_35">Composite RoI***</text>
  <text xml:space="preserve" y="602.3955" x="18.1213" text-anchor="start" stroke-width="0" stroke="#000000" fill="#000000" font-size="18px" font-family="Helvetica,Arial,sans-serif" id="svg_36">FallRise</text>
  <text xml:space="preserve" y="309.5" x="404.5639" text-anchor="start" stroke-width="0" stroke="#000000" fill="#000000" font-size="16px" font-family="Helvetica,Arial,sans-serif" id="svg_5">- with running Standard Deviation</text>
  <text xml:space="preserve" y="738.1714" x="403.5401" text-anchor="start" stroke-width="0" stroke="#000000" fill="#000000" font-size="16px" font-family="Helvetica,Arial,sans-serif" id="svg_6">- SELL Nakeds on remaining qty</text>
  <text xml:space="preserve" y="759.1714" x="397.5639" text-anchor="start" stroke-width="0" stroke="#000000" fill="#000000" font-size="12px" font-family="Helvetica,Arial,sans-serif" id="svg_13">Can be dynamically executed upon an event trigger</text>
  <text xml:space="preserve" y="436.5" x="402.5639" text-anchor="start" stroke-width="0" stroke="#000000" fill="#000000" font-size="16px" font-family="Helvetica,Arial,sans-serif" id="svg_25">- On OptPrice, Margin (RoM**)</text>
  <text xml:space="preserve" y="694.1714" x="403.5639" text-anchor="start" stroke-width="0" stroke="#000000" fill="#000000" font-size="16px" font-family="Helvetica,Arial,sans-serif" id="svg_27">- SELL Covered Calls and Puts</text>
  <rect height="33" width="240" y="491.5" x="400.556" stroke-width="0" stroke-opacity="null" stroke="#000" fill="#ff5656" id="svg_37"/>
  <text xml:space="preserve" y="516.5" x="404.5639" text-anchor="start" stroke-width="0" stroke-opacity="null" stroke="#000" fill="#ffffff" font-size="24px" font-family="Helvetica,Arial,sans-serif" id="svg_38">Target</text>
  <text xml:space="preserve" y="580.5" x="402.5591" text-anchor="start" stroke-width="0" stroke="#000000" fill="#000000" font-size="16px" font-family="Helvetica,Arial,sans-serif" id="svg_39">- With selected filters</text>
  <text xml:space="preserve" y="540.5" x="402.5639" text-anchor="start" stroke-width="0" stroke="#000000" fill="#000000" font-size="16px" font-family="Helvetica,Arial,sans-serif" id="svg_40">- On remaining qty</text>
  <text xml:space="preserve" y="720.1714" x="403.5639" text-anchor="start" stroke-width="0" stroke="#000000" fill="#000000" font-size="16px" font-family="Helvetica,Arial,sans-serif" id="svg_41">- BUY to close open option positions</text>
  <text xml:space="preserve" y="417.5" x="402.6624" text-anchor="start" stroke-width="0" stroke="#000000" fill="#000000" font-size="16px" font-family="Helvetica,Arial,sans-serif" id="svg_42">- On UndPrice, StdDev (PoP*)</text>
  <text xml:space="preserve" y="512.0696" x="774.5479" text-anchor="start" stroke-width="0" stroke="#000000" fill="#000000" font-size="16px" font-family="Helvetica,Arial,sans-serif" id="svg_43">targets.pkl</text>
  <text xml:space="preserve" y="290.5" x="403.5639" text-anchor="start" stroke-width="0" stroke="#000000" fill="#000000" font-size="16px" font-family="Helvetica,Arial,sans-serif" id="svg_44">- Open, High, Low, Close</text>
  <text xml:space="preserve" y="808.2394" x="545.5136" text-anchor="start" stroke-width="0" stroke="#000000" fill="#000000" font-size="12px" font-family="Helvetica,Arial,sans-serif" id="svg_15">*PoP - Probabiltiy of Profit</text>
  <text xml:space="preserve" y="778.7104" x="14.1713" text-anchor="start" stroke-width="0" stroke-opacity="null" stroke="null" fill-opacity="null" fill="#000000" font-weight="bold" font-style="normal" font-size="18px" font-family="Helvetica,Arial,sans-serif" id="svg_16">Statistics</text>
  <line y2="785.71" x2="203.671" y1="785.71" x1="14.1713" stroke-width="null" stroke-linejoin="null" stroke-linecap="null" stroke="#000000" fill="none" id="svg_17"/>
  <text xml:space="preserve" y="810.2104" x="14.1713" text-anchor="start" stroke-width="0" stroke="#000000" fill="#000000" font-size="18px" font-family="Helvetica,Arial,sans-serif" id="svg_18">Naked Mean, Median RoM</text>
  <text xml:space="preserve" y="425.2104" x="14.1713" text-anchor="start" stroke-width="0" stroke="#000000" fill="#000000" font-size="18px" font-family="Helvetica,Arial,sans-serif" id="svg_46">Initial Margin</text>
  <text xml:space="preserve" y="534.3432" x="16.1713" text-anchor="start" stroke-width="0" stroke="#000000" fill="#000000" font-size="14px" font-family="Helvetica,Arial,sans-serif" id="svg_47">- Near-the-money</text>
  <text xml:space="preserve" y="329" x="15.1713" text-anchor="start" stroke-width="0" stroke="#000000" fill="#000000" font-size="14px" font-family="Helvetica,Arial,sans-serif" id="svg_49">- Min expected OptPrice</text>
  <text xml:space="preserve" y="480.2104" x="16.1713" text-anchor="start" stroke-width="0" stroke="#000000" fill="#000000" font-size="18px" font-family="Helvetica,Arial,sans-serif" id="svg_50">Options</text>
  <text xml:space="preserve" y="495.3432" x="16.1713" text-anchor="start" stroke-width="0" stroke="#000000" fill="#000000" font-size="14px" font-family="Helvetica,Arial,sans-serif" id="svg_51">- All</text>
  <text xml:space="preserve" y="823.2394" x="545.5136" text-anchor="start" stroke-width="0" stroke="#000000" fill="#000000" font-size="12px" font-family="Helvetica,Arial,sans-serif" id="svg_53">**RoM - Return on Margin</text>
  <text xml:space="preserve" y="372.7104" x="14.1713" text-anchor="start" stroke-width="0" stroke-opacity="null" stroke="null" fill-opacity="null" fill="#000000" font-weight="bold" font-style="normal" font-size="18px" font-family="Helvetica,Arial,sans-serif" id="svg_54">Monitors</text>
  <line y2="379.71" x2="203.671" y1="379.71" x1="14.1713" stroke-width="null" stroke-linejoin="null" stroke-linecap="null" stroke="#000000" fill="none" id="svg_55"/>
  <text xml:space="preserve" y="402.2104" x="14.1713" text-anchor="start" stroke-width="0" stroke="#000000" fill="#000000" font-size="18px" font-family="Helvetica,Arial,sans-serif" id="svg_56">Net Liquidation Value</text>
  <text xml:space="preserve" y="160" x="17.1713" text-anchor="start" stroke-width="0" stroke="#000000" fill="#000000" font-size="18px" font-family="Helvetica,Arial,sans-serif" id="svg_57">NLV % Limit</text>
  <text xml:space="preserve" y="253" x="15.1713" text-anchor="start" stroke-width="0" stroke="#000000" fill="#000000" font-size="14px" font-family="Helvetica,Arial,sans-serif" id="svg_58">- Call Std Multiple</text>
  <text xml:space="preserve" y="273" x="15.1713" text-anchor="start" stroke-width="0" stroke="#000000" fill="#000000" font-size="14px" font-family="Helvetica,Arial,sans-serif" id="svg_59">- Put Std Multiple</text>
  <text xml:space="preserve" y="310" x="15.1713" text-anchor="start" stroke-width="0" stroke="#000000" fill="#000000" font-size="14px" font-family="Helvetica,Arial,sans-serif" id="svg_60">- Max Days to Expiry (DTE)</text>
  <text xml:space="preserve" y="234" x="16.1713" text-anchor="start" stroke-width="0" stroke="#000000" fill="#000000" font-size="18px" font-family="Helvetica,Arial,sans-serif" id="svg_62">Others</text>
  <text xml:space="preserve" y="178" x="16.1713" text-anchor="start" stroke-width="0" stroke="#000000" fill="#000000" font-size="18px" font-family="Helvetica,Arial,sans-serif" id="svg_63">Assignment Limit</text>
  <text xml:space="preserve" y="292" x="15.1713" text-anchor="start" stroke-width="0" stroke="#000000" fill="#000000" font-size="14px" font-family="Helvetica,Arial,sans-serif" id="svg_64">- Min expected RoM</text>
  <text xml:space="preserve" y="207" x="16.1713" text-anchor="start" stroke-width="0" stroke="#000000" fill="#000000" font-size="18px" font-family="Helvetica,Arial,sans-serif" id="svg_65">Blacklist</text>
  <text xml:space="preserve" y="41" x="13.0763" text-anchor="start" stroke-width="0" stroke-opacity="null" stroke="#000" fill="#000000" font-size="14px" font-family="Helvetica,Arial,sans-serif" id="svg_66">SNP</text>
  <path d="m273.853516,128.539597c-9.113647,0 -16.500061,7.386673 -16.500061,16.499985c0,9.111816 7.386414,16.5 16.500061,16.5c9.112671,0 16.499939,-7.388184 16.499939,-16.5c0,-9.113312 -7.387268,-16.499985 -16.499939,-16.499985zm3.584961,24.752762c-0.09021,0.072784 -0.208008,0.147308 -0.119629,0.233917c0.088379,0.088348 -0.102234,0.148773 -0.102234,0.193848s0.117859,0.278961 0.058899,0.38121c-0.058899,0.103943 -0.103088,0.252792 -0.147278,0.341141c-0.044067,0.088379 -0.148926,0.176743 -0.117737,0.308441c0.02771,0.131638 -0.118652,0.088348 -0.118652,0.221771c0,0.131699 0.131653,0.072769 0.102173,0.235657c-0.027649,0.162674 -0.102173,0.207733 -0.102173,0.323792c0,0.117828 0.072754,0.278961 0.072754,0.324051s-0.072754,0.192337 -0.175903,0.308411c-0.104736,0.117569 -0.17572,0.193848 -0.163635,0.264847c0.016541,0.074524 0.118713,0.162903 0.103943,0.209763c-0.014648,0.041489 -0.147217,0.190536 -0.131653,0.292801c0.015625,0.10199 0.146423,0.06041 0.175903,0.131409c0.029297,0.074509 -0.175903,0.135208 -0.089294,0.207977c0.089294,0.072784 0.207886,0.058914 0.17749,0.237442c-0.021606,0.126389 0.072754,0.183533 0.143066,0.223312c-1.01178,0.251236 -2.064026,0.400299 -3.152771,0.400299c-7.220154,0 -13.092712,-5.872513 -13.092712,-13.092773c0,-2.354019 0.632324,-4.559296 1.722839,-6.468185c0.090027,-0.046844 0.155823,-0.078064 0.194031,-0.069275c0.074463,0.013855 0.089966,0.117844 0.207764,0.147324c0.118774,0.029449 0.22168,-0.088379 0.295349,-0.133453c0.072754,-0.043289 0.131653,-0.221786 0.058044,-0.206177c-0.073669,0.01384 -0.265869,0 -0.265869,0s0.207825,-0.117844 0.207825,-0.192352s0.028625,-0.192078 0.146423,-0.235397c0.116943,-0.045059 0.116943,-0.01561 0.043335,0.160858c-0.07373,0.176743 0.149048,0.102219 0.236389,0.029449s0.147278,-0.01561 0.308411,-0.117569c0.16272,-0.103958 0.16272,-0.162872 0.251099,-0.162872c0.088379,0 0.251282,0.162872 0.339539,0.103973c0.087463,-0.058899 0.339539,0.072769 0.486816,0.072769c0.146423,0 0.618469,0.192078 0.708496,0.192078c0.088318,0 0.354187,0.102234 0.368958,0.294571c0.014709,0.190643 0.102173,0.176743 0.190613,0.176743s0.295349,0.074509 0.295349,0.147308c0,0.074249 -0.05896,0.368851 0.088318,0.443359c0.146423,0.072739 0.280579,0.190613 0.339539,0.161133c0.058899,-0.029449 0,-0.263351 -0.072754,-0.294571c-0.073669,-0.02948 -0.030396,-0.133453 -0.05896,-0.192383c-0.029419,-0.057129 0.088379,-0.057129 0.132568,0.045059c0.044189,0.102234 0.162903,0.294601 0.23645,0.294601c0.072754,0 0.23645,0.176773 0.190552,0.280731c-0.044189,0.103958 0.044189,0.251022 0.177612,0.251022c0.131592,0 0.294434,0.206207 0.354248,0.221786c0.05896,0.01384 0.132446,0.088379 0.132446,0.131683c0,0.046799 0.073608,0.296326 0.073608,0.398315c0,0.102203 -0.044922,0.516373 -0.059631,0.67923s0.117737,0.441574 0.264954,0.588882c0.146423,0.149048 0.279724,0.42952 0.368103,0.488419c0.090149,0.058929 0.147278,0.220062 0.280579,0.206192c0.132568,-0.01564 0.220947,0.088409 0.339661,0.294571c0.117737,0.207748 0.235535,0.545639 0.324829,0.575089c0.088196,0.029449 0.235474,0.133438 0.16095,0.206223c-0.072754,0.072739 -0.19043,0.235397 -0.057983,0.235397c0.132507,0 0.176758,-0.072769 0.280762,0.060669c0.102173,0.131683 0.235474,0.206223 0.219849,0.296341c-0.014709,0.086609 0.117798,0.116058 0.176758,0.131653c0.059814,0.013885 0.192261,0.280487 0.324768,0.161118c0.133423,-0.117828 -0.175842,-0.292801 -0.264893,-0.36908c-0.08902,-0.072739 0,-0.235672 -0.20694,-0.39827c-0.20697,-0.161133 -0.17749,-0.280731 -0.32489,-0.39856c-0.1474,-0.117889 -0.26416,-0.220093 -0.11792,-0.324051c0.1474,-0.103729 0.16214,0.103928 0.2211,0.235672c0.05957,0.131668 0.36792,0.39856 0.50058,0.516388c0.13327,0.117569 0.37088,0.529968 0.44342,0.529968s0.279694,0.237442 0.279694,0.237442s0.116882,0.190338 0.072754,0.249268c-0.04425,0.058929 0.060486,0.280701 0.163635,0.33963c0.102234,0.058914 0.516327,0.249512 0.575134,0.280731c0.059875,0.029449 0.176697,0.251022 0.339539,0.251022c0.161987,0 0.280579,0.015579 0.324829,0.058899c0.044128,0.043289 0.175781,0.220047 0.265869,0.117828c0.088318,-0.103928 0.102173,-0.147247 0.23645,-0.147247c0.132446,0 0.190552,0.102188 0.26416,0.176727c0.073608,0.072739 0.280701,0.266891 0.383667,0.251282c0.103149,-0.013901 0.236572,0.117538 0.310181,0.072708s0.191498,0.02948 0.24939,0.058929c0.061523,0.02948 0.265869,0.134964 0.252258,0.309952c-0.01474,0.178497 0.11673,0.220062 0.20694,0.265121c0.08847,0.045059 0.205963,0.147308 0.281403,0.221817c0.072754,0.070984 0.233948,0.086609 0.278809,0.131424c0.044189,0.043289 0.073639,0.131638 0.207031,0.058929c0.131714,-0.072784 0.103882,-0.205963 0.103882,-0.205963s0.146423,-0.02948 0.220947,0.029449c0.072754,0.057159 0.117859,0.249252 0.162781,0.280472c0.043274,0.02948 0.130798,0.249542 0.072021,0.41069c-0.057983,0.164627 -0.043457,0.32402 -0.103149,0.32402c-0.058899,0 -0.131653,0.193878 -0.221802,0.237167c-0.086609,0.045044 -0.322998,0.251251 -0.308289,0.32579c0.014771,0.070999 0.148071,0.292572 0.117859,0.396561c-0.028625,0.103973 -0.220032,0.221802 -0.174988,0.382919c0.043335,0.164413 0.354248,0.207672 0.366333,0.355011c0.016479,0.149048 0.237305,0.473068 0.266724,0.620331c0.028564,0.147049 0.279846,0.308212 0.279846,0.514389c0,0.207962 0.354248,0.3396 0.427917,0.3535c0.071899,0.01564 0.206909,0.148758 0.309143,0.193878s0.191467,0.131622 0.264221,0.249481s0.059692,0.29631 0.059692,0.3396c0,0.04483 -0.044189,0.500519 -0.088379,0.765671c-0.044922,0.266602 0.057251,0.472839 -0.030151,0.549103l0,-0.000092l0,-0.000061l0,-0.000061l0,-0.000015zm-9.527649,-13.716187c0.044128,0.015625 0.133423,0.103729 0.177612,0.103729c0.044922,0 0.264954,0.176743 0.324768,0.235657c0.059692,0.058929 0.059692,0.221832 -0.014709,0.235672s-0.118713,-0.161148 -0.133484,-0.235672c-0.014709,-0.072754 -0.161865,-0.072754 -0.235474,-0.117828c-0.074585,-0.045044 -0.239075,-0.261566 -0.118713,-0.221558zm19.009216,5.927673c-0.163757,0.207977 -0.147278,0.310181 -0.221802,0.325806c-0.072754,0.013855 0.074524,0.072784 0.102234,0.220032c0.025208,0.126404 -0.073669,0.254578 0.071899,0.370605c-0.551758,5.243652 -4.212036,9.57608 -9.100525,11.11087c-0.007751,-0.012085 -0.021606,-0.02771 -0.023376,-0.037994c-0.031189,-0.088409 -0.031189,-0.265137 0.071899,-0.324066c0.103943,-0.058899 0.354187,-0.263336 0.412231,-0.30838c0.058899,-0.04483 0.148193,-0.251038 0.104004,-0.280487c-0.043274,-0.02948 -0.264221,0 -0.295471,-0.043304c-0.029297,-0.045059 -0.029297,-0.105743 0.117798,-0.207947c0.147339,-0.102234 0.221863,-0.251282 0.28064,-0.294586c0.058899,-0.0448 0.175842,-0.133209 0.220947,-0.237152c0.043274,-0.102234 -0.045959,-0.045105 -0.133423,-0.045105s-0.133362,-0.161133 -0.133362,-0.233856s0.22168,0.029419 0.385437,0.058899c0.16217,0.02771 0.087402,-0.074524 0.072815,-0.161133c-0.014771,-0.088379 0.029297,-0.237152 0.118591,-0.193848c0.086548,0.0448 0.543945,-0.013885 0.602783,-0.02948c0.05896,-0.013824 0.220825,-0.278961 0.279785,-0.353485c0.059814,-0.074524 0.072754,-0.147278 0,-0.190582c-0.074402,-0.045074 -0.162781,-0.209473 -0.191345,-0.251251c-0.02948,-0.0466 -0.044189,-0.311707 -0.014709,-0.38623c0.028564,-0.070984 0,0.428009 0.206055,0.488434c0.207947,0.058929 0.324768,0.088348 0.516235,-0.088104c0.1922,-0.176758 0.338623,-0.296356 0.354248,-0.412415c0.014709,-0.117828 0.058899,-0.237427 0.132568,-0.278961c0.074463,-0.045059 0.11853,0.116074 0.206909,-0.074509c0.088379,-0.192108 0.176758,-0.178238 0.265991,-0.339401c0.087402,-0.162888 -0.148132,-0.36908 0.026855,-0.488419c0.178345,-0.116089 0.488403,-0.263351 0.488403,-0.263351s0.088379,-0.04509 0.265137,-0.090149c0.176758,-0.04155 0.368042,-0.015579 0.427002,-0.102188c0.058899,-0.088409 0.11853,-0.278961 0.206909,-0.38298c0.089294,-0.103729 0.191528,-0.264862 0.147339,-0.339355c-0.044189,-0.074524 0.117798,-0.400299 0.103088,-0.486908c-0.014709,-0.088135 -0.147278,-0.296082 0.074402,-0.472839s0.456421,-0.44339 0.472137,-0.514374c0.013763,-0.074524 0.19165,-0.384705 0.17514,-0.533752c-0.01358,-0.145538 -0.17514,-0.322052 -0.278259,-0.368866c-0.104797,-0.041534 -0.324829,-0.055374 -0.413208,-0.174957s-0.339539,-0.235657 -0.42865,-0.206207c-0.087433,0.029449 -0.235657,0.058899 -0.354248,-0.017349c-0.117859,-0.07103 -0.308411,-0.160904 -0.382019,-0.219833c-0.075317,-0.057129 -0.265869,-0.102188 -0.354248,-0.102188s-0.073669,-0.060669 -0.20697,0.117798c-0.132568,0.178284 0,0.237183 -0.235657,0.205963c-0.237305,-0.027679 0.027832,-0.04332 0.162903,-0.220062c0.130798,-0.176468 -0.015625,-0.280487 -0.162903,-0.235397c-0.148071,0.04509 -0.044922,0.133438 -0.28064,0.176758c-0.234741,0.043289 -0.234741,-0.103989 -0.087402,-0.131668c0.147217,-0.029449 0.412231,-0.162933 0.412231,-0.220093c0,-0.060669 -0.02948,-0.223557 -0.148071,-0.223557s-0.088379,-0.145523 -0.26416,-0.33609c-0.177551,-0.193893 -0.398438,-0.311722 -0.576843,-0.284042c-0.174988,0.02948 -0.308411,0.074509 -0.397522,-0.084778c-0.088379,-0.164703 -0.191528,-0.194183 -0.252197,-0.280792c-0.057861,-0.088318 -0.206055,0 -0.250244,-0.045029s-0.044189,-0.043289 -0.044189,-0.043289s-0.192261,0.043289 -0.087433,-0.08992c0.102142,-0.131653 0.146393,-0.382904 0.102142,-0.36908c-0.043182,0.01561 -0.118591,0.223557 -0.191345,0.207947c-0.072021,-0.013809 -0.015625,-0.045029 -0.162842,-0.131638c-0.148193,-0.088394 -0.382813,-0.01561 -0.382813,0.058899c0,0.072708 -0.073669,0.131638 -0.073669,0.131638s-0.044189,-0.041519 -0.088379,-0.131638c-0.045044,-0.088379 -0.25116,-0.103989 -0.354187,-0.01564c-0.102234,0.088348 -0.161926,-0.221832 -0.235596,-0.221832s-0.220032,0.072784 -0.29541,0.207993c-0.071899,0.131668 -0.04248,0.323792 -0.103882,0.309952c-0.057129,-0.015594 -0.071899,-0.264862 -0.057129,-0.35498c0.013855,-0.090164 0.17572,-0.235672 0.057129,-0.265152c-0.116943,-0.029419 -0.294556,0.147308 -0.366455,0.162888c-0.074402,0.013824 -0.22168,0.117844 -0.310059,0.235672c-0.087463,0.117828 -0.131653,0.192093 -0.22168,0.235413c-0.087524,0.04509 -0.219177,0 -0.189697,-0.04332c0.028564,-0.04483 -0.252014,-0.205933 -0.296204,-0.148773c-0.045105,0.058929 -0.175842,0.103958 -0.308411,0.164398c-0.133301,0.058914 -0.252014,-0.074509 -0.28064,-0.133179s-0.089966,-0.072769 -0.103027,-0.265137c-0.014771,-0.190552 0.030273,-0.398544 0.073608,-0.516373c0.043335,-0.117569 -0.22168,-0.353241 -0.324829,-0.339401c-0.103027,0.01564 -0.206909,0.117844 -0.309143,0.102234c-0.103943,-0.01387 -0.058899,-0.043304 -0.220886,-0.043304c-0.162842,0 -0.029419,-0.02771 0,-0.161118c0.028564,-0.131729 -0.058899,-0.310211 0.104004,-0.427811c0.161133,-0.119568 0.103943,-0.400299 0,-0.412369c-0.104004,-0.01738 -0.296265,0.043289 -0.427979,0.02948c-0.131653,-0.01741 -0.235474,0.102188 -0.191406,0.233841c0.044189,0.133469 -0.073517,0.221558 -0.118591,0.207748c-0.044189,-0.01387 -0.102234,-0.08812 -0.265076,0.029419c-0.161072,0.117844 -0.2211,0.072769 -0.382874,-0.058899c-0.161926,-0.133148 -0.339478,-0.264877 -0.368958,-0.471039c-0.029419,-0.207993 -0.045044,-0.41391 0.014709,-0.531754c0.057892,-0.117828 0.057892,-0.324036 -0.02948,-0.355255c-0.088379,-0.02771 0.102112,-0.174973 0.205292,-0.204422c0.104828,-0.029449 0.2659,-0.162659 0.29538,-0.221573c0.02948,-0.058929 0.176819,-0.045059 0.33847,-0.045059c0.16214,0 0.19162,0 0.35434,0.088394c0.162109,0.088379 0.191528,-0.045074 0.191528,-0.088394c0,-0.045059 0.05896,-0.133469 0.23645,-0.117859c0.176697,0.013901 0.426208,-0.058899 0.472046,-0.01561s0.131653,0.221863 0.220032,0.162918c0.090027,-0.058868 0.118591,-0.162918 0.148987,0.01564c0.028503,0.176483 0.102173,0.443359 0.23645,0.486664c0.131592,0.04509 0.05896,0.220078 0.190552,0.235657c0.129883,0.013809 0.193176,-0.278961 0.148071,-0.382919c-0.045044,-0.102249 -0.133423,-0.41214 -0.207031,-0.48674c-0.072632,-0.072678 -0.072632,-0.265091 0.072021,-0.323959c0.14801,-0.058929 0.502258,-0.353317 0.604492,-0.44162c0.103851,-0.090149 0.383667,-0.162949 0.296082,-0.280792c-0.08844,-0.119537 -0.11792,-0.192337 -0.11792,-0.280685s0.08844,-0.058914 0.13266,0s0.21994,-0.088104 0.17572,-0.162643c-0.04306,-0.0728 -0.02948,-0.176697 0.0737,-0.162888c0.10376,0.01564 0.13147,-0.072754 0.08902,-0.131683c-0.0448,-0.060638 0.10318,-0.133408 0.20636,-0.103958c0.104889,0.029449 0.36911,-0.01561 0.4133,-0.074539c0.043091,-0.058899 -0.088409,-0.117828 -0.088409,-0.235382c0,-0.117828 0.17572,-0.221786 0.280609,-0.235687c0.103088,-0.015579 0.234711,0 0.250427,-0.045044c0.013763,-0.04332 0.16272,-0.162888 0.175842,-0.058899c0.016357,0.103943 0,0.280701 0.118591,0.280701c0.117798,0 0.263306,-0.133408 0.30835,-0.147278c0.04306,-0.01384 0.324829,-0.072769 0.383728,-0.088379c0.059692,-0.013824 0.412292,-0.043304 0.368958,-0.147263c-0.044189,-0.102219 -0.088379,-0.206207 -0.133423,-0.249542c-0.044189,-0.045029 -0.087463,0.01387 -0.148071,0.088394c-0.057983,0.074539 -0.161987,0.074539 -0.190552,0.01564c-0.02948,-0.058929 0.013855,-0.235672 -0.088379,-0.178513c-0.104858,0.058899 -0.117798,0.117813 -0.178345,0.088348c-0.05896,-0.029449 -0.116943,-0.131668 -0.116943,-0.131668s0.146362,-0.072769 0.043274,-0.207718c-0.102234,-0.131683 -0.251282,-0.102203 -0.397522,-0.027679c-0.147278,0.072769 -0.134338,0.058899 -0.310059,0.102219s-0.265137,0.088379 -0.265137,0.088379s0.237305,-0.145538 0.338623,-0.235672c0.104004,-0.088364 0.237427,-0.133438 0.324829,-0.221786c0.089233,-0.088379 0.323975,0.045059 0.323975,0.045059s0.119507,-0.119598 0.119507,-0.045059s-0.031128,0.265091 0.057129,0.265091c0.090088,0 0.3396,-0.117844 0.239075,-0.147293c-0.105652,-0.02948 0.146423,0 0.248596,-0.074509c0.104004,-0.074509 0.220032,-0.074509 0.279724,-0.102219c0.059753,-0.029449 0.104858,-0.162903 0.207092,-0.162903c0.104736,0 0.147278,0.133453 0,0.221832s-0.162079,0.310181 -0.236572,0.36908c-0.072632,0.058929 -0.029297,0.133179 0.089233,0.117569c0.117859,-0.01384 0.21994,0.015579 0.32373,-0.01384s0.16272,0.029449 0.19162,0.072769c0.02948,0.045059 0.117889,-0.04332 0.117889,-0.04332s0.191345,-0.0448 0.25116,0.02948c0.059601,0.072739 0.103821,-0.045059 0.059601,-0.117569c-0.04422,-0.072739 -0.10379,-0.147293 -0.1474,-0.237442c-0.04422,-0.088379 -0.10379,-0.117828 -0.22052,-0.088379c-0.11792,0.02948 -0.1474,-0.029449 -0.2211,-0.072739c-0.07373,-0.045059 -0.13446,0.058929 -0.07373,-0.045059c0.05957,-0.102234 0.08847,-0.133453 0.13269,-0.221832c0.04422,-0.088089 0.23703,-0.251007 0.04422,-0.292572c-0.19165,-0.046799 -0.251923,-0.074509 -0.28067,-0.162888c-0.02948,-0.088348 -0.25058,-0.251282 -0.30838,-0.251282c-0.06073,0 -0.264862,0 -0.28064,-0.074509c-0.01474,-0.072739 -0.16217,-0.235382 -0.23645,-0.309921c-0.07193,-0.072769 -0.353241,-0.39856 -0.39859,-0.428009c-0.04422,-0.029449 -0.10318,-0.01384 -0.23584,0.162903c-0.1315,0.178497 -0.25,0.207947 -0.354187,0.162888c-0.103088,-0.043289 -0.117859,-0.029449 -0.219177,-0.147278c-0.105591,-0.117844 0.102173,-0.131683 0.058044,-0.206192c-0.045837,-0.072769 -0.280579,-0.103989 -0.427917,-0.117798c-0.148071,-0.01564 -0.251099,-0.176544 -0.472839,-0.192154c-0.220032,-0.013809 -0.485901,0.02948 -0.559509,0.02948c-0.072754,0 -0.072754,0.103729 -0.102234,0.264862c-0.030334,0.162888 0.102234,0.207962 -0.030334,0.237411c-0.131714,0.02948 -0.192261,0.043289 -0.05896,0.102219c0.132568,0.060669 0.309326,0.296051 0.309326,0.296051s0,0.131699 -0.103882,0.206207c-0.10202,0.074539 -0.20697,0.147293 -0.26474,0.060669c-0.05957,-0.090118 -0.22113,-0.074509 -0.17572,0.01387c0.04303,0.088364 0.1315,0.133453 0.1315,0.221832c0,0.088348 0.13324,0.308182 0.04422,0.38269c-0.08844,0.074509 -0.19046,0.015579 -0.26416,0.029449s-0.14917,-0.117828 -0.08844,-0.147278c0.05777,-0.02948 -0.01651,-0.251053 -0.01651,-0.251053s-0.17572,0.251053 -0.16214,0.117828c0.0159,-0.133408 -0.07254,-0.147278 -0.07254,-0.251236c0,-0.102234 -0.08902,-0.147324 -0.21991,-0.117844c-0.13446,0.029449 -0.29541,-0.045059 -0.547241,-0.090149c-0.249512,-0.043289 -0.353333,-0.072769 -0.559509,-0.176498c-0.20697,-0.102219 -0.28064,-0.029419 -0.38382,-0.014069c-0.10318,0.014069 -0.05896,-0.207703 -0.19223,-0.235413c-0.131592,-0.031219 -0.2052,0.027679 -0.23468,-0.162888c-0.02948,-0.190582 0.044189,-0.237411 0.36795,-0.443344c0.32486,-0.206177 0.279999,-0.294556 0.531158,-0.324036c0.250092,-0.029434 0.368896,0.02948 0.368896,-0.045074s0.058899,-0.368835 0.058899,-0.221817s0.298035,0.157608 0.163696,0.259827c-0.131714,0.104004 -0.05896,0.117844 0.045044,0.117844c0.104004,0 0.294495,-0.102219 0.294495,-0.102219s0.236511,-0.103745 0.29541,-0.01564c0.059601,0.088379 0.059601,0.178528 0.162781,0.178528s0.3237,-0.119598 0.132568,-0.221832c-0.191528,-0.103729 -0.309204,-0.08812 -0.427002,-0.207718s-0.089233,-0.072769 -0.221802,-0.04332c-0.131531,0.02948 -0.131531,-0.045059 -0.176636,-0.045059s-0.118713,0.029449 -0.148193,-0.029449c-0.028564,-0.058899 0.016541,-0.072754 0.164673,-0.072754c0.146301,0 0.323792,0.043304 0.323792,0.043304s0.17572,-0.058914 0.21994,-0.072784c0.04422,-0.01561 0.28067,-0.045059 0.23645,-0.176727c-0.04599,-0.133438 -0.19223,-0.133438 -0.23645,-0.176743s0.08844,-0.102219 0.16275,-0.133179c0.0737,-0.029449 0.27948,0 0.27948,0s0.133362,0.01535 0.133362,-0.04332s-0.031952,-0.133438 0.058044,-0.088348s0,0.176468 0.132507,0.147018c0.131592,-0.02919 0.161926,0 0.23468,0.043289c0.073669,0.04509 -0.014709,0.221832 -0.087463,0.251282c-0.073669,0.027679 -0.191345,0.088348 -0.029419,0.102219c0.163818,0.01561 0.279968,0.01561 0.279968,0.01561s0.10379,-0.102219 0.14801,-0.190598c0.043152,-0.090134 0.118591,-0.031189 0.17572,0c0.059814,0.027679 0.28064,0.072769 0.074524,0.131668c-0.207947,0.058929 -0.251221,0.133453 -0.295471,0.206223c-0.043213,0.074509 -0.060486,0.119568 -0.251099,0.074509c-0.193115,-0.045059 -0.295349,-0.029449 -0.339539,0.045059c-0.044189,0.072769 -0.014709,0.309952 0.060669,0.278732c0.070984,-0.029434 0.14624,-0.029434 0.234619,-0.058914c0.088379,-0.029449 0.442627,0.029465 0.530151,0.01561c0.088379,-0.01561 0.237305,0.147293 0.281494,0.117813c0.044189,-0.029419 0.133423,0.058899 0.220947,0.117828c0.088318,0.058899 0.058838,-0.131668 0.21991,-0.01384c0.163757,0.117828 0.073608,0.117828 0.163757,0.117828c0.085693,0 0.278809,0.013824 0.278809,0.013824s0.015778,-0.145493 0.163818,-0.117813c0.147095,0.029449 0.277954,0.192352 0.263184,0.072769c-0.013794,-0.116058 0.014771,-0.204437 -0.102173,-0.294556c-0.117737,-0.088394 -0.309052,-0.147064 -0.339539,-0.190353c-0.02948,-0.045059 -0.058899,-0.103989 -0.014709,-0.133438c0.044189,-0.02771 0.251221,0.015579 0.368042,0.090118c0.117859,0.072769 0.220947,0.147018 0.309326,0.08812c0.087463,-0.058899 0.193298,-0.08812 0.236389,-0.133179c0.043335,-0.045059 0.147369,-0.176758 0.147369,-0.176758s-0.44339,-0.057144 -0.50058,-0.133423c-0.05957,-0.072739 -0.26651,-0.176727 -0.32547,-0.176727s-0.21994,0.103989 -0.2789,-0.043304s-0.05896,-0.325546 -0.11969,-0.339386c-0.05603,-0.01561 -0.67749,-0.103973 -0.76474,-0.149063c-0.08844,-0.043289 -0.44281,-0.147278 -0.57608,-0.220047s-0.32486,-0.178482 -0.44162,-0.178482c-0.11792,0 -0.604889,0.058899 -0.69397,0.045059c-0.088409,-0.01561 -0.35321,0.029449 -0.457367,0.043289c-0.103149,0.01564 0.133423,0.207962 -0.087463,0.251282c-0.22052,0.045029 -0.191467,0.074509 -0.147339,-0.147278c0.043335,-0.221832 -0.148651,-0.280472 -0.339478,-0.192352c-0.191345,0.088348 -0.501526,0.149033 -0.427917,0.251251c0.073669,0.103989 -0.013794,0.178497 0.132568,0.280731c0.148193,0.103989 0.207825,0.133438 0.397583,0.117828c0.193115,-0.01384 0.384521,0.029449 0.384521,0.029449s0,0.176498 -0.072754,0.205948c-0.073608,0.029465 -0.191406,0.029465 -0.221619,0.117844c-0.028625,0.088348 -0.176758,0.133408 -0.176758,0.088348s0.074524,-0.192352 -0.02948,-0.265121c-0.102173,-0.074249 -0.132568,-0.08812 -0.250244,-0.01564c-0.118774,0.074554 -0.131714,0.104004 -0.192383,-0.013809c-0.058899,-0.117569 -0.235352,-0.221558 -0.235352,-0.221558s-0.11853,-0.147293 -0.20697,-0.220032c-0.08725,-0.074539 -0.24939,-0.058929 -0.2659,0.01384c-0.01474,0.072769 0.02948,0.147293 0.08844,0.280731c0.05954,0.133179 0.1185,0.38269 0.01532,0.39827c-0.10376,0.01564 -0.1185,0.029449 -0.22168,0.058899c-0.103119,0.029449 -0.147369,-0.043289 -0.147369,-0.161118s-0.045898,-0.221802 -0.014648,-0.266632c0.029419,-0.043289 -0.118652,0.03096 -0.265991,0c-0.148071,-0.027939 -0.264801,0.058899 -0.118591,0.105499c0.14801,0.043289 0.17865,0.220032 0.045044,0.263351c-0.133484,0.045059 -0.634949,0 -0.797729,0s-0.39679,0.045059 -0.442566,-0.043289c-0.04425,-0.088379 0.134155,-0.147293 0.236389,-0.147293c0.103088,0 0.412231,0.01384 0.53009,-0.147278c0.117798,-0.162628 -0.147339,-0.192078 -0.264221,-0.192078c-0.118591,0 -0.207886,-0.043304 -0.339539,-0.175003c-0.134216,-0.133408 0.088379,-0.221817 0.058899,-0.280731c-0.02948,-0.058899 -0.17749,-0.01561 -0.309143,-0.01561c-0.132568,0 -0.339478,-0.102219 -0.339478,0.01561c0,0.117844 0.16272,0.455704 0.059631,0.382935c-0.103882,-0.072784 -0.089111,-0.178513 -0.162781,-0.266861c-0.073608,-0.088394 -0.190613,-0.072769 -0.339478,-0.058929c-0.146484,0.01564 -0.396729,0.058929 -0.471252,0.045059c-0.072754,-0.01561 -0.014709,-0.01561 -0.176697,-0.088364c-0.161011,-0.074539 -0.23645,-0.058929 -0.354248,-0.133438c-0.116943,-0.07605 -0.013855,-0.10376 -0.219971,-0.119339c-0.206177,-0.01384 -0.191406,0.102219 -0.397644,0.074509c-0.20697,-0.029449 -0.265869,0.01384 -0.471924,0c-0.207092,-0.01561 -0.309265,-0.029449 -0.339539,0.07251c-0.028687,0.103989 -0.089233,0.280731 -0.177612,0.280731c-0.087433,0 -0.191467,0.103989 0.088379,0.117828c0.28064,0.01561 0.119598,0.147293 0.369019,0.133453c0.25116,-0.01564 0.4729,-0.01564 0.53183,-0.133453c0.05896,-0.117828 0.10318,-0.117828 0.13266,-0.072769c0.02832,0.04332 0.25058,0.308441 0.25058,0.308441s0.14801,0.117828 0.20697,0.147278c0.05777,0.029449 -0.05896,0.162643 -0.17688,0.08812c-0.11792,-0.072769 -0.33963,-0.057159 -0.42807,-0.131439c-0.088379,-0.072739 -0.48645,-0.072739 -0.59082,-0.058929c-0.10199,0.01564 -0.27948,-0.043259 -0.339478,-0.043259c-0.057129,0 -0.250366,0.147018 -0.250366,0.147018s-0.073547,-0.119339 -0.116821,-0.178238c-0.044189,-0.058929 -0.118774,0.058899 -0.177612,0.074478c-0.05896,0.01387 -0.235413,-0.119568 -0.413208,-0.060638c-0.176544,0.060638 -0.117798,0.119568 -0.368958,0.103958s-0.308289,-0.058899 -0.397522,-0.04332c-0.089233,0.01387 -0.089233,0.01387 -0.089233,0.01387s0.014709,0.058899 -0.087341,0.117828c-0.103149,0.05867 -0.17807,0.133194 -0.25177,0.04483c-0.072632,-0.08812 -0.116821,-0.08812 -0.161011,-0.103729c-0.045959,-0.01384 -0.134399,-0.088379 -0.32486,-0.045059c-0.1922,0.045059 -0.48703,-0.057129 -0.5448,-0.057129c-0.04599,0 -0.355011,-0.01741 -0.5578,-0.038269c2.39505,-2.601791 5.817108,-4.24585 9.62561,-4.24585c2.415558,0 4.67334,0.668686 6.61792,1.813736c-0.13266,0.081604 -0.36203,0.067734 -0.44104,0.02594c-0.08844,-0.04834 -0.17923,-0.088379 -0.53891,-0.06926c-0.36026,0.02092 -0.75531,0.138763 -0.675659,0.256332c0.081482,0.117828 -0.161011,0.187317 -0.22345,0.128387c-0.062317,-0.058899 -0.350708,0.069229 -0.332581,0.188843c0.01825,0.117569 -0.044189,0.254517 -0.199158,0.225067c-0.15155,-0.031219 -0.259827,0.06749 -0.268463,0.166443c-0.00766,0.098679 -0.3508,0.166138 -0.37677,0.166138c-0.02771,0 -0.46756,-0.00856 -0.30658,0.107529c0.11026,0.077805 0.1698,0.031235 0.30658,0.058914c0.13504,0.029449 0.242401,0.245956 0.314301,0.276947c0.070251,0.029449 0.1698,0 0.21402,-0.06044c0.04599,-0.058929 0.10849,-0.265106 0.10849,-0.265106s0,0.195618 0.11026,0.235657c0.108307,0.03978 0.375946,-0.02948 0.4487,-0.019119c0.07251,0.0103 0.496277,0.069199 0.61026,0.128128c0.11792,0.058929 0.40448,0.098724 0.48584,0.225342c0.08078,0.128159 0.090851,0.571518 0.13504,0.620132c0.044922,0.04834 0.19751,-0.157654 0.232971,-0.206223c0.034698,-0.050339 0.224579,-0.020889 0.287659,0.046829c0.06427,0.069229 0.20697,0.235641 0.19928,0.304901c-0.0112,0.070969 -0.03714,0.178238 -0.09079,0.138458c-0.05484,-0.03801 -0.14386,-0.027679 -0.10907,-0.107239c0.03653,-0.078079 0.054657,-0.245987 -0.01651,-0.245987c-0.072632,0 -0.13504,0 -0.13504,0s-0.13678,-0.040024 -0.22641,0.107239s-0.017517,0.296341 0.044983,0.296341s0.20874,0 0.20874,0.03801c0,0.03978 -0.154236,0.157578 -0.144653,0.226807c0.009521,0.069504 0.125,0.304901 0.162842,0.3535c0.035522,0.050369 0.224548,0.098709 0.2771,0.109009c0.055542,0.010605 -0.125488,0.01915 -0.079681,0.088425c0.04599,0.069489 0.11618,0.235596 0.214874,0.275406c0.098694,0.040024 0.378357,0.216492 0.412292,0.29454c0.036377,0.079819 0.252014,-0.058899 0.297058,-0.069229c0.045837,-0.00882 0.036377,0.207718 0.162781,0.218292c0.124756,0.00856 0.1698,-0.020889 0.278076,-0.109283s0.081421,-0.207687 0.089233,-0.296036c0.010315,-0.088394 0,-0.155884 0.118591,-0.128174c0.117859,0.029449 0.17926,-0.020859 0.169861,-0.117798c-0.008728,-0.098709 -0.107422,-0.216553 0.079651,-0.246033c0.189758,-0.029419 0.288391,-0.157578 0.405334,-0.157578c0.116943,0 0.441772,0.05011 0.475464,0c0.036377,-0.048569 0.189697,-0.275421 0.288452,-0.284241c0.076263,-0.00856 0.254639,-0.02417 0.437439,-0.04837c1.795471,2.141052 2.906799,4.864212 3.034058,7.840118c-0.133423,0.180283 -0.013,0.346451 0.024292,0.462494c0.000916,0.03479 0.005188,0.065979 0.005188,0.100479c0,0.154297 -0.018311,0.304901 -0.023438,0.459229c-0.000854,0.001801 -0.000854,0.00354 -0.003418,0.005051l0.000031,-0.000031l0.000031,0l0.000031,0l0.000031,0l0.000031,0l0.000031,0l0.000031,0l0.000031,0l0.000031,0l0.000031,0l0.000031,0l0.000031,0l0.000031,0l0.000031,0l0.000031,0l0.000031,0.000031l0.000031,0l0.000031,0zm-11.030396,-4.911041c-0.072632,0.01561 -0.1922,-0.058884 -0.1922,-0.160858s-0.103149,0.190338 -0.045044,0.280487c0.059753,0.088348 -0.117737,0.190567 -0.17572,0.190567s-0.103149,-0.131668 -0.088379,-0.263367c0.015564,-0.133408 -0.087524,-0.250992 -0.251282,-0.237137c-0.161926,0.015579 -0.236389,0.146988 -0.294495,0.192108c-0.059753,0.045029 -0.059753,0.294556 -0.045044,0.353485s0.014771,0.268372 -0.1315,0.251251c-0.134369,-0.013855 -0.10495,-0.263336 -0.090179,-0.353485c0.016479,-0.088379 -0.044189,-0.310181 0.016479,-0.427765c0.059692,-0.117828 0.23465,-0.161133 0.35434,-0.176727s0.36734,0.074524 0.412201,0.058899c0.045044,-0.015594 0.252014,-0.015594 0.353333,0c0.104004,0.012085 0.250244,0.278717 0.17749,0.292542zm0.264282,0.04509c0.045898,0.029419 0.353271,-0.04509 0.413086,0.029419c0.058044,0.074524 -0.060669,0.088425 -0.206909,0.147324c-0.146423,0.058929 -0.192383,0.045029 -0.251282,0.117828s-0.25116,0.102188 -0.339539,0.190582c-0.088379,0.090118 -0.245972,0.141998 -0.278809,0.074509c-0.045959,-0.088379 0.014709,-0.045059 0.02771,-0.088379c0.014709,-0.045059 0.277954,-0.147293 0.277954,-0.147293s0.313538,-0.3535 0.357788,-0.32402l0,0.000031zm-1.178833,-0.516113c-0.043274,0.01384 -0.207092,-0.029465 -0.341309,-0.029465c-0.131653,0 -0.103027,-0.088379 -0.161987,-0.072739c-0.058044,0.013809 -0.19043,0.043289 -0.280579,0.088348c-0.088379,0.043289 -0.236389,0.034729 -0.236389,-0.045029c0,-0.117844 0.059631,-0.088394 0.25116,-0.162903c0.1922,-0.074539 0.400146,-0.280487 0.486755,-0.192078c0.089111,0.08812 0.25116,0.192078 0.354248,0.205917c0.104736,0.01738 -0.02948,0.192383 -0.071899,0.207993l0,0l0,-0.000031l0,-0.000015zm-1.508789,-4.576675c-0.090088,0.029449 -0.394226,0.157608 -0.364746,0.225082c0.011353,0.026169 0.088379,0.079819 0.215759,0.058899c0.128113,-0.01889 0.313416,-0.03801 0.402771,-0.04834c0.088318,-0.010559 0.108215,-0.157593 0.010376,-0.166412c-0.098755,-0.01033 -0.177612,-0.098709 -0.26416,-0.069229zm-1.09137,0.117828c-0.069336,0.029449 -0.276306,-0.048584 -0.383728,0.020645c-0.069336,0.043304 -0.029419,0.185562 0.079773,0.195877c0.107361,0.010315 0.293518,-0.069229 0.312683,-0.0103c0.020752,0.05864 0.089111,0.325531 0.265869,0.237137c0.17749,-0.088379 0.167175,-0.167908 0.215576,-0.178497c0.049377,-0.00853 -0.008667,-0.225082 -0.088379,-0.275436c-0.077881,-0.04834 -0.333374,-0.01889 -0.401794,0.010574zm-0.355042,-0.835114c0.018921,0.050339 -0.009644,0.088364 0.128113,0.107498c0.13678,0.020889 0.196594,0.03978 0.275452,0.03978c0.078796,0 0.047546,-0.128159 -0.019897,-0.216522c-0.069397,-0.088379 -0.049377,-0.077789 -0.226074,-0.128159c-0.17749,-0.048584 -0.354248,-0.048584 -0.472107,-0.03978c-0.118591,0.01033 -0.246887,-0.019135 -0.276306,0.119598c-0.014771,0.069244 0.079712,0.126373 0.19751,0.126373s0.373413,-0.057129 0.393311,-0.008789zm0.256226,0.540543c0.048584,0.107498 0.048584,0.057144 0.187195,0.069229c0.135925,0.01059 0.244202,-0.138474 0.254578,-0.187042c0.010437,-0.05011 -0.069275,-0.147308 -0.255432,-0.128174c-0.187195,0.019135 -0.75708,-0.029449 -0.835876,0.038025c-0.074524,0.065948 0,0.265106 -0.029419,0.286011c-0.02948,0.018875 0.010376,0.107269 0.087402,0.088379c0.078003,-0.01915 0.117859,-0.206207 0.178467,-0.206207c0.058838,0 0.364624,-0.069244 0.413086,0.03978zm-1.849121,-0.403595c0.058899,0.048599 0.207886,0.00856 0.196655,-0.03978c-0.009552,-0.048584 0.059631,-0.245972 -0.057922,-0.254791c-0.1185,-0.01033 -0.28418,0.109283 -0.462769,0.168182c-0.114319,0.036255 -0.088196,0.147278 -0.010101,0.147278s0.27652,-0.069473 0.33432,-0.020889l0,0l0,0l0,0l0,0l0,0l0,0l0,0l0,0l0,0l0,0l0,0l0,0l-0.000031,0l-0.000031,0l-0.000031,0l-0.000031,0l-0.000031,0l-0.000031,0zm0.837524,0.176743c-0.098694,0.05011 -0.129028,0.079559 -0.216492,0.058929c-0.089294,-0.019135 -0.089294,-0.176758 -0.246887,-0.147293c-0.156738,0.029465 -0.186157,0.117844 -0.234741,0.157608s-0.157593,0.069244 -0.196533,0.048584c-0.038147,-0.019119 -0.265137,-0.145508 -0.265137,-0.145508s-0.4729,-0.020905 -0.491943,-0.079819c-0.018982,-0.058914 -0.097778,-0.155853 -0.314453,-0.136703s-0.590698,0.147034 -0.649597,0.147034c-0.058899,0 0.070129,0.117828 -0.010315,0.117828c-0.078003,0 -0.175873,-0.00856 -0.205322,0.078049c-0.019897,0.060654 0.088409,0.058899 0.214722,0.058899c0.127441,0 0.335358,0 0.394318,-0.029449c0.05899,-0.029449 0.35437,-0.098679 0.34375,-0.01033c-0.01001,0.089874 0.11795,0.226852 0.18634,0.207718c0.069122,-0.018875 0.207672,-0.147278 0.27536,-0.098679c0.069214,0.050339 0.079651,0.166412 0.14801,0.197372c0.06955,0.027939 0.25647,0.027939 0.34491,0c0.087402,-0.03096 0.33432,-0.03096 0.44165,-0.01033c0.108459,0.020905 0.423462,0.078049 0.452942,0.020905c0.029419,-0.060669 0.117798,-0.069244 0.12738,-0.128143s0.057983,-0.245972 0.057983,-0.245972s-0.057983,-0.109283 -0.155945,-0.060699zm4.978638,10.168488c-0.135254,0.02417 -0.104004,0.287506 0.058838,0.238953c0.161926,-0.04834 0.074463,-0.263367 -0.058838,-0.238953zm1.282715,-0.351715c-0.118652,-0.02948 -0.251221,0 -0.3396,0.015625c-0.088257,0.013824 -0.339478,0.235657 -0.339478,0.235657s0.161987,0.029419 0.26416,0.029419c0.104736,0 0.163696,0.058929 0.251221,0.102234c0.088318,0.045074 0.251221,-0.058929 0.30835,-0.058929c0.060547,0 0.134216,0.176758 0.148926,-0.015594c0.016479,-0.190567 -0.175842,-0.278946 -0.293579,-0.308411zm-4.108948,-9.560471c-0.048523,-0.117813 -0.293762,-0.157608 -0.344849,-0.03978c-0.043274,0.102219 0.394226,0.157608 0.344849,0.03978zm2.812317,8.83812c0.161926,-0.029449 0.072815,-0.164673 -0.060669,-0.147278c-0.133423,0.013809 -0.103027,0.176758 0.060669,0.147278zm1.960083,0.911194c-0.135071,0.02417 -0.104004,0.287506 0.057983,0.239166c0.163696,-0.046814 0.075439,-0.263336 -0.057983,-0.239166zm-1.785156,-0.440125c-0.102112,0.015625 -0.323975,-0.102203 -0.441772,-0.205933c-0.117676,-0.104004 -0.339478,-0.104004 -0.427734,-0.104004c-0.087463,0 -0.442627,0.104004 -0.442627,0.104004c-0.015625,0.147034 0.132446,0.103729 0.309204,0.103729s0.487671,-0.029205 0.543945,0.043304c0.060547,0.072754 0.324768,0.190582 0.400146,0.251282c0.071899,0.058899 0.30835,0.074524 0.322998,0.015579s-0.161133,-0.221817 -0.26416,-0.207977l0,0.000015zm-1.759155,-9.416687c-0.147156,-0.010315 -0.334351,-0.010315 -0.452881,0c-0.117859,0.008789 -0.206177,-0.079559 -0.294495,-0.129913c-0.087463,-0.04834 -0.284973,-0.205948 -0.401917,-0.225082c-0.118774,-0.019135 -0.097839,-0.019135 -0.344666,-0.078049c-0.124817,-0.03096 -0.333557,-0.069229 -0.333557,-0.098694c0,-0.029449 -0.05896,0.138718 0.049377,0.188828c0.107422,0.048615 0.28418,0.136993 0.411438,0.185333c0.129883,0.048569 0.374146,0.058899 0.452881,0.157578c0.078979,0.098953 0.343933,0.176743 0.343933,0.176743l0.314301,0.029465c0,0 0.21759,-0.04834 0.44342,-0.029465c0.2258,0.020889 0.55954,0.050354 0.747589,0.040024c0.185486,-0.008789 0.214966,-0.069489 0.236481,-0.107483c0.018219,-0.03978 -0.34494,-0.117828 -0.434723,-0.107529c-0.086548,0.00705 -0.590759,0.00705 -0.737183,-0.001755zm0.549988,2.260635c-0.038879,0.045074 0.178528,0.107513 0.216492,0.048599c0.039063,-0.057159 -0.115845,-0.155853 -0.216492,-0.048599zm0.660889,0.206207c0.097107,-0.03978 0.048523,-0.157608 -0.089966,-0.119614c-0.15686,0.046844 -0.010498,0.159393 0.089966,0.119614z" stroke-width="null" stroke-opacity="null" stroke="null" fill-opacity="null" fill="#ff0000" id="svg_68"/>
  <text xml:space="preserve" y="291.5396" x="257.4584" text-anchor="start" stroke-width="0" stroke-opacity="null" stroke="null" fill-opacity="null" fill="#000000" font-size="14px" font-family="Helvetica,Arial,sans-serif" id="svg_69">IBKR</text>
  <path d="m319.056152,259.049866c0.068726,-4.913208 -0.044617,-9.832947 0.572693,-14.737396c15.180115,1.613129 30.181091,4.25322 45.105286,6.627029c0.801636,-2.409058 0.424561,-4.407425 1.120361,-6.634796c9.587891,4.686935 19.089783,9.440872 28.20166,14.421066c-8.742126,5.649231 -18.769409,10.555359 -28.613647,15.578918c-0.319275,-2.339478 -0.63855,-4.678833 -0.957764,-7.018494c-14.508362,2.263367 -29.8526,4.603455 -44.455811,6.672607c-0.99292,-4.774536 -0.963623,-9.973785 -0.972778,-14.908936l0,0z" stroke-width="null" stroke-opacity="null" stroke="null" fill-opacity="null" fill="#ff0000" id="svg_71"/>
  <text xml:space="preserve" y="634.5205" x="118.1713" text-anchor="start" stroke-width="0" stroke="#000000" fill="#000000" font-size="18px" font-family="Helvetica,Arial,sans-serif" id="svg_72">Puts only</text>
  <!-- Created with Method Draw - http://github.com/duopixel/Method-Draw/ -->
  <g id="svg_85">
   <g transform="matrix(0.398932, 0, 0, 0.398932, 138.775, 703.04)" id="svg_83">
    <title>background</title>
    <rect height="106" width="74" y="-1175.29" x="301.583" fill="#fff" id="svg_81"/>
   </g>
   <g transform="matrix(0.398932, 0, 0, 0.398932, 138.775, 703.04)" id="svg_84">
    <title>Layer 1</title>
    <g id="svg_77">
     <ellipse ry="16.5" rx="16.5" cy="-1107.77" cx="354.343" stroke-width="1.5" stroke="#ff0000" fill="#ff0000" id="svg_80"/>
     <path d="m357.847565,-1171.311646l-51.5,57.72998l0,42l51.5,-99.72998z" stroke-width="1.5" stroke="#ff0000" fill="#ff0000" id="svg_79"/>
     <path d="m323.097565,-1104.061646l33.5,31.72998l-51,0l17.5,-31.72998z" stroke-width="1.5" stroke="#bf0000" fill="#bf0000" id="svg_78"/>
    </g>
   </g>
  </g>
  <path d="m487.723633,617.154907c0.036865,-4.547668 -0.022583,-9.100098 0.298706,-13.639465c7.893433,1.493103 15.693848,3.936523 23.455078,6.133606c0.415405,-2.229797 0.220215,-4.079346 0.582031,-6.140747c4.985596,4.337646 9.926025,8.737732 14.664185,13.34668c-4.546509,5.227905 -9.76062,9.768433 -14.879639,14.417908c-0.165405,-2.164917 -0.330811,-4.330505 -0.496338,-6.495422c-7.545776,2.094727 -15.52356,4.260864 -23.118164,6.175293c-0.515381,-4.418579 -0.501099,-9.230469 -0.505859,-13.797852l0,0z" transform="rotate(90 507.224 617.391)" stroke-width="0" stroke="#000" fill="#ff0000" id="svg_86"/>
  <path d="m693.05603,506.265015c0.06897,-4.913025 -0.044006,-9.833038 0.572998,-14.738007c15.179993,1.613007 30.180969,4.253998 45.10498,6.626984c0.802002,-2.408997 0.424988,-4.406982 1.119995,-6.634003c9.588013,4.687012 19.089966,9.440002 28.202026,14.42099c-8.742004,5.649017 -18.769043,10.554993 -28.613037,15.579041c-0.320007,-2.340027 -0.638977,-4.679016 -0.958008,-7.019043c-14.508972,2.263 -29.852966,4.604004 -44.455994,6.673035c-0.992981,-4.775024 -0.963989,-9.973999 -0.972961,-14.908997l0,0z" stroke-width="null" stroke-opacity="null" stroke="null" fill-opacity="null" fill="#ff0000" id="svg_87"/>
  <text xml:space="preserve" y="177.5396" x="259.4584" text-anchor="start" stroke-width="0" stroke-opacity="null" stroke="null" fill-opacity="null" fill="#000000" font-size="14px" font-family="Helvetica,Arial,sans-serif" id="svg_88">Web</text>
  <path d="m487.723633,210.483673c0.036865,-4.547699 -0.022583,-9.100143 0.298706,-13.639511c7.893433,1.493088 15.693848,3.936539 23.455078,6.133606c0.415405,-2.229797 0.220215,-4.079346 0.582031,-6.140747c4.985596,4.337631 9.926025,8.737732 14.664185,13.346725c-4.546509,5.227875 -9.76062,9.768433 -14.879639,14.417892c-0.165405,-2.164948 -0.330811,-4.33049 -0.496338,-6.495438c-7.545776,2.094727 -15.52356,4.260864 -23.118164,6.175278c-0.515381,-4.418564 -0.501099,-9.230484 -0.505859,-13.797806l0,0z" transform="rotate(90 507.224 210.719)" stroke-width="0" stroke="#000" fill="#ff0000" id="svg_89"/>
  <path d="m487.723633,337.483673c0.036865,-4.547699 -0.022583,-9.100128 0.298706,-13.639496c7.893433,1.493073 15.693848,3.936523 23.455078,6.133606c0.415405,-2.229797 0.220215,-4.079346 0.582031,-6.140747c4.985596,4.337616 9.926025,8.737732 14.664185,13.34671c-4.546509,5.227875 -9.76062,9.768433 -14.879639,14.417877c-0.165405,-2.164917 -0.330811,-4.330475 -0.496338,-6.495422c-7.545776,2.094727 -15.52356,4.260864 -23.118164,6.175293c-0.515381,-4.418579 -0.501099,-9.230499 -0.505859,-13.797821l0,0z" transform="rotate(90 507.223 337.719)" stroke-width="0" stroke="#000" fill="#ff0000" id="svg_90"/>
  <path d="m487.723633,464.483673c0.036865,-4.547699 -0.022583,-9.100128 0.298706,-13.639496c7.893433,1.493073 15.693848,3.936523 23.455078,6.133606c0.415405,-2.229797 0.220215,-4.079346 0.582031,-6.140747c4.985596,4.337616 9.926025,8.737732 14.664185,13.34671c-4.546509,5.227875 -9.76062,9.768433 -14.879639,14.417877c-0.165405,-2.164917 -0.330811,-4.330475 -0.496338,-6.495422c-7.545776,2.094727 -15.52356,4.260864 -23.118164,6.175293c-0.515381,-4.418579 -0.501099,-9.230499 -0.505859,-13.797821l0,0z" transform="rotate(90 507.223 464.719)" stroke-width="0" stroke="#000" fill="#ff0000" id="svg_91"/>
  <path d="m319.056152,143.28476c0.068726,-4.913223 -0.044617,-9.832947 0.572693,-14.737396c15.180115,1.613129 30.181091,4.25322 45.105286,6.627029c0.801636,-2.409073 0.424561,-4.40741 1.120361,-6.634811c9.587891,4.686951 19.089783,9.440887 28.20166,14.421082c-8.742126,5.649261 -18.769409,10.555359 -28.613647,15.578918c-0.319275,-2.339447 -0.63855,-4.678802 -0.957764,-7.018494c-14.508362,2.263397 -29.8526,4.603485 -44.455811,6.672607c-0.99292,-4.774506 -0.963623,-9.973785 -0.972778,-14.908936l0,0z" stroke-width="null" stroke-opacity="null" stroke="null" fill-opacity="null" fill="#ff0000" id="svg_92"/>
  <text xml:space="preserve" y="179.5" x="404.5639" text-anchor="start" stroke-width="0" stroke="#000000" fill="#000000" font-size="16px" font-family="Helvetica,Arial,sans-serif" id="svg_93">- Option chains from symbols</text>
  <text xml:space="preserve" y="149.0896" x="774.5479" text-anchor="start" stroke-width="0" stroke="#000000" fill="#000000" font-size="16px" font-family="Helvetica,Arial,sans-serif" id="svg_94">chains.pkl</text>
  <path d="m693.05603,143.28476c0.068726,-4.913208 -0.044617,-9.832947 0.572693,-14.737396c15.180115,1.613129 30.181091,4.25322 45.105286,6.627014c0.801636,-2.409042 0.424561,-4.407425 1.120361,-6.634811c9.587891,4.686951 19.089783,9.440887 28.20166,14.421082c-8.742126,5.649246 -18.769409,10.555359 -28.613647,15.578918c-0.319275,-2.339462 -0.63855,-4.678802 -0.957764,-7.018494c-14.508362,2.263412 -29.8526,4.6035 -44.455811,6.672623c-0.99292,-4.774521 -0.963623,-9.973801 -0.972778,-14.908951l0,0l0,0.000015z" stroke-width="null" stroke-opacity="null" stroke="null" fill-opacity="null" fill="#ff0000" id="svg_95"/>
  <text xml:space="preserve" y="263.0696" x="774.5479" text-anchor="start" stroke-width="0" stroke="#000000" fill="#000000" font-size="16px" font-family="Helvetica,Arial,sans-serif" id="svg_96">ohlcs.pkl</text>
  <path d="m693.05603,257.265015c0.06897,-4.913025 -0.044006,-9.833023 0.572998,-14.738022c15.179993,1.613007 30.180969,4.253998 45.10498,6.626999c0.802002,-2.408997 0.424988,-4.406998 1.119995,-6.634003c9.588013,4.687012 19.089966,9.440002 28.202026,14.42099c-8.742004,5.649017 -18.769043,10.554993 -28.613037,15.579041c-0.320007,-2.340027 -0.638977,-4.679016 -0.958008,-7.019043c-14.508972,2.263 -29.852966,4.604004 -44.455994,6.673035c-0.992981,-4.775024 -0.963989,-9.973999 -0.972961,-14.908997l0,0z" stroke-width="null" stroke-opacity="null" stroke="null" fill-opacity="null" fill="#ff0000" id="svg_97"/>
  <text xml:space="preserve" y="392.0696" x="774.5479" text-anchor="start" stroke-width="0" stroke="#000000" fill="#000000" font-size="16px" font-family="Helvetica,Arial,sans-serif" id="svg_98">sized.pkl</text>
  <path d="m693.05603,386.265015c0.06897,-4.913025 -0.044006,-9.833038 0.572998,-14.738007c15.179993,1.613007 30.180969,4.253998 45.10498,6.626984c0.802002,-2.408997 0.424988,-4.406982 1.119995,-6.634003c9.588013,4.687012 19.089966,9.440002 28.202026,14.42099c-8.742004,5.649017 -18.769043,10.554993 -28.613037,15.579041c-0.320007,-2.340027 -0.638977,-4.679016 -0.958008,-7.019043c-14.508972,2.263 -29.852966,4.604004 -44.455994,6.673035c-0.992981,-4.775024 -0.963989,-9.973999 -0.972961,-14.908997l0,0z" stroke-width="null" stroke-opacity="null" stroke="null" fill-opacity="null" fill="#ff0000" id="svg_99"/>
  <ellipse ry="45" rx="45" cy="53.5" cx="807.455" stroke-width="NaN" stroke="#000000" fill="url(#svg_102)" id="svg_100"/>
  <text xml:space="preserve" y="66.5" x="784.4998" text-anchor="start" stroke-width="0" stroke="#000000" fill="#ffffff" font-weight="bold" font-size="14px" font-family="Helvetica,Arial,sans-serif" id="svg_104">Trades</text>
  <text xml:space="preserve" y="48.5" x="779.8598" text-anchor="start" stroke-width="0" stroke="#000000" fill="#ffffff" font-weight="bold" font-size="14px" font-family="Helvetica,Arial,sans-serif" id="svg_105">Last Day</text>
  <ellipse ry="45" rx="45" cy="52.5" cx="272.5" stroke-width="NaN" stroke="#000000" fill="url(#svg_101)" id="svg_106"/>
  <text xml:space="preserve" y="57.5" x="263.555" text-anchor="start" stroke-width="0" stroke="#000000" fill="#ffffff" font-weight="bold" font-size="14px" font-family="Helvetica,Arial,sans-serif" id="svg_107">All</text>
  <text xml:space="preserve" y="72.5" x="249.54" text-anchor="start" stroke-width="0" stroke="#000000" fill="#ffffff" font-weight="bold" font-size="14px" font-family="Helvetica,Arial,sans-serif" id="svg_108">Trades</text>
  <text xml:space="preserve" y="42.5" x="249.54" text-anchor="start" stroke-width="0" stroke="#000000" fill="#ffffff" font-weight="bold" font-size="14px" font-family="Helvetica,Arial,sans-serif" id="svg_109">Cancel</text>
  <ellipse ry="45" rx="45" cy="52.5" cx="462.455" stroke-width="NaN" stroke="#000000" fill="url(#svg_1)" id="svg_2"/>
  <text xml:space="preserve" y="57.5" x="441.4447" text-anchor="start" stroke-width="0" stroke="#000000" fill="#ffffff" font-weight="bold" font-size="14px" font-family="Helvetica,Arial,sans-serif" id="svg_48">Naked</text>
  <text xml:space="preserve" y="72.5" x="446.1097" text-anchor="start" stroke-width="0" stroke="#000000" fill="#ffffff" font-weight="bold" font-size="14px" font-family="Helvetica,Arial,sans-serif" id="svg_52">Sells</text>
  <text xml:space="preserve" y="42.5" x="439.4998" text-anchor="start" stroke-width="0" stroke="#000000" fill="#ffffff" font-weight="bold" font-size="14px" font-family="Helvetica,Arial,sans-serif" id="svg_61">Cancel</text>
  <ellipse ry="45" rx="45" cy="51.5" cx="640.455" stroke-width="NaN" stroke="#000000" fill="url(#svg_74)" id="svg_75"/>
  <text xml:space="preserve" y="64.5" x="617.4998" text-anchor="start" stroke-width="0" stroke="#000000" fill="#ffffff" font-weight="bold" font-size="14px" font-family="Helvetica,Arial,sans-serif" id="svg_76">Trades</text>
  <text xml:space="preserve" y="46.5" x="612.8598" text-anchor="start" stroke-width="0" stroke="#000000" fill="#ffffff" font-weight="bold" font-size="14px" font-family="Helvetica,Arial,sans-serif" id="svg_82">Morning</text>
  <text xml:space="preserve" y="71" x="82.0763" text-anchor="start" stroke-width="0" stroke-opacity="null" stroke="#000" fill="#000000" font-size="14px" font-family="Helvetica,Arial,sans-serif" id="svg_103">Paper</text>
  <text xml:space="preserve" y="86.5" x="98.0763" text-anchor="start" stroke-width="0" stroke-opacity="null" stroke="#000" fill="#000000" font-size="10px" font-family="Helvetica,Arial,sans-serif" id="svg_110">3001</text>
  <rect ry="5" height="10" width="47" y="79" x="46.5763" stroke="null" fill="#ff0000" id="svg_111"/>
  <ellipse ry="7.5" rx="7.5" cy="84" cx="57.576" stroke="#000000" fill="#ffffff" id="svg_112"/>
  <text xml:space="preserve" y="71" x="18.0763" text-anchor="start" stroke-width="0" stroke-opacity="null" stroke="#000" fill="#000000" font-size="14px" font-family="Helvetica,Arial,sans-serif" id="svg_113">Live</text>
  <text xml:space="preserve" y="86.5" x="18.0763" text-anchor="start" stroke-width="0" stroke-opacity="null" stroke="#000" fill="#000000" font-size="10px" font-family="Helvetica,Arial,sans-serif" id="svg_114">3000</text>
  <rect rx="8" height="25" width="70" y="583.645" x="204.556" stroke="#000000" fill="none" id="svg_117"/>
  <rect rx="8" height="25" width="81" y="615.77" x="114.556" stroke="#000000" fill="none" id="svg_118"/>
  <text xml:space="preserve" y="560.5" x="402.5639" text-anchor="start" stroke-width="0" stroke="#000000" fill="#000000" font-size="16px" font-family="Helvetica,Arial,sans-serif" id="svg_119">- Removing blacklists</text>
  <text xml:space="preserve" y="514.3432" x="16.1713" text-anchor="start" stroke-width="0" stroke="#000000" fill="#000000" font-size="14px" font-family="Helvetica,Arial,sans-serif" id="svg_120">- In-the-money</text>
  <g id="svg_70">
   <path d="m793.546997,157.852997c0,1.75 -4.252991,3.167023 -9.5,3.167023m9.5,-3.167023l0,0c0,1.75 -4.252991,3.167023 -9.5,3.167023c-5.247009,0 -9.5,-1.417023 -9.5,-3.167023m0,0l0,0c0,-1.748993 4.252991,-3.165985 9.5,-3.165985c5.247009,0 9.5,1.416992 9.5,3.165985l0,12.667023c0,1.748962 -4.252991,3.166992 -9.5,3.166992c-5.247009,0 -9.5,-1.41803 -9.5,-3.166992l0,-12.667023z" stroke-width="1.5" stroke="#ffffff" fill="#000000" id="df_chains"/>
   <text xml:space="preserve" y="167.657" x="798.5" text-anchor="start" stroke-width="0" stroke="#ffffff" fill="#000000" font-size="10px" font-family="Helvetica,Arial,sans-serif" id="svg_67">df_chains</text>
  </g>
  <g id="svg_ohlcs">
   <path d="m793.546997,270.852997c0,1.75 -4.252991,3.167023 -9.5,3.167023m9.5,-3.167023l0,0c0,1.75 -4.252991,3.167023 -9.5,3.167023c-5.247009,0 -9.5,-1.417023 -9.5,-3.167023m0,0l0,0c0,-1.748993 4.252991,-3.165985 9.5,-3.165985c5.247009,0 9.5,1.416992 9.5,3.165985l0,12.667023c0,1.748962 -4.252991,3.166992 -9.5,3.166992c-5.247009,0 -9.5,-1.41803 -9.5,-3.166992l0,-12.667023z" stroke-width="1.5" stroke="#ffffff" fill="#000000" id="df_ohlcs"/>
   <text xml:space="preserve" y="280.657" x="798.5" text-anchor="start" stroke-width="0" stroke="#ffffff" fill="#000000" font-size="10px" font-family="Helvetica,Arial,sans-serif" id="svg_122">df_ohlcs</text>
  </g>
  <g id="svg_sized">
   <path d="m793.546997,399.853027c0,1.75 -4.252991,3.166992 -9.5,3.166992m9.5,-3.166992l0,0c0,1.75 -4.252991,3.166992 -9.5,3.166992c-5.247009,0 -9.5,-1.416992 -9.5,-3.166992m0,0l0,0c0,-1.749023 4.252991,-3.166016 9.5,-3.166016c5.247009,0 9.5,1.416992 9.5,3.166016l0,12.666992c0,1.748962 -4.252991,3.166992 -9.5,3.166992c-5.247009,0 -9.5,-1.41803 -9.5,-3.166992l0,-12.666992z" stroke-width="1.5" stroke="#ffffff" fill="#000000" id="df_sized"/>
   <text xml:space="preserve" y="409.657" x="798.5" text-anchor="start" stroke-width="0" stroke="#ffffff" fill="#000000" font-size="10px" font-family="Helvetica,Arial,sans-serif" id="svg_121">df_sized</text>
  </g>
  <g id="svg_targets">
   <path d="m791.546997,519.853027c0,1.75 -4.252991,3.166992 -9.5,3.166992m9.5,-3.166992l0,0c0,1.75 -4.252991,3.166992 -9.5,3.166992c-5.247009,0 -9.5,-1.416992 -9.5,-3.166992m0,0l0,0c0,-1.749023 4.252991,-3.166016 9.5,-3.166016c5.247009,0 9.5,1.416992 9.5,3.166016l0,12.666992c0,1.748962 -4.252991,3.166992 -9.5,3.166992c-5.247009,0 -9.5,-1.41803 -9.5,-3.166992l0,-12.666992z" stroke-width="1.5" stroke="#ffffff" fill="#000000" id="df_targets"/>
   <text xml:space="preserve" y="529.657" x="796.5" text-anchor="start" stroke-width="0" stroke="#ffffff" fill="#000000" font-size="10px" font-family="Helvetica,Arial,sans-serif" id="svg_125">df_targets</text>
  </g>
  <g id="svg_optpos">
   <path d="m117.546997,468.852997c0,1.75 -4.252991,3.167023 -9.5,3.167023m9.5,-3.167023l0,0c0,1.75 -4.252991,3.167023 -9.5,3.167023c-5.247009,0 -9.5,-1.417023 -9.5,-3.167023m0,0l0,0c0,-1.748993 4.252991,-3.165985 9.5,-3.165985c5.247009,0 9.5,1.416992 9.5,3.165985l0,12.667023c0,1.748962 -4.252991,3.166992 -9.5,3.166992c-5.247009,0 -9.5,-1.41803 -9.5,-3.166992l0,-12.667023z" stroke-width="1.5" stroke="#ffffff" fill="#000000" id="df_optpos"/>
   <text xml:space="preserve" y="478.657" x="122.5" text-anchor="start" stroke-width="0" stroke="#ffffff" fill="#000000" font-size="10px" font-family="Helvetica,Arial,sans-serif" id="svg_127">df_optpos</text>
  </g>
  <g id="svg_coveredSells">
   <path d="m661.546997,680.853027c0,1.75 -4.252991,3.166992 -9.5,3.166992m9.5,-3.166992l0,0c0,1.75 -4.252991,3.166992 -9.5,3.166992c-5.247009,0 -9.5,-1.416992 -9.5,-3.166992m0,0l0,0c0,-1.749023 4.252991,-3.166016 9.5,-3.166016c5.247009,0 9.5,1.416992 9.5,3.166016l0,12.666992c0,1.748962 -4.252991,3.166992 -9.5,3.166992c-5.247009,0 -9.5,-1.41803 -9.5,-3.166992l0,-12.666992z" stroke-width="1.5" stroke="#ffffff" fill="#000000" id="svg_20"/>
   <text xml:space="preserve" y="690.657" x="666.5" text-anchor="start" stroke-width="0" stroke="#ffffff" fill="#000000" font-size="10px" font-family="Helvetica,Arial,sans-serif" id="svg_129">df_coveredSells</text>
  </g>
  <g id="svg_buy2close">
   <path d="m694.546997,704.853027c0,1.75 -4.252991,3.166992 -9.5,3.166992m9.5,-3.166992l0,0c0,1.75 -4.252991,3.166992 -9.5,3.166992c-5.247009,0 -9.5,-1.416992 -9.5,-3.166992m0,0l0,0c0,-1.749023 4.252991,-3.166016 9.5,-3.166016c5.247009,0 9.5,1.416992 9.5,3.166016l0,12.666992c0,1.748962 -4.252991,3.166992 -9.5,3.166992c-5.247009,0 -9.5,-1.41803 -9.5,-3.166992l0,-12.666992z" stroke-width="1.5" stroke="#ffffff" fill="#000000" id="svg_130"/>
   <text xml:space="preserve" y="714.657" x="699.5" text-anchor="start" stroke-width="0" stroke="#ffffff" fill="#000000" font-size="10px" font-family="Helvetica,Arial,sans-serif" id="svg_131">df_buy2close</text>
  </g>
  <g id="svg_nakedSells">
   <path d="m694.546997,729.853027c0,1.75 -4.252991,3.166992 -9.5,3.166992m9.5,-3.166992l0,0c0,1.75 -4.252991,3.166992 -9.5,3.166992c-5.247009,0 -9.5,-1.416992 -9.5,-3.166992m0,0l0,0c0,-1.749023 4.252991,-3.166016 9.5,-3.166016c5.247009,0 9.5,1.416992 9.5,3.166016l0,12.666992c0,1.748962 -4.252991,3.166992 -9.5,3.166992c-5.247009,0 -9.5,-1.41803 -9.5,-3.166992l0,-12.666992z" stroke-width="1.5" stroke="#ffffff" fill="#000000" id="svg_128"/>
   <text xml:space="preserve" y="739.657" x="699.5" text-anchor="start" stroke-width="0" stroke="#ffffff" fill="#000000" font-size="10px" font-family="Helvetica,Arial,sans-serif" id="svg_132">df_nakedSells</text>
  </g>
  <g id="svg_jsonlogo">
   <path d="m194.999893,136.636719c-0.149506,-0.199799 -0.320297,-0.343506 -0.511047,-0.431793s-0.39183,-0.132111 -0.603851,-0.132111c-0.217178,0 -0.424042,0.040604 -0.621231,0.123093s-0.373138,0.221695 -0.528442,0.418243s-0.277756,0.45047 -0.365402,0.762375c-0.088287,0.311279 -0.13533,0.69278 -0.141129,1.145187c0.005798,0.440796 0.051544,0.816513 0.136627,1.127777s0.202347,0.56517 0.352509,0.762375s0.320282,0.340271 0.511032,0.431778s0.39183,0.136612 0.603836,0.136612c0.217194,0 0.424042,-0.042542 0.621262,-0.127594s0.373108,-0.224915 0.528427,-0.418243s0.277771,-0.447891 0.365402,-0.762375s0.13533,-0.697266 0.141129,-1.149689c-0.005798,-0.440811 -0.051559,-0.815231 -0.136627,-1.123276s-0.202347,-0.562592 -0.352509,-0.762375l0.000015,0.000031l0,-0.000015z" id="svg_3"/>
   <path d="m206.5,132.133331l0,-16.125282c0,-0.493637 -0.059296,-0.859039 -0.354446,-1.154839l-7.49939,-7.498764c-0.224915,-0.224907 -0.536819,-0.354439 -0.85582,-0.354439l-18.703079,0c-0.764297,0 -1.58728,0.590309 -1.58728,1.885643l0,23.247681l29,0l0.000015,0zm-14.17778,-3.866669c0,0.355743 -0.288071,0.644455 -0.644455,0.644455s-0.64444,-0.288712 -0.64444,-0.644455l0,-1.933319c0,-0.355743 0.288071,-0.644455 0.64444,-0.644455s0.644455,0.288712 0.644455,0.644455l0,1.933319zm5.155563,-19.081352c0,-0.295158 0.356384,-0.442734 0.56517,-0.233932l6.505676,6.505669c0.208801,0.208801 0.061234,0.565193 -0.233932,0.565193l-6.836899,0l0,-6.836906l-0.000015,-0.000023l0,-0.000008l0,0.000008zm-0.644455,13.281357l0,-2.577766c0,-0.355087 -0.288712,-0.644447 -0.64444,-0.644447c-0.356384,0 -0.644455,-0.288704 -0.644455,-0.64444s0.288071,-0.644455 0.644455,-0.644455c1.065918,0 1.933334,0.867424 1.933334,1.933334l0,2.577766c0,0.710823 0.578064,1.288887 1.288879,1.288887c0.356384,0 0.644455,0.288712 0.644455,0.644455s-0.288071,0.64444 -0.644455,0.64444c-0.710815,0 -1.288879,0.578056 -1.288879,1.288887l0,2.577789c0,1.065903 -0.867416,1.933319 -1.933334,1.933319c-0.356384,0 -0.644455,-0.288696 -0.644455,-0.64444s0.288071,-0.64444 0.644455,-0.64444c0.355728,0 0.64444,-0.289352 0.64444,-0.64444l0,-2.577789c0,-0.773315 0.349289,-1.460297 0.890625,-1.933327c-0.541336,-0.473022 -0.890625,-1.160004 -0.890625,-1.933334l0,-0.000015l0,0.000008l0,0.000008zm-5.155563,-1.288887c0.5336,0 0.966675,0.433067 0.966675,0.966667s-0.433075,0.966675 -0.966675,0.966675c-0.5336,0 -0.96666,-0.433075 -0.96666,-0.966675s0.43306,-0.966667 0.96666,-0.966667zm-7.733322,2.577782c0.710831,0 1.288895,-0.578072 1.288895,-1.288895l0,-2.577766c0,-1.06591 0.867416,-1.933334 1.933319,-1.933334c0.356384,0 0.64444,0.288712 0.64444,0.644455s-0.288071,0.64444 -0.64444,0.64444c-0.355728,0 -0.64444,0.28936 -0.64444,0.64444l0,2.577766c0,0.773331 -0.349304,1.460312 -0.890625,1.933334c0.541321,0.473007 0.890625,1.159996 0.890625,1.933319l0,2.577797c0,0.355087 0.288696,0.64444 0.64444,0.64444c0.356384,0 0.64444,0.288727 0.64444,0.64444s-0.288071,0.64444 -0.64444,0.64444c-1.065903,0 -1.933319,-0.867401 -1.933319,-1.933319l0,-2.577797c0,-0.710823 -0.578079,-1.288887 -1.288895,-1.288887c-0.356369,0 -0.64444,-0.288704 -0.64444,-0.644432s0.288071,-0.644455 0.64444,-0.644455l0,0.000023l0,-0.000008z" id="svg_4"/>
   <path d="m177.5,133.422211l0,9.666687c0,0.650238 0.786224,1.288879 1.587265,1.288879l25.82547,0c0.801041,0 1.58728,-0.638641 1.58728,-1.288879l0,-9.666687l-29,0l-0.000015,0zm7.424637,6.809204c0,0.305481 -0.056061,0.562607 -0.167557,0.770752s-0.261002,0.375717 -0.449173,0.501999s-0.404083,0.2146 -0.647675,0.264252c-0.243607,0.049606 -0.494919,0.074768 -0.753357,0.074768c-0.128891,0 -0.280991,-0.013535 -0.45369,-0.039963s-0.352509,-0.067017 -0.537476,-0.123093s-0.362823,-0.119217 -0.532959,-0.189468s-0.313843,-0.149506 -0.431778,-0.237793l0.449173,-0.713394c0.05864,0.040604 0.142426,0.083771 0.251328,0.127594s0.228119,0.085068 0.357025,0.123093s0.264221,0.071533 0.405365,0.101181s0.273239,0.043808 0.396332,0.043808c0.311249,0 0.559357,-0.060577 0.744308,-0.180435s0.282913,-0.324814 0.295181,-0.612228l0,-4.969299l1.074921,0l0,5.058228l0.000031,-0.000031l0,0.000031zm5.11496,0.471741c-0.096649,0.220398 -0.233292,0.414368 -0.409866,0.581268s-0.393112,0.300949 -0.652176,0.400833s-0.551651,0.149506 -0.880951,0.149506c-0.141129,0 -0.286133,-0.007736 -0.436295,-0.021896s-0.300964,-0.039963 -0.45369,-0.074753c-0.152725,-0.035446 -0.298386,-0.083786 -0.436295,-0.14566s-0.25647,-0.136627 -0.35701,-0.224899l0.184952,-0.757858c0.082489,0.047058 0.186249,0.092789 0.312561,0.136627s0.2565,0.085068 0.391815,0.123093s0.270035,0.068939 0.405365,0.092789s0.261002,0.035431 0.378937,0.035431c0.358322,0 0.632843,-0.083771 0.823593,-0.251328s0.286133,-0.415665 0.286133,-0.744354c0,-0.199768 -0.067017,-0.369919 -0.202347,-0.511047s-0.304184,-0.268723 -0.506531,-0.383453s-0.421478,-0.228775 -0.656693,-0.343475s-0.454987,-0.250061 -0.660553,-0.40535s-0.375702,-0.338974 -0.511047,-0.550354s-0.202362,-0.475586 -0.202362,-0.792648c0,-0.287415 0.052856,-0.543274 0.158539,-0.766251s0.248108,-0.413101 0.427261,-0.56842s0.387955,-0.274551 0.625763,-0.35704s0.489136,-0.123077 0.753357,-0.123077c0.27002,0 0.543274,0.025131 0.819092,0.074738s0.498795,0.130814 0.669586,0.24231c-0.035446,0.076019 -0.07605,0.159821 -0.123093,0.251343s-0.091507,0.175919 -0.132111,0.255188s-0.07605,0.14566 -0.105698,0.198502s-0.047028,0.082489 -0.052841,0.088287c-0.035446,-0.01741 -0.074738,-0.040619 -0.119217,-0.070236s-0.106995,-0.05864 -0.189484,-0.088303s-0.19075,-0.049622 -0.32608,-0.061859s-0.308685,-0.009018 -0.520081,0.009018c-0.11792,0.012253 -0.228775,0.04512 -0.335098,0.101212s-0.199768,0.124359 -0.282257,0.206848s-0.146942,0.174652 -0.19397,0.277771s-0.070251,0.201721 -0.070251,0.295151c0,0.234558 0.067017,0.424072 0.202347,0.56842s0.302902,0.27002 0.502045,0.378922s0.416946,0.2146 0.652176,0.317047s0.45369,0.228149 0.656693,0.374451s0.371201,0.330612 0.506531,0.550339s0.202347,0.503326 0.202347,0.850052c0.002563,0.235199 -0.046387,0.462692 -0.143066,0.68309l0,0.000031l-0.000031,0zm6.31749,-0.735962c-0.137909,0.416962 -0.3293,0.763672 -0.572906,1.03949s-0.528442,0.484619 -0.854538,0.625763s-0.683105,0.21138 -1.070419,0.21138s-0.744324,-0.070251 -1.070404,-0.21138s-0.610947,-0.349289 -0.854538,-0.625763s-0.434998,-0.622528 -0.572906,-1.03949s-0.206879,-0.898987 -0.206879,-1.444824s0.06897,-1.026611 0.206879,-1.440338s0.3293,-0.759155 0.572906,-1.034973s0.528442,-0.485916 0.854538,-0.63028s0.683105,-0.215881 1.070404,-0.215881s0.744354,0.071533 1.070419,0.215881s0.610931,0.353806 0.854538,0.63028s0.434998,0.621231 0.572906,1.034973s0.206879,0.894485 0.206879,1.440338s-0.06897,1.027878 -0.206879,1.444824zm6.392242,1.832809l-1.074921,0l-2.546204,-4.475677l0,4.475677l-1.074936,0l0,-6.493423l1.074936,0l2.546204,4.475662l0,-4.475662l1.074921,0l0,6.493423z" id="svg_5"/>
  </g>
  <g id="svg_fnlogo">
   <path d="m211.661407,358.388c-1.292999,-3.050995 -3.448807,-5.645996 -6.161499,-7.480011c-2.711807,-1.833984 -5.987305,-2.90799 -9.499908,-2.90799c-2.341202,0 -4.578598,0.47699 -6.612305,1.338989c-3.051132,1.292999 -5.64537,3.449005 -7.479767,6.161011c-1.834412,2.712006 -2.908401,5.988007 -2.907928,9.5c-0.000137,2.341003 0.476791,4.578003 1.338623,6.612c1.292984,3.050995 3.448792,5.645996 6.161499,7.480011c2.711884,1.833984 5.987381,2.90799 9.499878,2.90799c2.341202,0 4.578598,-0.47699 6.612305,-1.338989c3.051102,-1.292999 5.645401,-3.449005 7.479797,-6.161011c1.834396,-2.712006 2.908401,-5.988007 2.907898,-9.5c0.000092,-2.341003 -0.476791,-4.578003 -1.338593,-6.612l0,0zm-2.087112,12.339996c-1.118988,2.641998 -2.991196,4.895996 -5.343979,6.485992c-2.353699,1.591003 -5.181122,2.519012 -8.230301,2.519012c-2.033401,0 -3.966522,-0.412994 -5.728012,-1.158997c-2.641708,-1.119019 -4.895676,-2.990997 -6.486298,-5.343994c-1.590698,-2.354004 -2.5186,-5.181 -2.519058,-8.230011c0.000122,-2.03299 0.412918,-3.966003 1.159058,-5.727997c1.118942,-2.641998 2.991211,-4.895996 5.34404,-6.485992c2.353653,-1.591003 5.181061,-2.519012 8.23027,-2.519012c2.033401,0 3.966492,0.412994 5.728012,1.158997c2.641708,1.119019 4.895706,2.990997 6.486298,5.343994c1.590622,2.352997 2.518509,5.181 2.519012,8.230011c-0.000122,2.03299 -0.412903,3.966003 -1.159012,5.727997l-0.000031,0z" id="svg_2"/>
   <path d="m200.435699,352.802002l-0.938507,0c-1.280396,0 -2.481796,0.440002 -3.432892,1.190002c-0.475906,0.375 -0.890701,0.82901 -1.224197,1.343994c-0.333405,0.515991 -0.585297,1.093994 -0.734497,1.716003l-2.803513,11.682007c-0.090088,0.375 -0.240692,0.720001 -0.440399,1.028992c-0.299393,0.463013 -0.710388,0.843994 -1.190094,1.109009c-0.479996,0.263977 -1.025955,0.411987 -1.604553,0.411987l-0.938583,0c-0.612396,0 -1.108917,0.497009 -1.108917,1.109009c0,0.612 0.496521,1.109009 1.108917,1.109009l0.938583,0c1.28035,0 2.48175,-0.440002 3.432755,-1.19101c0.475998,-0.375 0.890793,-0.828003 1.224197,-1.343994c0.333496,-0.515015 0.585297,-1.094025 0.734604,-1.716003l2.803497,-11.681c0.090103,-0.375 0.240707,-0.721008 0.440399,-1.029022c0.299393,-0.463989 0.710403,-0.844971 1.190094,-1.108978c0.480011,-0.264008 1.026001,-0.412018 1.604599,-0.412018l0.938507,0c0.612396,0 1.109009,-0.496979 1.109009,-1.108978c0,-0.613007 -0.496506,-1.109009 -1.109009,-1.109009z" id="svg_3"/>
   <path d="m200.525497,370.174988l1.433701,-1.43399c0.433105,-0.432983 0.433105,-1.13501 0,-1.567993c-0.433105,-0.433014 -1.135193,-0.433014 -1.568298,0l-1.433701,1.43399l-1.433701,-1.43399c-0.43309,-0.433014 -1.135193,-0.433014 -1.568298,0c-0.433105,0.432983 -0.433105,1.13501 0,1.567993l1.433807,1.43399l-1.433807,1.434021c-0.433105,0.432983 -0.433105,1.134979 0,1.567993c0.433105,0.432983 1.1353,0.432983 1.568298,0l1.433701,-1.43399l1.433701,1.43399c0.433105,0.432983 1.135193,0.432983 1.568298,0c0.433105,-0.433014 0.433105,-1.13501 0,-1.567993l-1.433701,-1.434021z" id="svg_4"/>
  </g>
  <g id="svg_fnfilters">
   <path d="m247.595764,557.853027c0,1.75 -4.252991,3.166992 -9.500031,3.166992m9.500031,-3.166992l0,0c0,1.75 -4.252991,3.166992 -9.500031,3.166992c-5.247009,0 -9.5,-1.416992 -9.5,-3.166992m0,0l0,0c0,-1.749023 4.252991,-3.166016 9.5,-3.166016c5.24704,0 9.500031,1.416992 9.500031,3.166016l0,12.666992c0,1.748962 -4.252991,3.166992 -9.500031,3.166992c-5.247009,0 -9.5,-1.41803 -9.5,-3.166992l0,-12.666992z" stroke-width="1.5" stroke="#ffffff" fill="#000000" id="svg_123"/>
   <text xml:space="preserve" y="567.657" x="252.5488" text-anchor="start" stroke-width="0" stroke="#ffffff" fill="#000000" font-size="10px" font-family="Helvetica,Arial,sans-serif" id="svg_124">df_sized</text>
   <path d="m225.366776,564.989136l-5.207291,-5.25l0,2.625l-5.589508,0l0,-7.875l15,0l0,21l-15,0l0,-7.875l5.589508,0l0,2.625l5.207291,-5.25l0,0z" stroke-width="null" stroke="#000000" fill="#000000" id="svg_133"/>
   <g id="svg_148">
    <path d="m211.661407,559.10144c-1.292999,-3.050964 -3.448807,-5.645996 -6.161499,-7.47998c-2.711807,-1.833984 -5.987305,-2.907959 -9.499908,-2.907959c-2.341202,0 -4.578598,0.476929 -6.612305,1.338989c-3.051132,1.292969 -5.64537,3.448975 -7.479767,6.161011c-1.834412,2.711975 -2.908401,5.987976 -2.907928,9.5c-0.000137,2.340942 0.476791,4.578003 1.338623,6.611938c1.292984,3.051025 3.448792,5.645996 6.161499,7.480042c2.711884,1.833984 5.987381,2.90802 9.499878,2.90802c2.341202,0 4.578598,-0.477051 6.612305,-1.338989c3.051102,-1.29303 5.645401,-3.449036 7.479797,-6.161011c1.834396,-2.712036 2.908401,-5.988037 2.907898,-9.5c0.000092,-2.341064 -0.476791,-4.578003 -1.338593,-6.612061l0,0zm-2.087112,12.340027c-1.118988,2.642029 -2.991196,4.895996 -5.343979,6.486023c-2.353699,1.590942 -5.181122,2.518982 -8.230301,2.518982c-2.033401,0 -3.966522,-0.413025 -5.728012,-1.158997c-2.641708,-1.119019 -4.895676,-2.990967 -6.486298,-5.343994c-1.590698,-2.354004 -2.5186,-5.18103 -2.519058,-8.22998c0.000122,-2.03302 0.412918,-3.966064 1.159058,-5.728027c1.118942,-2.641968 2.991211,-4.895996 5.34404,-6.485962c2.353653,-1.591064 5.181061,-2.519043 8.23027,-2.519043c2.033401,0 3.966492,0.412964 5.728012,1.158997c2.641708,1.119019 4.895706,2.991028 6.486298,5.343994c1.590622,2.352966 2.518509,5.180969 2.519012,8.230042c-0.000122,2.032959 -0.412903,3.965942 -1.159012,5.727966l-0.000031,0z" id="svg_145"/>
    <path d="m200.435699,553.515503l-0.938507,0c-1.280396,0 -2.481796,0.439941 -3.432892,1.189941c-0.475906,0.375 -0.890701,0.829041 -1.224197,1.343994c-0.333405,0.515991 -0.585297,1.093994 -0.734497,1.716064l-2.803513,11.682007c-0.090088,0.375 -0.240692,0.719971 -0.440399,1.028931c-0.299393,0.463013 -0.710388,0.843994 -1.190094,1.109009c-0.479996,0.264038 -1.025955,0.411987 -1.604553,0.411987l-0.938583,0c-0.612396,0 -1.108917,0.49707 -1.108917,1.109009c0,0.612061 0.496521,1.109009 1.108917,1.109009l0.938583,0c1.28035,0 2.48175,-0.439941 3.432755,-1.190979c0.475998,-0.375 0.890793,-0.828003 1.224197,-1.343994c0.333496,-0.515015 0.585297,-1.094055 0.734604,-1.716003l2.803497,-11.68103c0.090103,-0.375 0.240707,-0.720947 0.440399,-1.028992c0.299393,-0.463989 0.710403,-0.844971 1.190094,-1.108948c0.480011,-0.264038 1.026001,-0.412048 1.604599,-0.412048l0.938507,0c0.612396,0 1.109009,-0.497009 1.109009,-1.108948c0,-0.613037 -0.496506,-1.109009 -1.109009,-1.109009z" id="svg_146"/>
    <path d="m200.525497,570.888428l1.433701,-1.43396c0.433105,-0.432983 0.433105,-1.13501 0,-1.567993c-0.433105,-0.432983 -1.135193,-0.432983 -1.568298,0l-1.433701,1.43396l-1.433701,-1.43396c-0.43309,-0.432983 -1.135193,-0.432983 -1.568298,0c-0.433105,0.432983 -0.433105,1.13501 0,1.567993l1.433807,1.43396l-1.433807,1.434082c-0.433105,0.432983 -0.433105,1.134949 0,1.567993c0.433105,0.432983 1.1353,0.432983 1.568298,0l1.433701,-1.434021l1.433701,1.434021c0.433105,0.432983 1.135193,0.432983 1.568298,0c0.433105,-0.433044 0.433105,-1.13501 0,-1.567993l-1.433701,-1.434082z" id="svg_147"/>
   </g>
  </g>
  <g id="svg_136">
   <path d="m211.661407,664.455444c-1.292999,-3.051025 -3.448807,-5.645996 -6.161499,-7.480042c-2.711807,-1.833984 -5.987305,-2.90802 -9.499908,-2.90802c-2.341202,0 -4.578598,0.477051 -6.612305,1.338989c-3.051132,1.29303 -5.64537,3.449036 -7.479767,6.161011c-1.834412,2.712036 -2.908401,5.988037 -2.907928,9.5c-0.000137,2.341064 0.476791,4.578003 1.338623,6.612061c1.292984,3.050964 3.448792,5.645996 6.161499,7.47998c2.711884,1.833984 5.987381,2.907959 9.499878,2.907959c2.341202,0 4.578598,-0.476929 6.612305,-1.338989c3.051102,-1.292969 5.645401,-3.448975 7.479797,-6.161011c1.834396,-2.711975 2.908401,-5.987976 2.907898,-9.5c0.000092,-2.340942 -0.476791,-4.578003 -1.338593,-6.611938l0,0zm-2.087112,12.339966c-1.118988,2.641968 -2.991196,4.895996 -5.343979,6.485962c-2.353699,1.591064 -5.181122,2.519043 -8.230301,2.519043c-2.033401,0 -3.966522,-0.412964 -5.728012,-1.158997c-2.641708,-1.119019 -4.895676,-2.991028 -6.486298,-5.343994c-1.590698,-2.354004 -2.5186,-5.180969 -2.519058,-8.230042c0.000122,-2.032959 0.412918,-3.965942 1.159058,-5.727966c1.118942,-2.642029 2.991211,-4.895996 5.34404,-6.486023c2.353653,-1.590942 5.181061,-2.518982 8.23027,-2.518982c2.033401,0 3.966492,0.413025 5.728012,1.158997c2.641708,1.119019 4.895706,2.990967 6.486298,5.343994c1.590622,2.353027 2.518509,5.18103 2.519012,8.22998c-0.000122,2.03302 -0.412903,3.966064 -1.159012,5.728027l-0.000031,0z" id="svg_126"/>
   <path d="m200.435699,658.869385l-0.938507,0c-1.280396,0 -2.481796,0.440063 -3.432892,1.190063c-0.475906,0.375 -0.890701,0.828979 -1.224197,1.343994c-0.333405,0.515991 -0.585297,1.093994 -0.734497,1.715942l-2.803513,11.682007c-0.090088,0.375 -0.240692,0.720032 -0.440399,1.029053c-0.299393,0.463013 -0.710388,0.843994 -1.190094,1.109009c-0.479996,0.263916 -1.025955,0.411987 -1.604553,0.411987l-0.938583,0c-0.612396,0 -1.108917,0.496948 -1.108917,1.109009c0,0.611938 0.496521,1.109009 1.108917,1.109009l0.938583,0c1.28035,0 2.48175,-0.440063 3.432755,-1.19104c0.475998,-0.375 0.890793,-0.828003 1.224197,-1.343994c0.333496,-0.515015 0.585297,-1.093994 0.734604,-1.716003l2.803497,-11.680969c0.090103,-0.375 0.240707,-0.721069 0.440399,-1.029053c0.299393,-0.463989 0.710403,-0.844971 1.190094,-1.109009c0.480011,-0.263977 1.026001,-0.411987 1.604599,-0.411987l0.938507,0c0.612396,0 1.109009,-0.496948 1.109009,-1.109009c0,-0.612976 -0.496506,-1.109009 -1.109009,-1.109009z" id="svg_134"/>
   <path d="m200.525497,676.242432l1.433701,-1.434021c0.433105,-0.432983 0.433105,-1.13501 0,-1.567993c-0.433105,-0.433044 -1.135193,-0.433044 -1.568298,0l-1.433701,1.434021l-1.433701,-1.434021c-0.43309,-0.433044 -1.135193,-0.433044 -1.568298,0c-0.433105,0.432983 -0.433105,1.13501 0,1.567993l1.433807,1.434021l-1.433807,1.43396c-0.433105,0.432983 -0.433105,1.13501 0,1.567993c0.433105,0.432983 1.1353,0.432983 1.568298,0l1.433701,-1.43396l1.433701,1.43396c0.433105,0.432983 1.135193,0.432983 1.568298,0c0.433105,-0.432983 0.433105,-1.13501 0,-1.567993l-1.433701,-1.43396z" id="svg_135"/>
  </g>
  <g id="svg_140">
   <path d="m211.661407,764.455444c-1.292999,-3.051025 -3.448807,-5.645996 -6.161499,-7.480042c-2.711807,-1.833984 -5.987305,-2.90802 -9.499908,-2.90802c-2.341202,0 -4.578598,0.477051 -6.612305,1.338989c-3.051132,1.29303 -5.64537,3.449036 -7.479767,6.161011c-1.834412,2.712036 -2.908401,5.988037 -2.907928,9.5c-0.000137,2.341064 0.476791,4.578003 1.338623,6.612061c1.292984,3.050964 3.448792,5.645996 6.161499,7.47998c2.711884,1.833984 5.987381,2.907959 9.499878,2.907959c2.341202,0 4.578598,-0.476929 6.612305,-1.338989c3.051102,-1.292969 5.645401,-3.448975 7.479797,-6.161011c1.834396,-2.711975 2.908401,-5.987976 2.907898,-9.5c0.000092,-2.340942 -0.476791,-4.578003 -1.338593,-6.611938l0,0zm-2.087112,12.339966c-1.118988,2.641968 -2.991196,4.895996 -5.343979,6.485962c-2.353699,1.591064 -5.181122,2.519043 -8.230301,2.519043c-2.033401,0 -3.966522,-0.412964 -5.728012,-1.158997c-2.641708,-1.119019 -4.895676,-2.991028 -6.486298,-5.343994c-1.590698,-2.354004 -2.5186,-5.180969 -2.519058,-8.230042c0.000122,-2.032959 0.412918,-3.965942 1.159058,-5.727966c1.118942,-2.642029 2.991211,-4.895996 5.34404,-6.486023c2.353653,-1.590942 5.181061,-2.518982 8.23027,-2.518982c2.033401,0 3.966492,0.413025 5.728012,1.158997c2.641708,1.119019 4.895706,2.990967 6.486298,5.343994c1.590622,2.353027 2.518509,5.18103 2.519012,8.22998c-0.000122,2.03302 -0.412903,3.966064 -1.159012,5.728027l-0.000031,0z" id="svg_137"/>
   <path d="m200.435699,758.869385l-0.938507,0c-1.280396,0 -2.481796,0.440063 -3.432892,1.190063c-0.475906,0.375 -0.890701,0.828979 -1.224197,1.343994c-0.333405,0.515991 -0.585297,1.093994 -0.734497,1.715942l-2.803513,11.682007c-0.090088,0.375 -0.240692,0.720032 -0.440399,1.029053c-0.299393,0.463013 -0.710388,0.843994 -1.190094,1.109009c-0.479996,0.263916 -1.025955,0.411987 -1.604553,0.411987l-0.938583,0c-0.612396,0 -1.108917,0.496948 -1.108917,1.109009c0,0.611938 0.496521,1.109009 1.108917,1.109009l0.938583,0c1.28035,0 2.48175,-0.440063 3.432755,-1.19104c0.475998,-0.375 0.890793,-0.828003 1.224197,-1.343994c0.333496,-0.515015 0.585297,-1.093994 0.734604,-1.716003l2.803497,-11.680969c0.090103,-0.375 0.240707,-0.721069 0.440399,-1.029053c0.299393,-0.463989 0.710403,-0.844971 1.190094,-1.109009c0.480011,-0.263977 1.026001,-0.411987 1.604599,-0.411987l0.938507,0c0.612396,0 1.109009,-0.496948 1.109009,-1.109009c0,-0.612976 -0.496506,-1.109009 -1.109009,-1.109009z" id="svg_138"/>
   <path d="m200.525497,776.242432l1.433701,-1.434021c0.433105,-0.432983 0.433105,-1.13501 0,-1.567993c-0.433105,-0.433044 -1.135193,-0.433044 -1.568298,0l-1.433701,1.434021l-1.433701,-1.434021c-0.43309,-0.433044 -1.135193,-0.433044 -1.568298,0c-0.433105,0.432983 -0.433105,1.13501 0,1.567993l1.433807,1.434021l-1.433807,1.43396c-0.433105,0.432983 -0.433105,1.13501 0,1.567993c0.433105,0.432983 1.1353,0.432983 1.568298,0l1.433701,-1.43396l1.433701,1.43396c0.433105,0.432983 1.135193,0.432983 1.568298,0c0.433105,-0.432983 0.433105,-1.13501 0,-1.567993l-1.433701,-1.43396z" id="svg_139"/>
  </g>
  <text xml:space="preserve" y="602.3955" x="118.1713" text-anchor="start" stroke-width="0" stroke="#000000" fill="#000000" font-size="18px" font-family="Helvetica,Arial,sans-serif" id="svg_73">SdMult</text>
  <rect rx="8" height="25" width="70" y="583.645" x="113.556" stroke="#000000" fill="none" id="svg_116"/>
  <line y2="584.645" x2="199.5" y1="607.645" x1="186.5" stroke-width="2.5" stroke-opacity="null" stroke-linejoin="null" stroke-linecap="null" stroke="#000000" fill-opacity="null" fill="none" id="svg_141"/>
  <line y2="487.77" x2="-101.5" y1="487.77" x1="-100.5" stroke-width="2.5" stroke-opacity="null" stroke-linejoin="null" stroke-linecap="null" stroke="#000000" fill-opacity="null" fill="none" id="svg_142"/>
  <line y2="617.645" x2="110.5" y1="640.645" x1="97.5" stroke-width="2.5" stroke-opacity="null" stroke-linejoin="null" stroke-linecap="null" stroke="#000000" fill-opacity="null" fill="none" id="svg_144"/>
  <rect rx="8" height="25" width="81" y="615.77" x="14.556" stroke="#000000" fill="#56aaff" id="svg_150"/>
  <text xml:space="preserve" y="634.5205" x="18.1713" text-anchor="start" stroke-width="0" stroke="#000000" fill="#000000" font-size="18px" font-family="Helvetica,Arial,sans-serif" id="svg_149">All Opts</text>
  <line y2="584.645" x2="109.5" y1="607.645" x1="96.5" stroke-width="2.5" stroke-opacity="null" stroke-linejoin="null" stroke-linecap="null" stroke="#000000" fill-opacity="null" fill="none" id="svg_143"/>
 </g>
</svg>