<svg width="782" height="502" xmlns="http://www.w3.org/2000/svg">
 <!-- Created with Method Draw - http://github.com/duopixel/Method-Draw/ -->

 <g>
  <title>background</title>
  <rect height="504" width="784" y="-1" x="-1" fill="#fff" id="canvas_background"/>
 </g>
 <g>
  <title>Layer 1</title>
  <rect height="51" width="245" y="14.5" x="278.5" stroke-width="0" stroke="#999999" fill="#b2b2b2" id="svg_2"/>
  <text xml:space="preserve" y="53.5" x="321.8828" text-anchor="start" stroke-width="0" stroke="#000" fill="#ffffff" font-size="39px" font-family="Helvetica,Arial,sans-serif" id="svg_1">Structure</text>
  <rect height="33" width="234" y="364.5" x="43.5" stroke-width="0" stroke-opacity="null" stroke="#000" fill="#ff5656" id="svg_3"/>
  <text xml:space="preserve" y="389.5" x="49.5078" text-anchor="start" stroke-width="0" stroke-opacity="null" stroke="#000" fill="#ffffff" font-size="24px" font-family="Helvetica,Arial,sans-serif" id="svg_4">Target</text>
  <rect height="33" width="234" y="203.5" x="43.5" stroke-width="0" stroke-opacity="null" stroke="#000" fill="#ff5656" id="svg_7"/>
  <text xml:space="preserve" y="228.5" x="49.5078" text-anchor="start" stroke-width="0" stroke-opacity="null" stroke="#000" fill="#ffffff" font-size="24px" font-family="Helvetica,Arial,sans-serif" id="svg_8">OHLCs</text>
  <rect height="33" width="234" y="145.477" x="43.5" stroke-width="0" stroke-opacity="null" stroke="#000" fill="#ff5656" id="svg_9"/>
  <text xml:space="preserve" y="170.4768" x="49.5078" text-anchor="start" stroke-width="0" stroke-opacity="null" stroke="#000" fill="#ffffff" font-size="24px" font-family="Helvetica,Arial,sans-serif" id="svg_10">All Chains</text>
  <rect height="33" width="234" y="265.5" x="43.5" stroke-width="0" stroke-opacity="null" stroke="#000" fill="#ff5656" id="svg_11"/>
  <text xml:space="preserve" y="290.5" x="49.5078" text-anchor="start" stroke-width="0" stroke-opacity="null" stroke="#000" fill="#ffffff" font-size="24px" font-family="Helvetica,Arial,sans-serif" id="svg_12">Downsized Chains</text>
  <rect height="33" width="234" y="299.5" x="43.5" stroke-width="0" stroke-opacity="null" stroke="#000" fill="#ff5656" id="svg_13"/>
  <text xml:space="preserve" y="324.5" x="49.5078" text-anchor="start" stroke-width="0" stroke-opacity="null" stroke="#000" fill="#ffffff" font-size="24px" font-family="Helvetica,Arial,sans-serif" id="svg_14">Price &amp; Margin</text>
  <ellipse ry="32" rx="92" cy="203.5" cx="416.5" stroke-width="0" stroke-opacity="null" stroke="#000" fill="#4c261d" id="svg_15"/>
  <text xml:space="preserve" y="212" x="379.3281" text-anchor="start" stroke-width="0" stroke-opacity="null" stroke="#000" fill="#ffffff" font-size="24px" font-family="Helvetica,Arial,sans-serif" id="svg_16">remqty</text>
  <ellipse ry="32" rx="92" cy="354.5" cx="415.5" stroke-width="0" stroke-opacity="null" stroke="#000" fill="#4c261d" id="svg_17"/>
  <text xml:space="preserve" y="363" x="368.3203" text-anchor="start" stroke-width="0" stroke-opacity="null" stroke="#000" fill="#ffffff" font-size="24px" font-family="Helvetica,Arial,sans-serif" id="svg_18">Dynamic</text>
  <text xml:space="preserve" y="36" x="657.5" text-anchor="start" stroke-width="0" stroke-opacity="null" stroke="#000" fill="#000000" font-size="14px" font-family="Helvetica,Arial,sans-serif" id="svg_19">with Paper</text>
  <text xml:space="preserve" y="36" x="593.5" text-anchor="start" stroke-width="0" stroke-opacity="null" stroke="#000" fill="#000000" font-size="14px" font-family="Helvetica,Arial,sans-serif" id="svg_20">Live</text>
  <rect ry="5" height="10" width="38" y="44" x="626" stroke="null" fill="#ff0000" id="ButtonBase"/>
  <ellipse ry="7.5" rx="7.5" cy="49" cx="637" stroke="#000000" fill="#ffffff" id="svg_21"/>
  <text xml:space="preserve" y="125.5" x="587.5" text-anchor="start" stroke-width="0" stroke-opacity="null" stroke="null" fill-opacity="null" fill="#000000" font-weight="bold" font-style="normal" font-size="18px" font-family="Helvetica,Arial,sans-serif" id="svg_22">Filters</text>
  <line y2="132.5" x2="705.504" y1="132.5" x1="587.5" stroke-width="null" stroke-linejoin="null" stroke-linecap="null" stroke="#000000" fill="none" id="svg_23"/>
  <text xml:space="preserve" y="476" x="584.5" text-anchor="start" stroke-width="0" stroke="#000000" fill="#000000" font-size="18px" font-family="Helvetica,Arial,sans-serif" id="svg_25">Median PoP</text>
  <text xml:space="preserve" y="179" x="587.5" text-anchor="start" stroke-width="0" stroke="#000000" fill="#000000" font-size="18px" font-family="Helvetica,Arial,sans-serif" id="svg_26">HiLo52</text>
  <text xml:space="preserve" y="428" x="584.5" text-anchor="start" stroke-width="0" stroke="#000000" fill="#000000" font-size="18px" font-family="Helvetica,Arial,sans-serif" id="svg_27">Median RoM</text>
  <text xml:space="preserve" y="451" x="584.5" text-anchor="start" stroke-width="0" stroke="#000000" fill="#000000" font-size="18px" font-family="Helvetica,Arial,sans-serif" id="svg_28">Mean PoP</text>
  <text xml:space="preserve" y="368.5" x="584.5" text-anchor="start" stroke-width="0" stroke-opacity="null" stroke="null" fill-opacity="null" fill="#000000" font-weight="bold" font-style="normal" font-size="18px" font-family="Helvetica,Arial,sans-serif" id="svg_29">Key Statistics</text>
  <line y2="375.5" x2="702.504" y1="375.5" x1="584.5" stroke-width="null" stroke-linejoin="null" stroke-linecap="null" stroke="#000000" fill="none" id="svg_30"/>
  <path d="m599.18701,299.12668c-5.2467,0 -9.5,4.25333 -9.5,9.50003c0,5.24667 4.2533,9.5 9.5,9.5c5.2467,0 9.5,-4.25333 9.5,-9.5c0,-5.2467 -4.2533,-9.50003 -9.5,-9.50003zm-1.52625,15.85681l-2.3114,-2.31342l4.04413,-4.04388l-4.04413,-4.04385l2.3114,-2.31143l6.35602,6.35529l-6.35602,6.3573l0,0z" transform="rotate(90 598 308)" stroke-width="null" stroke="#000000" fill="#000000" id="sort1"/>
  <text xml:space="preserve" y="315.5" x="614.5" text-anchor="start" stroke-width="0" stroke-opacity="null" stroke="#000000" fill-opacity="null" fill="#000000" font-size="18px" font-family="Helvetica,Arial,sans-serif" id="svg_24">RoM by Symbol</text>
  <path d="m599.18701,271.12668c-5.2467,0 -9.5,4.25333 -9.5,9.50003c0,5.24667 4.2533,9.5 9.5,9.5c5.2467,0 9.5,-4.25333 9.5,-9.5c0,-5.2467 -4.2533,-9.50003 -9.5,-9.50003zm-1.52625,15.85681l-2.3114,-2.31342l4.04413,-4.04388l-4.04413,-4.04385l2.3114,-2.31143l6.35602,6.35529l-6.35602,6.3573l0,0z" transform="rotate(90 598 280)" stroke-width="null" stroke="#000000" fill="#000000" id="svg_31"/>
  <text xml:space="preserve" y="287.5" x="614.5" text-anchor="start" stroke-width="0" stroke-opacity="null" stroke="#000000" fill-opacity="null" fill="#000000" font-size="18px" font-family="Helvetica,Arial,sans-serif" id="svg_32">All RoM</text>
  <text xml:space="preserve" y="251.5" x="585.5" text-anchor="start" stroke-width="0" stroke-opacity="null" stroke="null" fill-opacity="null" fill="#000000" font-weight="bold" font-style="normal" font-size="18px" font-family="Helvetica,Arial,sans-serif" id="svg_33">Views</text>
  <line y2="258.5" x2="702.504" y1="258.5" x1="584.5" stroke-width="null" stroke-linejoin="null" stroke-linecap="null" stroke="#000000" fill="none" id="svg_34"/>
  <text xml:space="preserve" y="405" x="584.5" text-anchor="start" stroke-width="0" stroke="#000000" fill="#000000" font-size="18px" font-family="Helvetica,Arial,sans-serif" id="svg_35">Mean RoM</text>
  <text xml:space="preserve" y="156" x="587.5" text-anchor="start" stroke-width="0" stroke="#000000" fill="#000000" font-size="18px" font-family="Helvetica,Arial,sans-serif" id="svg_36">FallRise</text>
 </g>
</svg>