<svg width="950" height="800" xmlns="http://www.w3.org/2000/svg">
 <!-- Created with Method Draw - http://github.com/duopixel/Method-Draw/ -->
 <defs>
  <radialGradient spreadMethod="pad" id="svg_101">
   <stop offset="0.128906" stop-color="rgb(255, 0, 0)"/>
   <stop offset="0.800781" stop-opacity="0.996094" stop-color="rgb(191, 0, 0)"/>
  </radialGradient>
  <radialGradient r="0.5" cy="0.5" cx="0.5" spreadMethod="pad" id="svg_1">
   <stop offset="0.128906" stop-opacity="0.996094" stop-color="rgb(255, 86, 255)"/>
   <stop offset="0.800781" stop-opacity="0.996094" stop-color="rgb(127, 0, 127)"/>
  </radialGradient>
  <radialGradient r="0.5" cy="0.5" cx="0.5" spreadMethod="pad" id="svg_74">
   <stop offset="0.144531" stop-opacity="0.996094" stop-color="rgb(95, 191, 0)"/>
   <stop offset="0.800781" stop-opacity="0.996094" stop-color="rgb(0, 127, 0)"/>
  </radialGradient>
  <radialGradient r="0.5" cy="0.5" cx="0.5" spreadMethod="pad" id="svg_102">
   <stop offset="0.148438" stop-opacity="0.996094" stop-color="rgb(86, 170, 255)"/>
   <stop offset="0.800781" stop-opacity="0.996094" stop-color="rgb(0, 0, 191)"/>
  </radialGradient>
 </defs>
 <g>
  <title>background</title>
  <rect height="802" width="952" y="-1" x="-1" fill="#fff" id="canvas_background"/>
 </g>
 <g>
  <title>Layer 1</title>
  <rect rx="8" height="45" width="269" y="660.27" x="397.556" stroke="#000000" fill="none" id="svg_45"/>
  <rect height="33" width="240" y="602.5" x="400.556" stroke-width="0" stroke-opacity="null" stroke="#000" fill="#ff5656" id="svg_3"/>
  <text xml:space="preserve" y="627.5" x="404.5639" text-anchor="start" stroke-width="0" stroke-opacity="null" stroke="#000" fill="#ffffff" font-size="24px" font-family="Helvetica,Arial,sans-serif" id="svg_4">Workout</text>
  <rect height="33" width="240" y="227.02" x="399.556" stroke-width="0" stroke-opacity="null" stroke="#000" fill="#ff5656" id="svg_7"/>
  <text xml:space="preserve" y="252.5" x="403.5639" text-anchor="start" stroke-width="0" stroke-opacity="null" stroke="#000" fill="#ffffff" font-size="24px" font-family="Helvetica,Arial,sans-serif" id="svg_8">OHLCs</text>
  <rect height="33" width="240" y="114.477" x="399.556" stroke-width="0" stroke-opacity="null" stroke="#000" fill="#ff5656" id="svg_9"/>
  <text xml:space="preserve" y="138.4768" x="403.5639" text-anchor="start" stroke-width="0" stroke-opacity="null" stroke="#000" fill="#ffffff" font-size="24px" font-family="Helvetica,Arial,sans-serif" id="svg_10">Chains</text>
  <rect height="33" width="240" y="355.5" x="399.556" stroke-width="0" stroke-opacity="null" stroke="#000" fill="#ff5656" id="svg_11"/>
  <text xml:space="preserve" y="380.5" x="403.5639" text-anchor="start" stroke-width="0" stroke-opacity="null" stroke="#000" fill="#ffffff" font-size="24px" font-family="Helvetica,Arial,sans-serif" id="svg_12">Size Down</text>
  <text xml:space="preserve" y="789.5" x="545.5136" text-anchor="start" stroke-width="0" stroke="#000000" fill="#000000" font-size="12px" font-family="Helvetica,Arial,sans-serif" id="svg_14">***Composite RoI = (Realized+Unrealized PnL)/(Mkt Val - Cost)*365 / DTE</text>
  <text xml:space="preserve" y="41" x="102.0763" text-anchor="start" stroke-width="0" stroke-opacity="null" stroke="#000" fill="#000000" style="cursor: move; pointer-events: inherit;" font-size="14px" font-family="Helvetica,Arial,sans-serif" id="svg_19">NSE</text>
  <rect ry="5" height="10" width="47" y="31.15" x="48.5763" stroke="null" fill="#005fbf" id="ButtonBase"/>
  <ellipse ry="7.5" rx="7.5" cy="36.15" cx="83.576" stroke="#000000" fill="#ffffff" id="svg_21"/>
  <text xml:space="preserve" y="549.7104" x="14.1713" text-anchor="start" stroke-width="0" stroke-opacity="null" stroke="null" fill-opacity="null" fill="#000000" font-weight="bold" font-style="normal" font-size="18px" font-family="Helvetica,Arial,sans-serif" id="svg_22">Filters</text>
  <line y2="556.71" x2="203.671" y1="556.71" x1="14.1713" stroke-width="null" stroke-linejoin="null" stroke-linecap="null" stroke="#000000" fill="none" id="svg_23"/>
  <text xml:space="preserve" y="603.2104" x="102.1713" text-anchor="start" stroke-width="0" stroke="#000000" fill="#000000" font-size="18px" font-family="Helvetica,Arial,sans-serif" id="svg_26">HiLo52</text>
  <text xml:space="preserve" y="789.2104" x="14.1713" text-anchor="start" stroke-width="0" stroke="#000000" fill="#000000" font-size="18px" font-family="Helvetica,Arial,sans-serif" id="svg_28">Mean, Median  PoP</text>
  <text xml:space="preserve" y="122.5" x="16.1713" text-anchor="start" stroke-width="0" stroke-opacity="null" stroke="null" fill-opacity="null" fill="#000000" font-weight="bold" font-style="normal" font-size="18px" font-family="Helvetica,Arial,sans-serif" id="svg_29">Settings</text>
  <line y2="129.5" x2="203.671" y1="129.5" x1="16.1713" stroke-width="null" stroke-linejoin="null" stroke-linecap="null" stroke="#000000" fill="none" id="svg_30"/>
  <path d="m23.671329,681.127014c-5.247009,0 -9.499999,4.252991 -9.499999,9.5c0,5.245972 4.25299,9.5 9.499999,9.5c5.247,0 9.5,-4.254028 9.5,-9.5c0,-5.247009 -4.253,-9.5 -9.5,-9.5zm-1.526009,15.856995l-2.312012,-2.314026l4.04401,-4.044006l-4.04401,-4.043945l2.312012,-2.311035l6.35602,6.35498l-6.35602,6.358032l0,0z" transform="rotate(90 23.6713 690.627)" stroke-width="null" stroke="#000000" fill="#000000" id="sort1"/>
  <text xml:space="preserve" y="696.7104" x="40.1713" text-anchor="start" stroke-width="0" stroke-opacity="null" stroke="#000000" fill-opacity="null" fill="#000000" font-size="18px" font-family="Helvetica,Arial,sans-serif" id="svg_24">RoM by Symbol</text>
  <path d="m23.671329,658.126709c-5.24671,0 -9.499999,4.253296 -9.499999,9.5c0,5.246704 4.253289,9.5 9.499999,9.5c5.2467,0 9.5,-4.253296 9.5,-9.5c0,-5.246704 -4.2533,-9.5 -9.5,-9.5zm-1.526249,15.856812l-2.311401,-2.313477l4.04413,-4.043823l-4.04413,-4.043884l2.311401,-2.311462l6.35602,6.355347l-6.35602,6.3573l0,0z" transform="rotate(90 23.6713 667.627)" stroke-width="null" stroke="#000000" fill="#000000" id="svg_31"/>
  <text xml:space="preserve" y="673.7104" x="40.1713" text-anchor="start" stroke-width="0" stroke-opacity="null" stroke="#000000" fill-opacity="null" fill="#000000" font-size="18px" font-family="Helvetica,Arial,sans-serif" id="svg_32">All RoM</text>
  <text xml:space="preserve" y="637.7104" x="14.1713" text-anchor="start" stroke-width="0" stroke-opacity="null" stroke="null" fill-opacity="null" fill="#000000" font-weight="bold" font-style="normal" font-size="18px" font-family="Helvetica,Arial,sans-serif" id="svg_33">Views</text>
  <line y2="644.71" x2="203.671" y1="644.71" x1="14.1713" stroke-width="null" stroke-linejoin="null" stroke-linecap="null" stroke="#000000" fill="none" id="svg_34"/>
  <text xml:space="preserve" y="514.2502" x="13.1713" text-anchor="start" stroke-width="0" stroke="#000000" fill="#000000" font-size="18px" font-family="Helvetica,Arial,sans-serif" id="svg_35">Composite RoI***</text>
  <text xml:space="preserve" y="580.2104" x="102.1713" text-anchor="start" stroke-width="0" stroke="#000000" fill="#000000" font-size="18px" font-family="Helvetica,Arial,sans-serif" id="svg_36">FallRise</text>
  <text xml:space="preserve" y="295.5" x="403.5639" text-anchor="start" stroke-width="0" stroke="#000000" fill="#000000" font-size="16px" font-family="Helvetica,Arial,sans-serif" id="svg_5">- with running Standard Deviation</text>
  <text xml:space="preserve" y="697.5" x="400.5401" text-anchor="start" stroke-width="0" stroke="#000000" fill="#000000" font-size="16px" font-family="Helvetica,Arial,sans-serif" id="svg_6">- SELL Nakeds on remaining qty</text>
  <text xml:space="preserve" y="716.5" x="515.5639" text-anchor="start" stroke-width="0" stroke="#000000" fill="#000000" font-size="12px" font-family="Helvetica,Arial,sans-serif" id="svg_13">Can be dynamically initiated</text>
  <text xml:space="preserve" y="422.5" x="401.5639" text-anchor="start" stroke-width="0" stroke="#000000" fill="#000000" font-size="16px" font-family="Helvetica,Arial,sans-serif" id="svg_25">- On OptPrice, Margin (RoM**)</text>
  <text xml:space="preserve" y="651.5" x="402.5639" text-anchor="start" stroke-width="0" stroke="#000000" fill="#000000" font-size="16px" font-family="Helvetica,Arial,sans-serif" id="svg_27">- SELL Covered Calls and Puts</text>
  <rect height="33" width="240" y="477.5" x="399.556" stroke-width="0" stroke-opacity="null" stroke="#000" fill="#ff5656" id="svg_37"/>
  <text xml:space="preserve" y="502.5" x="403.5639" text-anchor="start" stroke-width="0" stroke-opacity="null" stroke="#000" fill="#ffffff" font-size="24px" font-family="Helvetica,Arial,sans-serif" id="svg_38">Target</text>
  <text xml:space="preserve" y="546.5" x="401.5639" text-anchor="start" stroke-width="0" stroke="#000000" fill="#000000" font-size="16px" font-family="Helvetica,Arial,sans-serif" id="svg_39">- Removing blacklists</text>
  <text xml:space="preserve" y="526.5" x="401.5639" text-anchor="start" stroke-width="0" stroke="#000000" fill="#000000" font-size="16px" font-family="Helvetica,Arial,sans-serif" id="svg_40">- On remaining qty</text>
  <text xml:space="preserve" y="677.5" x="402.5639" text-anchor="start" stroke-width="0" stroke="#000000" fill="#000000" font-size="16px" font-family="Helvetica,Arial,sans-serif" id="svg_41">- BUY to close open option positions</text>
  <text xml:space="preserve" y="403.5" x="401.5639" text-anchor="start" stroke-width="0" stroke="#000000" fill="#000000" font-size="16px" font-family="Helvetica,Arial,sans-serif" id="svg_42">- On UndPrice, StdDev (PoP*)</text>
  <text xml:space="preserve" y="498.0696" x="779.5639" text-anchor="start" stroke-width="0" stroke="#000000" fill="#000000" font-size="16px" font-family="Helvetica,Arial,sans-serif" id="svg_43">targets.pkl</text>
  <text xml:space="preserve" y="276.5" x="402.5639" text-anchor="start" stroke-width="0" stroke="#000000" fill="#000000" font-size="16px" font-family="Helvetica,Arial,sans-serif" id="svg_44">- Open, High, Low, Close</text>
  <text xml:space="preserve" y="758.5" x="545.5136" text-anchor="start" stroke-width="0" stroke="#000000" fill="#000000" font-size="12px" font-family="Helvetica,Arial,sans-serif" id="svg_15">*PoP - Probabiltiy of Profit</text>
  <text xml:space="preserve" y="734.7104" x="14.1713" text-anchor="start" stroke-width="0" stroke-opacity="null" stroke="null" fill-opacity="null" fill="#000000" font-weight="bold" font-style="normal" font-size="18px" font-family="Helvetica,Arial,sans-serif" id="svg_16">Statistics</text>
  <line y2="741.71" x2="203.671" y1="741.71" x1="14.1713" stroke-width="null" stroke-linejoin="null" stroke-linecap="null" stroke="#000000" fill="none" id="svg_17"/>
  <text xml:space="preserve" y="766.2104" x="14.1713" text-anchor="start" stroke-width="0" stroke="#000000" fill="#000000" font-size="18px" font-family="Helvetica,Arial,sans-serif" id="svg_18">Mean, Median RoM</text>
  <text xml:space="preserve" y="411.2104" x="14.1713" text-anchor="start" stroke-width="0" stroke="#000000" fill="#000000" font-size="18px" font-family="Helvetica,Arial,sans-serif" id="svg_46">Initial Margin</text>
  <text xml:space="preserve" y="485.2104" x="14.1713" text-anchor="start" stroke-width="0" stroke="#000000" fill="#000000" font-size="14px" font-family="Helvetica,Arial,sans-serif" id="svg_47">- Near-the-money</text>
  <text xml:space="preserve" y="328" x="16.1713" text-anchor="start" stroke-width="0" stroke="#000000" fill="#000000" font-size="14px" font-family="Helvetica,Arial,sans-serif" id="svg_49">- Min expected OptPrice</text>
  <text xml:space="preserve" y="447.2104" x="14.1713" text-anchor="start" stroke-width="0" stroke="#000000" fill="#000000" font-size="18px" font-family="Helvetica,Arial,sans-serif" id="svg_50">Risky Positions</text>
  <text xml:space="preserve" y="465.2104" x="14.1713" text-anchor="start" stroke-width="0" stroke="#000000" fill="#000000" font-size="14px" font-family="Helvetica,Arial,sans-serif" id="svg_51">- In-the-money</text>
  <text xml:space="preserve" y="773.5" x="545.5136" text-anchor="start" stroke-width="0" stroke="#000000" fill="#000000" font-size="12px" font-family="Helvetica,Arial,sans-serif" id="svg_53">**RoM - Return on Margin</text>
  <text xml:space="preserve" y="358.7104" x="14.1713" text-anchor="start" stroke-width="0" stroke-opacity="null" stroke="null" fill-opacity="null" fill="#000000" font-weight="bold" font-style="normal" font-size="18px" font-family="Helvetica,Arial,sans-serif" id="svg_54">Monitors</text>
  <line y2="365.71" x2="203.671" y1="365.71" x1="14.1713" stroke-width="null" stroke-linejoin="null" stroke-linecap="null" stroke="#000000" fill="none" id="svg_55"/>
  <text xml:space="preserve" y="388.2104" x="14.1713" text-anchor="start" stroke-width="0" stroke="#000000" fill="#000000" font-size="18px" font-family="Helvetica,Arial,sans-serif" id="svg_56">Net Liquidation Value</text>
  <text xml:space="preserve" y="156" x="17.1713" text-anchor="start" stroke-width="0" stroke="#000000" fill="#000000" font-size="18px" font-family="Helvetica,Arial,sans-serif" id="svg_57">NLV % Limit</text>
  <text xml:space="preserve" y="249" x="16.1713" text-anchor="start" stroke-width="0" stroke="#000000" fill="#000000" font-size="14px" font-family="Helvetica,Arial,sans-serif" id="svg_58">- Call Std Multiple</text>
  <text xml:space="preserve" y="269" x="16.1713" text-anchor="start" stroke-width="0" stroke="#000000" fill="#000000" font-size="14px" font-family="Helvetica,Arial,sans-serif" id="svg_59">- Put Std Multiple</text>
  <text xml:space="preserve" y="290" x="16.1713" text-anchor="start" stroke-width="0" stroke="#000000" fill="#000000" font-size="14px" font-family="Helvetica,Arial,sans-serif" id="svg_60">- Max DTE</text>
  <text xml:space="preserve" y="230" x="16.1713" text-anchor="start" stroke-width="0" stroke="#000000" fill="#000000" font-size="18px" font-family="Helvetica,Arial,sans-serif" id="svg_62">Others</text>
  <text xml:space="preserve" y="174" x="16.1713" text-anchor="start" stroke-width="0" stroke="#000000" fill="#000000" font-size="18px" font-family="Helvetica,Arial,sans-serif" id="svg_63">Assignment Limit</text>
  <text xml:space="preserve" y="309" x="16.1713" text-anchor="start" stroke-width="0" stroke="#000000" fill="#000000" font-size="14px" font-family="Helvetica,Arial,sans-serif" id="svg_64">- Min expected RoM</text>
  <text xml:space="preserve" y="204" x="16.1713" text-anchor="start" stroke-width="0" stroke="#000000" fill="#000000" font-size="18px" font-family="Helvetica,Arial,sans-serif" id="svg_65">Blacklist</text>
  <text xml:space="preserve" y="41" x="13.0763" text-anchor="start" stroke-width="0" stroke-opacity="null" stroke="#000" fill="#000000" style="cursor: move; pointer-events: inherit;" font-size="14px" font-family="Helvetica,Arial,sans-serif" id="svg_66">SNP</text>
  <path d="m272.853516,114.539597c-9.113647,0 -16.500061,7.386681 -16.500061,16.499985c0,9.111816 7.386414,16.5 16.500061,16.5c9.112671,0 16.499939,-7.388184 16.499939,-16.5c0,-9.113304 -7.387268,-16.499985 -16.499939,-16.499985zm3.584961,24.752762c-0.09021,0.072784 -0.208008,0.147308 -0.119629,0.233917c0.088379,0.088348 -0.102234,0.148773 -0.102234,0.193848s0.117859,0.278961 0.058899,0.381195c-0.058899,0.103943 -0.103088,0.252777 -0.147278,0.341125c-0.044067,0.088379 -0.148926,0.176727 -0.117737,0.308441c0.02771,0.131653 -0.118652,0.088348 -0.118652,0.221771c0,0.131714 0.131653,0.072784 0.102173,0.235657c-0.027649,0.162659 -0.102173,0.207733 -0.102173,0.323792c0,0.117828 0.072754,0.278961 0.072754,0.324036s-0.072754,0.192352 -0.175903,0.308411c-0.104736,0.117584 -0.17572,0.193848 -0.163635,0.264862c0.016541,0.074524 0.118713,0.162903 0.103943,0.209747c-0.014648,0.041504 -0.147217,0.190552 -0.131653,0.292786c0.015625,0.10199 0.146423,0.060425 0.175903,0.131409c0.029297,0.074524 -0.175903,0.135223 -0.089294,0.207977c0.089294,0.072784 0.207886,0.058899 0.17749,0.237427c-0.021606,0.126404 0.072754,0.183533 0.143066,0.223297c-1.01178,0.251251 -2.064026,0.400299 -3.152771,0.400299c-7.220154,0 -13.092712,-5.872498 -13.092712,-13.092773c0,-2.354034 0.632324,-4.559288 1.722839,-6.468208c0.090027,-0.046829 0.155823,-0.078056 0.194031,-0.06926c0.074463,0.013855 0.089966,0.117813 0.207764,0.147293c0.118774,0.029457 0.22168,-0.088387 0.295349,-0.133438c0.072754,-0.043297 0.131653,-0.221809 0.058044,-0.2062c-0.073669,0.01384 -0.265869,0 -0.265869,0s0.207825,-0.117828 0.207825,-0.192352s0.028625,-0.192093 0.146423,-0.235397c0.116943,-0.045067 0.116943,-0.01561 0.043335,0.160873c-0.07373,0.17675 0.149048,0.102219 0.236389,0.029465s0.147278,-0.01561 0.308411,-0.117584c0.16272,-0.103973 0.16272,-0.16288 0.251099,-0.16288c0.088379,0 0.251282,0.16288 0.339539,0.103966c0.087463,-0.058907 0.339539,0.072769 0.486816,0.072769c0.146423,0 0.618469,0.192093 0.708496,0.192093c0.088318,0 0.354187,0.102219 0.368958,0.294556c0.014709,0.19062 0.102173,0.176743 0.190613,0.176743s0.295349,0.074524 0.295349,0.147308c0,0.074249 -0.05896,0.368835 0.088318,0.443359c0.146423,0.072754 0.280579,0.190605 0.339539,0.161133c0.058899,-0.029449 0,-0.263329 -0.072754,-0.294548c-0.073669,-0.02948 -0.030396,-0.133469 -0.05896,-0.19239c-0.029419,-0.057129 0.088379,-0.057129 0.132568,0.045082c0.044189,0.102219 0.162903,0.294579 0.23645,0.294579c0.072754,0 0.23645,0.17675 0.190552,0.280731c-0.044189,0.103973 0.044189,0.251007 0.177612,0.251007c0.131592,0 0.294434,0.206207 0.354248,0.221802c0.05896,0.013855 0.132446,0.088379 0.132446,0.131691c0,0.046814 0.073608,0.296318 0.073608,0.3983c0,0.102203 -0.044922,0.516365 -0.059631,0.67926s0.117737,0.441566 0.264954,0.588875c0.146423,0.149055 0.279724,0.429535 0.368103,0.488434c0.090149,0.058929 0.147278,0.220062 0.280579,0.206177c0.132568,-0.015625 0.220947,0.088409 0.339661,0.294556c0.117737,0.207764 0.235535,0.545654 0.324829,0.575104c0.088196,0.029449 0.235474,0.133453 0.16095,0.206207c-0.072754,0.072754 -0.19043,0.235413 -0.057983,0.235413c0.132507,0 0.176758,-0.072784 0.280762,0.060669c0.102173,0.131683 0.235474,0.206207 0.219849,0.296326c-0.014709,0.086609 0.117798,0.116058 0.176758,0.131653c0.059814,0.013885 0.192261,0.280487 0.324768,0.161133c0.133423,-0.117828 -0.175842,-0.292786 -0.264954,-0.36908c-0.089294,-0.072754 0,-0.235657 -0.207153,-0.398285c-0.206909,-0.161133 -0.17749,-0.280731 -0.324707,-0.39856c-0.147339,-0.117889 -0.26416,-0.220093 -0.117859,-0.324036c0.147278,-0.103729 0.162048,0.103943 0.220947,0.235657c0.059753,0.131683 0.368103,0.39856 0.50061,0.516388c0.133362,0.117584 0.370789,0.529968 0.443542,0.529968s0.279724,0.237427 0.279724,0.237427s0.116882,0.190338 0.072754,0.249268c-0.04425,0.058929 0.060486,0.280701 0.163635,0.33963c0.102234,0.058899 0.516235,0.249512 0.575134,0.280731c0.059875,0.029449 0.176697,0.251007 0.339539,0.251007c0.161987,0 0.280579,0.015594 0.324829,0.058899c0.044128,0.043304 0.175781,0.220062 0.265869,0.117828c0.088318,-0.103943 0.102173,-0.147247 0.23645,-0.147247c0.132446,0 0.190552,0.102203 0.26416,0.176727c0.073608,0.072754 0.280701,0.266876 0.383667,0.251282c0.103149,-0.013885 0.236572,0.117554 0.310181,0.072723s0.191345,0.02948 0.24939,0.058929c0.061523,0.02948 0.265869,0.134949 0.252075,0.309937c-0.014771,0.178497 0.116882,0.220062 0.207031,0.265106c0.088379,0.045074 0.206055,0.147308 0.281494,0.221832c0.072754,0.070984 0.233887,0.086609 0.278809,0.131409c0.044189,0.043304 0.073608,0.131653 0.207031,0.058929c0.131714,-0.072784 0.103882,-0.205963 0.103882,-0.205963s0.146423,-0.02948 0.220947,0.029449c0.072754,0.057159 0.117798,0.249237 0.162781,0.280457c0.043274,0.02948 0.130798,0.249542 0.072021,0.410675c-0.058044,0.164642 -0.043457,0.324005 -0.103149,0.324005c-0.058899,0 -0.131653,0.193878 -0.221802,0.237183c-0.086609,0.045044 -0.322998,0.251251 -0.308289,0.325775c0.014771,0.071014 0.148071,0.292572 0.117859,0.396545c-0.028625,0.103973 -0.220032,0.221802 -0.174988,0.382935c0.043335,0.164398 0.354248,0.207672 0.366333,0.355011c0.016479,0.149048 0.237305,0.473083 0.266724,0.620331c0.028564,0.147064 0.279846,0.308197 0.279846,0.514404c0,0.207947 0.354248,0.33963 0.427917,0.353485c0.071899,0.015625 0.206909,0.148773 0.309143,0.193878s0.191467,0.131622 0.264221,0.249481s0.059692,0.296295 0.059692,0.3396c0,0.04483 -0.044189,0.500519 -0.088379,0.765656c-0.044922,0.266602 0.057251,0.472839 -0.030151,0.549103zm-9.527649,-13.716187c0.044128,0.015625 0.133423,0.103729 0.177612,0.103729c0.044922,0 0.264954,0.176743 0.324768,0.235657c0.059692,0.058929 0.059692,0.221832 -0.014709,0.235672s-0.118713,-0.161148 -0.133484,-0.235672c-0.014709,-0.072762 -0.161865,-0.072762 -0.235474,-0.117828c-0.074585,-0.045036 -0.239075,-0.261566 -0.118713,-0.221558zm19.009216,5.927673c-0.163757,0.207977 -0.147278,0.310181 -0.221802,0.325806c-0.072754,0.013855 0.074524,0.072784 0.102234,0.220032c0.025208,0.126404 -0.073669,0.254578 0.071899,0.370605c-0.551758,5.243652 -4.212036,9.57608 -9.100525,11.11087c-0.007751,-0.012085 -0.021606,-0.02771 -0.023376,-0.037994c-0.031189,-0.088409 -0.031189,-0.265137 0.071899,-0.324066c0.103943,-0.058899 0.354187,-0.263336 0.412231,-0.30838c0.058899,-0.04483 0.148193,-0.251038 0.104004,-0.280487c-0.043274,-0.02948 -0.264221,0 -0.295471,-0.043304c-0.029297,-0.045074 -0.029297,-0.105743 0.117798,-0.207947c0.147339,-0.102234 0.221863,-0.251282 0.28064,-0.294586c0.058899,-0.0448 0.175842,-0.133209 0.220947,-0.237152c0.043274,-0.102234 -0.045959,-0.045105 -0.133423,-0.045105s-0.133362,-0.161133 -0.133362,-0.233856s0.22168,0.029419 0.385437,0.058899c0.161926,0.02771 0.087402,-0.074524 0.072815,-0.161133c-0.014771,-0.088379 0.029297,-0.237152 0.118591,-0.193848c0.086548,0.0448 0.543945,-0.013885 0.602783,-0.02948c0.05896,-0.013824 0.220825,-0.278961 0.279785,-0.353485c0.059814,-0.074524 0.072754,-0.147278 0,-0.190582c-0.074402,-0.045074 -0.162781,-0.209473 -0.191345,-0.251251c-0.02948,-0.0466 -0.044189,-0.311707 -0.014709,-0.38623c0.028564,-0.070984 0,0.428009 0.206055,0.488434c0.207947,0.058929 0.324768,0.088348 0.516235,-0.088104c0.1922,-0.176758 0.338623,-0.296356 0.354248,-0.412415c0.014709,-0.117828 0.058899,-0.237427 0.132568,-0.278961c0.074463,-0.045074 0.11853,0.116058 0.206909,-0.074524c0.088379,-0.192108 0.176758,-0.178253 0.265991,-0.339386c0.087402,-0.162903 -0.148132,-0.36908 0.026855,-0.488434c0.178345,-0.116089 0.488403,-0.263336 0.488403,-0.263336s0.088379,-0.045105 0.265137,-0.090149c0.176636,-0.041565 0.368042,-0.015594 0.427002,-0.102203c0.058899,-0.088409 0.11853,-0.278961 0.206909,-0.382965c0.089294,-0.103729 0.191528,-0.264862 0.147339,-0.339355c-0.044189,-0.074524 0.117798,-0.400299 0.103088,-0.486908c-0.014709,-0.088135 -0.147278,-0.296082 0.074402,-0.472839s0.456421,-0.44339 0.472046,-0.514374c0.013855,-0.074524 0.191528,-0.384705 0.174988,-0.533752c-0.013855,-0.145538 -0.174988,-0.322052 -0.278015,-0.368866c-0.104797,-0.041534 -0.324829,-0.055374 -0.413208,-0.174957s-0.339539,-0.235657 -0.42865,-0.206207c-0.087463,0.029449 -0.235657,0.058899 -0.354248,-0.017349c-0.117859,-0.07103 -0.308411,-0.160904 -0.382019,-0.219833c-0.075317,-0.057129 -0.265869,-0.102203 -0.354248,-0.102203s-0.073669,-0.060654 -0.20697,0.117828c-0.132568,0.178268 0,0.237152 -0.235657,0.205948c-0.237305,-0.027679 0.027832,-0.04332 0.162903,-0.220047c0.130798,-0.176483 -0.015625,-0.280487 -0.162903,-0.235413c-0.148071,0.045074 -0.044922,0.133453 -0.28064,0.176758c-0.234741,0.043304 -0.234741,-0.104004 -0.087402,-0.131668c0.147217,-0.029449 0.412231,-0.162918 0.412231,-0.220078c0,-0.060669 -0.02948,-0.223572 -0.148071,-0.223572s-0.088379,-0.145508 -0.26416,-0.33609c-0.177551,-0.193878 -0.398438,-0.311707 -0.576843,-0.284027c-0.174988,0.02948 -0.308411,0.074524 -0.397522,-0.084793c-0.088379,-0.164688 -0.191528,-0.194168 -0.252197,-0.280777c-0.057861,-0.088333 -0.206055,0 -0.250244,-0.045044s-0.044189,-0.043289 -0.044189,-0.043289s-0.192261,0.043289 -0.087524,-0.08992c0.102234,-0.131653 0.146484,-0.382904 0.102234,-0.36908c-0.043274,0.01561 -0.118591,0.223572 -0.191345,0.207947c-0.072021,-0.013824 -0.015625,-0.045044 -0.162842,-0.131638c-0.148193,-0.088394 -0.382813,-0.01561 -0.382813,0.058914c0,0.072723 -0.073669,0.131653 -0.073669,0.131653s-0.044189,-0.041534 -0.088379,-0.131653c-0.045044,-0.088394 -0.25116,-0.104004 -0.354187,-0.015625c-0.102234,0.088348 -0.161926,-0.221832 -0.235596,-0.221832s-0.220032,0.072784 -0.29541,0.207977c-0.071899,0.131683 -0.04248,0.323776 -0.103882,0.309937c-0.057129,-0.015594 -0.071899,-0.264862 -0.057129,-0.35498c0.013855,-0.090149 0.17572,-0.235657 0.057129,-0.265137c-0.116943,-0.029434 -0.294556,0.147308 -0.366455,0.162903c-0.074402,0.013824 -0.22168,0.117844 -0.310059,0.235657c-0.087463,0.117828 -0.131653,0.192078 -0.22168,0.235397c-0.087524,0.04509 -0.219177,0 -0.189697,-0.04332c0.028564,-0.0448 -0.252014,-0.205933 -0.296204,-0.148773c-0.045105,0.058929 -0.175842,0.103973 -0.308411,0.164398c-0.133301,0.058914 -0.252014,-0.074524 -0.28064,-0.133179s-0.089966,-0.072784 -0.103027,-0.265137c-0.014771,-0.190552 0.030273,-0.398529 0.073608,-0.516357c0.043335,-0.117584 -0.22168,-0.353241 -0.324829,-0.339386c-0.103027,0.015625 -0.206909,0.117844 -0.309143,0.102234c-0.103943,-0.01387 -0.058899,-0.043304 -0.220886,-0.043304c-0.162842,0 -0.029419,-0.02771 0,-0.161118c0.028564,-0.131729 -0.058899,-0.310196 0.104004,-0.427811c0.161133,-0.119568 0.103943,-0.400299 0,-0.412369c-0.104004,-0.01738 -0.296265,0.043289 -0.427979,0.02948c-0.131653,-0.01741 -0.235474,0.102188 -0.191406,0.233841c0.044189,0.133469 -0.073486,0.221558 -0.118591,0.207748c-0.044189,-0.01387 -0.102234,-0.08812 -0.265076,0.029434c-0.161072,0.117828 -0.220825,0.072784 -0.382874,-0.058914c-0.161926,-0.133148 -0.339478,-0.264877 -0.368958,-0.471039c-0.029419,-0.207993 -0.045044,-0.41391 0.014709,-0.531754c0.058044,-0.117828 0.058044,-0.324036 -0.02948,-0.355255c-0.088379,-0.02771 0.102234,-0.174973 0.205383,-0.204422c0.104736,-0.029449 0.265869,-0.162659 0.295349,-0.221573c0.029419,-0.058929 0.176758,-0.045074 0.338623,-0.045074c0.161987,0 0.191406,0 0.354248,0.088379c0.161987,0.088379 0.191406,-0.045074 0.191406,-0.088379c0,-0.045074 0.05896,-0.133484 0.23645,-0.117874c0.176697,0.013901 0.426208,-0.058899 0.472046,-0.01561s0.131653,0.221863 0.220032,0.162933c0.090027,-0.058884 0.118591,-0.162933 0.148987,0.015625c0.028503,0.176483 0.102173,0.443359 0.23645,0.486664c0.131592,0.04509 0.05896,0.220078 0.190552,0.235657c0.129883,0.013824 0.193176,-0.278961 0.148071,-0.382919c-0.045044,-0.102249 -0.133423,-0.41214 -0.207031,-0.48674c-0.072632,-0.072678 -0.072632,-0.265076 0.072021,-0.323959c0.14801,-0.058929 0.502258,-0.353317 0.604492,-0.44162c0.104004,-0.090149 0.383667,-0.162949 0.296143,-0.280777c-0.088318,-0.119553 -0.117798,-0.192345 -0.117798,-0.280701s0.088379,-0.058899 0.132568,0s0.220093,-0.088097 0.175842,-0.162628c-0.043274,-0.072807 -0.02948,-0.17672 0.073669,-0.162903c0.103882,0.015633 0.131714,-0.072746 0.089111,-0.131676c-0.044922,-0.060661 0.103149,-0.133423 0.206238,-0.103973c0.104736,0.029442 0.368958,-0.015594 0.413147,-0.074524c0.043335,-0.058907 -0.088379,-0.117836 -0.088379,-0.235405c0,-0.117821 0.175842,-0.221779 0.280579,-0.235672c0.103088,-0.015587 0.234802,0 0.250427,-0.045029c0.013794,-0.04332 0.16272,-0.16291 0.175842,-0.058907c0.016357,0.103935 0,0.280701 0.118591,0.280701c0.117798,0 0.263306,-0.133438 0.30835,-0.147285c0.043335,-0.013847 0.324829,-0.072769 0.383728,-0.088379c0.059692,-0.013817 0.412292,-0.043297 0.368958,-0.14727c-0.044189,-0.102211 -0.088379,-0.2062 -0.133423,-0.249519c-0.044189,-0.045036 -0.087463,0.01387 -0.148071,0.088379c-0.057983,0.074532 -0.161987,0.074532 -0.190552,0.015633c-0.02948,-0.058922 0.013855,-0.235657 -0.088379,-0.17852c-0.104858,0.058922 -0.117798,0.117828 -0.178345,0.088379c-0.05896,-0.029457 -0.116943,-0.131699 -0.116943,-0.131699s0.146362,-0.072746 0.043274,-0.207703c-0.102234,-0.131668 -0.251282,-0.102196 -0.397522,-0.027679c-0.147278,0.072762 -0.134338,0.058899 -0.310059,0.102211s-0.265137,0.088371 -0.265137,0.088371s0.237305,-0.145523 0.338623,-0.235649c0.104004,-0.088371 0.237427,-0.133461 0.324829,-0.221802c0.089233,-0.088379 0.323975,0.045052 0.323975,0.045052s0.119507,-0.119583 0.119507,-0.045052s-0.031128,0.265099 0.057129,0.265099c0.090088,0 0.3396,-0.117828 0.239075,-0.147278c-0.105652,-0.02948 0.146423,0 0.248596,-0.074516c0.104004,-0.074524 0.220032,-0.074524 0.279724,-0.102234c0.059814,-0.029449 0.104858,-0.16291 0.207092,-0.16291c0.104736,0 0.147278,0.133461 0,0.221832s-0.161987,0.310188 -0.236572,0.36908c-0.072632,0.058929 -0.029297,0.133179 0.089294,0.117592c0.117798,-0.013863 0.220032,0.015587 0.323914,-0.013863s0.162842,0.029449 0.191406,0.072769c0.029541,0.045059 0.117859,-0.04332 0.117859,-0.04332s0.191345,-0.0448 0.25116,0.02948c0.059814,0.072762 0.103943,-0.045067 0.059814,-0.117577c-0.04425,-0.072762 -0.104004,-0.147285 -0.147339,-0.237434c-0.044128,-0.088379 -0.103821,-0.117828 -0.220764,-0.088379c-0.117859,0.02948 -0.147278,-0.029449 -0.220947,-0.072746c-0.073669,-0.045067 -0.134216,0.058929 -0.073669,-0.045067c0.059814,-0.102219 0.088379,-0.133438 0.132568,-0.221817c0.044189,-0.088097 0.237305,-0.250999 0.044189,-0.292572c-0.191467,-0.046806 -0.252014,-0.074509 -0.280579,-0.162888c-0.02948,-0.088371 -0.250366,-0.251266 -0.308411,-0.251266c-0.060547,0 -0.265015,0 -0.28064,-0.074524c-0.014709,-0.072746 -0.161987,-0.235382 -0.236389,-0.309921c-0.071899,-0.072769 -0.353455,-0.39856 -0.398376,-0.428009c-0.044189,-0.029449 -0.103149,-0.01384 -0.235718,0.162888c-0.131653,0.178513 -0.250244,0.207962 -0.354187,0.162903c-0.103088,-0.043312 -0.117859,-0.029449 -0.219177,-0.147293c-0.105591,-0.117828 0.102173,-0.131668 0.058044,-0.206177c-0.045837,-0.072769 -0.280579,-0.103996 -0.427917,-0.117821c-0.148071,-0.01561 -0.251099,-0.176521 -0.472839,-0.192131c-0.220032,-0.013817 -0.485901,0.02948 -0.559509,0.02948c-0.072754,0 -0.072754,0.103729 -0.102234,0.264862c-0.030334,0.162888 0.102234,0.207947 -0.030334,0.237396c-0.131714,0.029472 -0.192261,0.043304 -0.05896,0.102234c0.132568,0.060677 0.309326,0.296059 0.309326,0.296059s0,0.131691 -0.104004,0.2062c-0.102173,0.074539 -0.206909,0.147278 -0.265015,0.060669c-0.059692,-0.090118 -0.220886,-0.074509 -0.175781,0.01387c0.043274,0.088371 0.131653,0.133446 0.131653,0.221825c0,0.088356 0.133301,0.308167 0.044128,0.38269c-0.088318,0.074516 -0.190552,0.015587 -0.26416,0.029457s-0.148926,-0.117836 -0.088379,-0.147293c0.057983,-0.02948 -0.016357,-0.251038 -0.016357,-0.251038s-0.175903,0.251038 -0.162048,0.117828c0.015625,-0.133415 -0.072754,-0.147278 -0.072754,-0.251259c0,-0.102211 -0.089233,-0.147301 -0.220032,-0.117821c-0.134216,0.029442 -0.295349,-0.045074 -0.547363,-0.090149c-0.249512,-0.043289 -0.353333,-0.072769 -0.559509,-0.176498c-0.20697,-0.102211 -0.28064,-0.029434 -0.383728,-0.014084c-0.103149,0.014084 -0.058899,-0.207695 -0.192261,-0.235397c-0.131653,-0.031219 -0.205261,0.027702 -0.234741,-0.162903c-0.029419,-0.190567 0.044189,-0.237396 0.368103,-0.443336c0.324768,-0.2062 0.279846,-0.294563 0.531006,-0.324043c0.250244,-0.029427 0.368896,0.02948 0.368896,-0.045059s0.058899,-0.368851 0.058899,-0.221817s0.298035,0.157608 0.163696,0.259827c-0.131714,0.104004 -0.05896,0.117836 0.045044,0.117836c0.104004,0 0.294495,-0.102226 0.294495,-0.102226s0.236511,-0.103729 0.29541,-0.01561c0.059631,0.088394 0.059631,0.178535 0.162781,0.178535s0.323853,-0.119621 0.132568,-0.221825c-0.191467,-0.103729 -0.309204,-0.08812 -0.427002,-0.207718s-0.089233,-0.072769 -0.221802,-0.04332c-0.131531,0.02948 -0.131531,-0.045059 -0.176636,-0.045059s-0.118713,0.029449 -0.148193,-0.029465c-0.028564,-0.058899 0.016541,-0.072739 0.164673,-0.072739c0.146301,0 0.323914,0.043289 0.323914,0.043289s0.175842,-0.058899 0.21991,-0.072769c0.044189,-0.01561 0.280701,-0.045059 0.236572,-0.176727c-0.046021,-0.133438 -0.192383,-0.133438 -0.236572,-0.176743s0.088379,-0.102226 0.162903,-0.133179c0.073669,-0.029457 0.279724,0 0.279724,0s0.133423,0.01535 0.133423,-0.04332s-0.032104,-0.133438 0.058044,-0.088356s0,0.176483 0.132507,0.147026c0.131592,-0.029198 0.161926,0 0.23468,0.043297c0.073669,0.045082 -0.014709,0.221817 -0.087463,0.251274c-0.073669,0.027679 -0.191345,0.088356 -0.029419,0.102219c0.163696,0.01561 0.279785,0.01561 0.279785,0.01561s0.103882,-0.102219 0.148071,-0.190598c0.043274,-0.090134 0.118713,-0.031204 0.175842,0c0.059814,0.027702 0.280579,0.072769 0.074524,0.131668c-0.207947,0.058929 -0.251221,0.133438 -0.295471,0.206207c-0.043274,0.074524 -0.060486,0.119583 -0.251099,0.074524c-0.193115,-0.045067 -0.295349,-0.029457 -0.339539,0.045059c-0.044189,0.072769 -0.014709,0.309937 0.060669,0.278717c0.070984,-0.029434 0.14624,-0.029434 0.234619,-0.058899c0.088379,-0.029465 0.442627,0.029465 0.530151,0.01561c0.088379,-0.01561 0.237305,0.147293 0.281494,0.117813c0.044189,-0.029434 0.133423,0.058922 0.220947,0.117828c0.088318,0.058899 0.058838,-0.13166 0.21991,-0.013832c0.163757,0.117821 0.073608,0.117821 0.163757,0.117821c0.085693,0 0.278809,0.013824 0.278809,0.013824s0.015625,-0.145493 0.163818,-0.117813c0.147095,0.029457 0.277954,0.192337 0.263184,0.072769c-0.013794,-0.116058 0.014771,-0.20443 -0.102173,-0.294556c-0.117737,-0.088394 -0.309204,-0.147049 -0.339539,-0.190353c-0.02948,-0.045067 -0.058899,-0.103989 -0.014709,-0.133446c0.044189,-0.027702 0.251221,0.01561 0.368042,0.090134c0.117859,0.072762 0.220947,0.147034 0.309326,0.08812c0.087463,-0.058907 0.193115,-0.08812 0.236389,-0.133179c0.043335,-0.045074 0.147278,-0.17675 0.147278,-0.17675s-0.443481,-0.057159 -0.50061,-0.133438c-0.059814,-0.072746 -0.266785,-0.176727 -0.325684,-0.176727s-0.220032,0.103981 -0.278931,-0.043304s-0.058777,-0.325546 -0.119507,-0.339401c-0.056274,-0.01561 -0.677368,-0.103973 -0.764709,-0.14904c-0.088379,-0.043297 -0.442688,-0.147285 -0.576111,-0.220055s-0.324768,-0.17849 -0.44165,-0.17849c-0.117859,0 -0.604675,0.058899 -0.693787,0.045067c-0.088379,-0.01561 -0.353333,0.029449 -0.457336,0.043289c-0.103149,0.015625 0.133423,0.207962 -0.087524,0.251274c-0.220764,0.045059 -0.191406,0.074516 -0.147278,-0.147285c0.043335,-0.221817 -0.148865,-0.280464 -0.339478,-0.192345c-0.191345,0.088356 -0.501526,0.14904 -0.427917,0.251259c0.073669,0.103989 -0.013794,0.178497 0.132568,0.280716c0.148193,0.103996 0.207825,0.133453 0.397583,0.117836c0.193115,-0.01384 0.384521,0.029449 0.384521,0.029449s0,0.176506 -0.072754,0.205956c-0.073608,0.029449 -0.191406,0.029449 -0.221619,0.117828c-0.028625,0.088364 -0.176758,0.133423 -0.176758,0.088364s0.074524,-0.192352 -0.02948,-0.265106c-0.102173,-0.074265 -0.132568,-0.088127 -0.250244,-0.015617c-0.118774,0.074532 -0.131714,0.103981 -0.192383,-0.01384c-0.058899,-0.117584 -0.235535,-0.221565 -0.235535,-0.221565s-0.118652,-0.147278 -0.207031,-0.220032c-0.087524,-0.074539 -0.249451,-0.058929 -0.265869,0.01384c-0.014771,0.072769 0.02948,0.147278 0.088379,0.280724c0.059753,0.133179 0.118591,0.38269 0.015564,0.3983c-0.103943,0.015617 -0.118713,0.029449 -0.221802,0.058907c-0.102966,0.029449 -0.147217,-0.043289 -0.147217,-0.161133s-0.045898,-0.221794 -0.014648,-0.266617c0.029419,-0.043297 -0.118774,0.03096 -0.265991,0c-0.148071,-0.027946 -0.265015,0.058907 -0.118652,0.105499c0.148071,0.043289 0.178467,0.220032 0.045105,0.263344c-0.133484,0.045067 -0.634949,0 -0.797729,0s-0.39679,0.045067 -0.442566,-0.043312c-0.04425,-0.088371 0.134155,-0.147278 0.236389,-0.147278c0.103088,0 0.412231,0.013847 0.53009,-0.147293c0.117798,-0.162643 -0.147339,-0.192101 -0.264221,-0.192101c-0.118591,0 -0.207886,-0.043297 -0.339539,-0.17498c-0.134216,-0.133423 0.088379,-0.221802 0.058899,-0.280716c-0.02948,-0.058907 -0.17749,-0.01561 -0.309143,-0.01561c-0.132568,0 -0.339478,-0.102226 -0.339478,0.01561c0,0.117828 0.16272,0.455696 0.059631,0.382935c-0.103882,-0.072762 -0.089111,-0.178497 -0.162781,-0.266869c-0.073608,-0.088379 -0.190613,-0.072762 -0.339478,-0.058922c-0.146484,0.01561 -0.396729,0.058922 -0.471252,0.045082c-0.072754,-0.015617 -0.014709,-0.015617 -0.176697,-0.088371c-0.161011,-0.074539 -0.23645,-0.058929 -0.354248,-0.133438c-0.116943,-0.076042 -0.013855,-0.103752 -0.219971,-0.119347c-0.206177,-0.013847 -0.191406,0.102226 -0.397644,0.074516c-0.20697,-0.029449 -0.265869,0.013847 -0.471924,0c-0.207092,-0.01561 -0.309265,-0.029449 -0.339539,0.07251c-0.028687,0.103989 -0.089233,0.280731 -0.177612,0.280731c-0.087524,0 -0.191467,0.103989 0.088379,0.117828c0.28064,0.01561 0.119507,0.147278 0.368958,0.133438c0.25116,-0.01561 0.472961,-0.01561 0.531738,-0.133438c0.058899,-0.117828 0.103088,-0.117828 0.132568,-0.072769c0.028564,0.043312 0.250366,0.308434 0.250366,0.308434s0.14801,0.117813 0.20697,0.147285c0.058044,0.029449 -0.05896,0.162628 -0.176758,0.088112c-0.117676,-0.072762 -0.339478,-0.057152 -0.427856,-0.131432c-0.088257,-0.072762 -0.486694,-0.072762 -0.590698,-0.058922c-0.102173,0.015633 -0.279663,-0.043289 -0.339478,-0.043289c-0.057129,0 -0.250366,0.147041 -0.250366,0.147041s-0.073547,-0.119362 -0.116821,-0.178253c-0.044189,-0.058929 -0.118774,0.058891 -0.177612,0.074501c-0.05896,0.013863 -0.235535,-0.119576 -0.413208,-0.060661c-0.176575,0.060661 -0.117798,0.119583 -0.368958,0.103973s-0.308289,-0.058922 -0.397522,-0.043312c-0.089233,0.013863 -0.089233,0.013863 -0.089233,0.013863s0.014709,0.058907 -0.087524,0.117828c-0.102966,0.058662 -0.178345,0.133179 -0.252014,0.044815c-0.072754,-0.088127 -0.116943,-0.088127 -0.161133,-0.103737c-0.045837,-0.013847 -0.134216,-0.088379 -0.324768,-0.045067c-0.192261,0.045067 -0.486816,-0.057137 -0.544861,-0.057137c-0.045837,0 -0.355042,-0.01738 -0.557678,-0.038277c2.394897,-2.601799 5.816956,-4.24585 9.625488,-4.24585c2.415527,0 4.673584,0.668701 6.618103,1.813751c-0.132568,0.081573 -0.362061,0.067719 -0.440857,0.02594c-0.088379,-0.04834 -0.17926,-0.088379 -0.538818,-0.069252c-0.360229,0.020912 -0.755249,0.138725 -0.675598,0.256317c0.081482,0.117813 -0.161011,0.187309 -0.22345,0.128387c-0.062317,-0.058914 -0.350708,0.069237 -0.332581,0.188828c0.01825,0.117592 -0.044189,0.254539 -0.199158,0.22509c-0.15155,-0.031219 -0.259827,0.067474 -0.268494,0.166412c-0.007813,0.098709 -0.35083,0.166168 -0.37677,0.166168c-0.02771,0 -0.467773,-0.00856 -0.306641,0.107513c0.109985,0.077805 0.1698,0.031219 0.306641,0.058914c0.135071,0.029442 0.242432,0.245972 0.314331,0.276947c0.070251,0.029465 0.1698,0 0.213989,-0.060425c0.045837,-0.058922 0.108276,-0.265121 0.108276,-0.265121s0,0.195633 0.109985,0.235664c0.108276,0.039787 0.375916,-0.029465 0.44873,-0.019135c0.072693,0.010323 0.496216,0.069229 0.610474,0.128151c0.117798,0.058914 0.404602,0.098694 0.485962,0.225342c0.080566,0.128143 0.091003,0.57151 0.135132,0.620102c0.044983,0.04834 0.197388,-0.157623 0.233032,-0.2062c0.034668,-0.050354 0.224365,-0.020905 0.287537,0.046837c0.064026,0.069229 0.20697,0.235641 0.199158,0.304878c-0.01123,0.070999 -0.037231,0.178261 -0.090881,0.138481c-0.054626,-0.038017 -0.143738,-0.027702 -0.109192,-0.107262c0.036438,-0.078049 0.054565,-0.245979 -0.016479,-0.245979c-0.072754,0 -0.13501,0 -0.13501,0s-0.136841,-0.040024 -0.226135,0.107262s-0.017395,0.296333 0.045105,0.296333s0.20874,0 0.20874,0.03801c0,0.039787 -0.154236,0.157608 -0.144653,0.226837c0.009521,0.069489 0.124756,0.304901 0.162842,0.3535c0.035522,0.050354 0.224365,0.098694 0.2771,0.109009c0.055542,0.010574 -0.125488,0.01915 -0.079712,0.088394c0.045959,0.069489 0.116089,0.235634 0.214905,0.275414c0.098694,0.040016 0.378357,0.216515 0.412292,0.294563c0.036377,0.079803 0.252014,-0.058907 0.297058,-0.069229c0.045837,-0.00882 0.036377,0.207718 0.162781,0.218277c0.124756,0.00856 0.1698,-0.020905 0.278076,-0.109268s0.081421,-0.207718 0.089233,-0.296059c0.010315,-0.088371 0,-0.155861 0.118591,-0.128151c0.117859,0.029457 0.17926,-0.020889 0.169861,-0.117836c-0.008728,-0.098701 -0.107422,-0.216515 0.079651,-0.245987c0.189758,-0.029457 0.288391,-0.157616 0.405334,-0.157616c0.116943,0 0.441772,0.05011 0.475464,0c0.036377,-0.048584 0.189697,-0.275421 0.288452,-0.284241c0.076294,-0.008553 0.254639,-0.02417 0.437439,-0.04834c1.795471,2.141029 2.906799,4.864182 3.034058,7.840103c-0.133423,0.180267 -0.013,0.346436 0.024292,0.462524c0.000916,0.03476 0.005188,0.065979 0.005188,0.100433c0,0.154358 -0.018311,0.304932 -0.023438,0.459229c-0.000854,0.001801 -0.000854,0.00354 -0.003418,0.005035zm-11.030396,-4.911049c-0.072632,0.015617 -0.1922,-0.058876 -0.1922,-0.160843s-0.103149,0.190323 -0.045044,0.280479c0.059753,0.088348 -0.117737,0.190567 -0.17572,0.190567s-0.103149,-0.131668 -0.088379,-0.263367c0.015564,-0.133415 -0.087524,-0.250992 -0.251282,-0.237137c-0.161926,0.015594 -0.236389,0.147003 -0.294495,0.192101c-0.059753,0.045036 -0.059753,0.294563 -0.045044,0.353493s0.014771,0.268372 -0.131714,0.251251c-0.134155,-0.013863 -0.104736,-0.263344 -0.089966,-0.353493c0.016479,-0.088371 -0.044189,-0.310158 0.016479,-0.427757c0.059692,-0.117828 0.234619,-0.161133 0.354248,-0.176727s0.367188,0.074524 0.412292,0.058899c0.045044,-0.015594 0.252014,-0.015594 0.353333,0c0.104004,0.012085 0.250244,0.278717 0.17749,0.292534zm0.264282,0.045097c0.045898,0.029434 0.353271,-0.045097 0.413086,0.029434c0.058044,0.074524 -0.060669,0.088409 -0.206909,0.147308c-0.146423,0.058922 -0.192383,0.045044 -0.251282,0.117821s-0.25116,0.102211 -0.339539,0.19059c-0.088379,0.090134 -0.245972,0.141991 -0.278809,0.074524c-0.045959,-0.088379 0.014709,-0.045074 0.02771,-0.088379c0.014709,-0.045074 0.277954,-0.147285 0.277954,-0.147285s0.313538,-0.353493 0.357788,-0.324013zm-1.178833,-0.516113c-0.043274,0.01384 -0.207092,-0.029457 -0.341309,-0.029457c-0.131653,0 -0.103027,-0.088387 -0.161987,-0.072762c-0.058044,0.013824 -0.19043,0.043304 -0.280579,0.088348c-0.088379,0.043297 -0.236389,0.034737 -0.236389,-0.045044c0,-0.117828 0.059631,-0.088379 0.25116,-0.162903c0.1922,-0.074547 0.400146,-0.280487 0.486755,-0.192093c0.089111,0.08812 0.25116,0.192093 0.354248,0.205933c0.104736,0.01738 -0.02948,0.192368 -0.071899,0.207977l0,0zm-1.508789,-4.576668c-0.090088,0.029449 -0.394226,0.1576 -0.364746,0.225075c0.011353,0.026169 0.088379,0.079811 0.215759,0.058899c0.128113,-0.018875 0.313416,-0.03801 0.402771,-0.04834c0.088318,-0.010559 0.108215,-0.157593 0.010376,-0.166405c-0.098755,-0.010323 -0.177612,-0.098701 -0.26416,-0.069229zm-1.09137,0.117821c-0.069336,0.029449 -0.276306,-0.048592 -0.383728,0.020645c-0.069336,0.043304 -0.029419,0.185555 0.079773,0.195885c0.107361,0.010307 0.293518,-0.069252 0.312683,-0.01033c0.020752,0.05867 0.089111,0.325523 0.265869,0.23716c0.17749,-0.088371 0.167175,-0.167923 0.215576,-0.17849c0.049377,-0.00856 -0.008667,-0.22509 -0.088379,-0.275444c-0.077881,-0.04834 -0.333374,-0.01889 -0.401794,0.010574zm-0.355042,-0.835114c0.018921,0.050339 -0.009644,0.088364 0.128113,0.107498c0.13678,0.020889 0.196594,0.039772 0.275452,0.039772c0.078796,0 0.047546,-0.128151 -0.019897,-0.216507c-0.069397,-0.088387 -0.049377,-0.077812 -0.226074,-0.128166c-0.17749,-0.048584 -0.354248,-0.048584 -0.472107,-0.03978c-0.118591,0.01033 -0.246887,-0.019135 -0.276306,0.119591c-0.014771,0.069252 0.079712,0.126389 0.19751,0.126389s0.373413,-0.057137 0.393311,-0.008797zm0.256226,0.540543c0.048584,0.107506 0.048584,0.057144 0.187195,0.069229c0.135925,0.010582 0.244202,-0.138474 0.254578,-0.18705c0.010437,-0.05011 -0.069275,-0.147301 -0.255432,-0.128159c-0.187195,0.019127 -0.75708,-0.029449 -0.835876,0.03801c-0.074524,0.065964 0,0.265114 -0.029419,0.286011c-0.02948,0.018883 0.010376,0.107269 0.087402,0.088387c0.078003,-0.01915 0.117859,-0.206207 0.178467,-0.206207c0.058838,0 0.364624,-0.069244 0.413086,0.03978zm-1.849121,-0.403595c0.058899,0.048599 0.207886,0.00856 0.196655,-0.03978c-0.009583,-0.048584 0.059631,-0.245964 -0.058044,-0.254791c-0.118713,-0.01033 -0.284119,0.109283 -0.462646,0.168182c-0.114319,0.036255 -0.088196,0.147278 -0.010315,0.147278s0.276367,-0.069473 0.334351,-0.020889zm0.837524,0.176743c-0.098694,0.050102 -0.129028,0.079559 -0.216492,0.058922c-0.089294,-0.019135 -0.089294,-0.17675 -0.246887,-0.147285c-0.156738,0.029457 -0.186157,0.117836 -0.234741,0.157616s-0.157593,0.069229 -0.196533,0.048576c-0.038147,-0.019119 -0.265137,-0.145515 -0.265137,-0.145515s-0.4729,-0.020889 -0.491943,-0.079811c-0.018982,-0.058922 -0.097778,-0.155853 -0.314453,-0.136703s-0.590698,0.147034 -0.649597,0.147034c-0.058899,0 0.070129,0.117828 -0.010315,0.117828c-0.078064,0 -0.175903,-0.00856 -0.205322,0.078049c-0.019897,0.060661 0.088379,0.058899 0.214722,0.058899c0.127441,0 0.335266,0 0.394165,-0.029449c0.05896,-0.029449 0.354248,-0.098686 0.343811,-0.01033c-0.010315,0.089882 0.117859,0.226852 0.18634,0.207718c0.069214,-0.018883 0.207764,-0.147278 0.275452,-0.098686c0.069214,0.050346 0.079651,0.16642 0.14801,0.19738c0.069336,0.027939 0.256409,0.027939 0.344788,0c0.087524,-0.03096 0.33429,-0.03096 0.441772,-0.01033c0.108215,0.020912 0.423462,0.078049 0.452942,0.020912c0.029419,-0.060684 0.117798,-0.069244 0.12738,-0.128159s0.057983,-0.245972 0.057983,-0.245972s-0.057983,-0.109268 -0.155945,-0.060692zm4.978638,10.168488c-0.135254,0.02417 -0.104004,0.287506 0.058838,0.238953c0.161926,-0.04834 0.074463,-0.263367 -0.058838,-0.238953zm1.282715,-0.351715c-0.118652,-0.02948 -0.251221,0 -0.3396,0.015625c-0.088257,0.013824 -0.339478,0.235657 -0.339478,0.235657s0.161987,0.029419 0.26416,0.029419c0.104736,0 0.163696,0.058929 0.251221,0.102234c0.088318,0.045074 0.251221,-0.058929 0.30835,-0.058929c0.060547,0 0.134216,0.176758 0.148926,-0.015594c0.016479,-0.190582 -0.175842,-0.278961 -0.293579,-0.308411zm-4.108948,-9.560471c-0.048523,-0.117821 -0.293762,-0.157616 -0.344849,-0.03978c-0.043274,0.102219 0.394226,0.157608 0.344849,0.03978zm2.812317,8.83812c0.161926,-0.029449 0.072815,-0.164673 -0.060669,-0.147278c-0.133423,0.013824 -0.103027,0.176758 0.060669,0.147278zm1.960083,0.911194c-0.135071,0.02417 -0.104004,0.287506 0.057983,0.239166c0.163696,-0.046814 0.075439,-0.263336 -0.057983,-0.239166zm-1.785156,-0.440125c-0.102112,0.015625 -0.323975,-0.102203 -0.441772,-0.205933c-0.117676,-0.104004 -0.339478,-0.104004 -0.427734,-0.104004c-0.087463,0 -0.442627,0.104004 -0.442627,0.104004c-0.015625,0.147034 0.132446,0.103729 0.309204,0.103729s0.487671,-0.029205 0.543945,0.043304c0.060547,0.072754 0.324768,0.190582 0.400146,0.251282c0.071899,0.058899 0.30835,0.074524 0.322998,0.015594s-0.161133,-0.221832 -0.26416,-0.207977zm-1.759155,-9.416679c-0.147156,-0.01033 -0.334351,-0.01033 -0.452881,0c-0.117859,0.008797 -0.206177,-0.079559 -0.294495,-0.129929c-0.087463,-0.04834 -0.284973,-0.20594 -0.401917,-0.225075c-0.118774,-0.019135 -0.097839,-0.019135 -0.344666,-0.078049c-0.124817,-0.03096 -0.333496,-0.069229 -0.333496,-0.098686c0,-0.029472 -0.058899,0.13871 0.049316,0.18882c0.107422,0.048599 0.28418,0.136971 0.411438,0.18531c0.129883,0.048584 0.374146,0.058899 0.452881,0.157608c0.078979,0.09893 0.343933,0.176735 0.343933,0.176735l0.314453,0.029457c0,0 0.217468,-0.04834 0.44342,-0.029457c0.226074,0.020897 0.55957,0.050354 0.747437,0.040024c0.185486,-0.008797 0.214966,-0.069489 0.236572,-0.107498c0.018127,-0.03978 -0.344788,-0.117821 -0.434814,-0.107513c-0.086548,0.00705 -0.590759,0.00705 -0.737183,-0.001747zm0.549988,2.260628c-0.038879,0.045074 0.178528,0.107513 0.216492,0.048599c0.039063,-0.057159 -0.115845,-0.155846 -0.216492,-0.048599zm0.660889,0.206207c0.097107,-0.03978 0.048523,-0.157608 -0.089966,-0.119614c-0.15686,0.046829 -0.010498,0.159378 0.089966,0.119614z" stroke-width="null" stroke-opacity="null" stroke="null" fill-opacity="null" fill="#ff0000" id="svg_68"/>
  <text xml:space="preserve" y="277.5396" x="256.4584" text-anchor="start" stroke-width="0" stroke-opacity="null" stroke="null" fill-opacity="null" fill="#000000" font-size="14px" font-family="Helvetica,Arial,sans-serif" id="svg_69">IBKR</text>
  <path d="m318.056152,245.049866c0.068726,-4.913208 -0.044617,-9.832947 0.572693,-14.737396c15.180115,1.613129 30.181091,4.25322 45.105286,6.627029c0.801636,-2.409058 0.424561,-4.407425 1.120361,-6.634796c9.587891,4.686935 19.089783,9.440872 28.20166,14.421066c-8.742126,5.649246 -18.769409,10.555344 -28.613647,15.578918c-0.319275,-2.339478 -0.63855,-4.678818 -0.957764,-7.018509c-14.508362,2.263397 -29.8526,4.60347 -44.455811,6.672623c-0.99292,-4.774521 -0.963623,-9.973801 -0.972778,-14.908936l0,0z" stroke-width="null" stroke-opacity="null" stroke="null" fill-opacity="null" fill="#ff0000" id="svg_71"/>
  <text xml:space="preserve" y="603.2104" x="14.1713" text-anchor="start" stroke-width="0" stroke="#000000" fill="#000000" font-size="18px" font-family="Helvetica,Arial,sans-serif" id="svg_72">Puts only</text>
  <text xml:space="preserve" y="580.2104" x="14.1713" text-anchor="start" stroke-width="0" stroke="#000000" fill="#000000" font-size="18px" font-family="Helvetica,Arial,sans-serif" id="svg_73">None</text>
  <!-- Created with Method Draw - http://github.com/duopixel/Method-Draw/ -->
  <g id="svg_85">
   <g transform="matrix(0.398932, 0, 0, 0.398932, 138.775, 703.04)" id="svg_83">
    <title>background</title>
    <rect height="106" width="74" y="-1210.43" x="299.076" fill="#fff" id="svg_81"/>
   </g>
   <g transform="matrix(0.398932, 0, 0, 0.398932, 138.775, 703.04)" id="svg_84">
    <title>Layer 1</title>
    <g id="svg_77">
     <ellipse ry="16.5" rx="16.5" cy="-1142.91" cx="351.836" stroke-width="1.5" stroke="#ff0000" fill="#ff0000" id="svg_80"/>
     <path d="m355.340332,-1206.40564l-51.5,57.72998l0,42l51.5,-99.72998z" stroke-width="1.5" stroke="#ff0000" fill="#ff0000" id="svg_79"/>
     <path d="m320.590332,-1139.15564l33.5,31.72998l-51,0l17.5,-31.72998z" stroke-width="1.5" stroke="#bf0000" fill="#bf0000" id="svg_78"/>
    </g>
   </g>
  </g>
  <path d="m486.723633,574.483643c0.036865,-4.547668 -0.022583,-9.100098 0.298706,-13.639465c7.893433,1.493103 15.693848,3.936523 23.455078,6.133606c0.415405,-2.229797 0.220215,-4.079346 0.582031,-6.140747c4.985596,4.337646 9.926025,8.737732 14.664185,13.34668c-4.546509,5.227905 -9.76062,9.768433 -14.879639,14.417908c-0.165405,-2.164917 -0.330811,-4.330505 -0.496338,-6.495422c-7.545776,2.094727 -15.52356,4.260864 -23.118164,6.175293c-0.515381,-4.418579 -0.501099,-9.230469 -0.505859,-13.797852l0,0z" transform="rotate(90 506.224 574.719)" stroke-width="0" stroke="#000" fill="#ff0000" id="svg_86"/>
  <path d="m692.05603,492.265015c0.06897,-4.913025 -0.044006,-9.833038 0.572998,-14.738007c15.179993,1.613007 30.180969,4.253998 45.10498,6.626984c0.802002,-2.408997 0.424988,-4.406982 1.119995,-6.634003c9.588013,4.687012 19.089966,9.440002 28.202026,14.42099c-8.742004,5.649017 -18.769043,10.554993 -28.613037,15.579041c-0.320007,-2.340027 -0.638977,-4.679016 -0.958008,-7.019043c-14.508972,2.263 -29.852966,4.604004 -44.455994,6.673035c-0.992981,-4.775024 -0.963989,-9.973999 -0.972961,-14.908997l0,0z" stroke-width="null" stroke-opacity="null" stroke="null" fill-opacity="null" fill="#ff0000" id="svg_87"/>
  <text xml:space="preserve" y="163.5396" x="258.4584" text-anchor="start" stroke-width="0" stroke-opacity="null" stroke="null" fill-opacity="null" fill="#000000" font-size="14px" font-family="Helvetica,Arial,sans-serif" id="svg_88">Web</text>
  <path d="m486.723633,196.483673c0.036865,-4.547699 -0.022583,-9.100143 0.298706,-13.639511c7.893433,1.493088 15.693848,3.936539 23.455078,6.133606c0.415405,-2.229797 0.220215,-4.079346 0.582031,-6.140747c4.985596,4.337631 9.926025,8.737732 14.664185,13.346725c-4.546509,5.227875 -9.76062,9.768433 -14.879639,14.417892c-0.165405,-2.164948 -0.330811,-4.33049 -0.496338,-6.495438c-7.545776,2.094727 -15.52356,4.260864 -23.118164,6.175278c-0.515381,-4.418564 -0.501099,-9.230484 -0.505859,-13.797806l0,0z" transform="rotate(90 506.224 196.719)" stroke-width="0" stroke="#000" fill="#ff0000" id="svg_89"/>
  <path d="m486.723633,323.483673c0.036865,-4.547699 -0.022583,-9.100128 0.298706,-13.639496c7.893433,1.493073 15.693848,3.936523 23.455078,6.133606c0.415405,-2.229797 0.220215,-4.079346 0.582031,-6.140747c4.985596,4.337616 9.926025,8.737732 14.664185,13.34671c-4.546509,5.227875 -9.76062,9.768433 -14.879639,14.417877c-0.165405,-2.164917 -0.330811,-4.330475 -0.496338,-6.495422c-7.545776,2.094727 -15.52356,4.260864 -23.118164,6.175293c-0.515381,-4.418579 -0.501099,-9.230499 -0.505859,-13.797821l0,0z" transform="rotate(90 506.223 323.719)" stroke-width="0" stroke="#000" fill="#ff0000" id="svg_90"/>
  <path d="m486.723633,450.483673c0.036865,-4.547699 -0.022583,-9.100128 0.298706,-13.639496c7.893433,1.493073 15.693848,3.936523 23.455078,6.133606c0.415405,-2.229797 0.220215,-4.079346 0.582031,-6.140747c4.985596,4.337616 9.926025,8.737732 14.664185,13.34671c-4.546509,5.227875 -9.76062,9.768433 -14.879639,14.417877c-0.165405,-2.164917 -0.330811,-4.330475 -0.496338,-6.495422c-7.545776,2.094727 -15.52356,4.260864 -23.118164,6.175293c-0.515381,-4.418579 -0.501099,-9.230499 -0.505859,-13.797821l0,0z" transform="rotate(90 506.223 450.719)" stroke-width="0" stroke="#000" fill="#ff0000" id="svg_91"/>
  <path d="m318.056152,129.28476c0.068726,-4.913223 -0.044617,-9.832947 0.572693,-14.737396c15.180115,1.613129 30.181091,4.25322 45.105286,6.627029c0.801636,-2.409065 0.424561,-4.40741 1.120361,-6.634804c9.587891,4.686943 19.089783,9.440872 28.20166,14.421074c-8.742126,5.649261 -18.769409,10.555359 -28.613647,15.578918c-0.319275,-2.339447 -0.63855,-4.678802 -0.957764,-7.018494c-14.508362,2.263397 -29.8526,4.603485 -44.455811,6.672607c-0.99292,-4.774506 -0.963623,-9.973785 -0.972778,-14.908936l0,0z" stroke-width="null" stroke-opacity="null" stroke="null" fill-opacity="null" fill="#ff0000" id="svg_92"/>
  <text xml:space="preserve" y="165.5" x="403.5639" text-anchor="start" stroke-width="0" stroke="#000000" fill="#000000" font-size="16px" font-family="Helvetica,Arial,sans-serif" id="svg_93">- Option chains from symbols</text>
  <text xml:space="preserve" y="135.0896" x="779.5639" text-anchor="start" stroke-width="0" stroke="#000000" fill="#000000" font-size="16px" font-family="Helvetica,Arial,sans-serif" id="svg_94">chains.pkl</text>
  <path d="m692.05603,129.28476c0.068726,-4.913208 -0.044617,-9.832947 0.572693,-14.737396c15.180115,1.613129 30.181091,4.253235 45.105286,6.627014c0.801636,-2.409035 0.424561,-4.40741 1.120361,-6.634796c9.587891,4.686951 19.089783,9.440887 28.20166,14.421082c-8.742126,5.649261 -18.769409,10.555359 -28.613647,15.578918c-0.319275,-2.339447 -0.63855,-4.678802 -0.957764,-7.018494c-14.508362,2.263397 -29.8526,4.603485 -44.455811,6.672607c-0.99292,-4.774506 -0.963623,-9.973785 -0.972778,-14.908936l0,0z" stroke-width="null" stroke-opacity="null" stroke="null" fill-opacity="null" fill="#ff0000" id="svg_95"/>
  <text xml:space="preserve" y="249.0696" x="779.5639" text-anchor="start" stroke-width="0" stroke="#000000" fill="#000000" font-size="16px" font-family="Helvetica,Arial,sans-serif" id="svg_96">ohlcs.pkl</text>
  <path d="m692.05603,243.264999c0.06897,-4.91301 -0.044006,-9.833008 0.572998,-14.738007c15.179993,1.613007 30.180969,4.253998 45.10498,6.626999c0.802002,-2.408997 0.424988,-4.406998 1.119995,-6.634003c9.588013,4.687012 19.089966,9.440002 28.202026,14.421005c-8.742004,5.649002 -18.769043,10.554993 -28.613037,15.579025c-0.320007,-2.340027 -0.638977,-4.679031 -0.958008,-7.019028c-14.508972,2.263 -29.852966,4.603989 -44.455994,6.673019c-0.992981,-4.775009 -0.963989,-9.974014 -0.972961,-14.909012l0,0z" stroke-width="null" stroke-opacity="null" stroke="null" fill-opacity="null" fill="#ff0000" id="svg_97"/>
  <text xml:space="preserve" y="378.0696" x="779.5639" text-anchor="start" stroke-width="0" stroke="#000000" fill="#000000" font-size="16px" font-family="Helvetica,Arial,sans-serif" id="svg_98">sized.pkl</text>
  <path d="m692.05603,372.265015c0.06897,-4.913025 -0.044006,-9.833038 0.572998,-14.738007c15.179993,1.613007 30.180969,4.253998 45.10498,6.626984c0.802002,-2.408997 0.424988,-4.406982 1.119995,-6.634003c9.588013,4.687012 19.089966,9.440002 28.202026,14.42099c-8.742004,5.649017 -18.769043,10.554993 -28.613037,15.579041c-0.320007,-2.340027 -0.638977,-4.679016 -0.958008,-7.019043c-14.508972,2.263 -29.852966,4.604004 -44.455994,6.673035c-0.992981,-4.775024 -0.963989,-9.973999 -0.972961,-14.908997l0,0z" stroke-width="null" stroke-opacity="null" stroke="null" fill-opacity="null" fill="#ff0000" id="svg_99"/>
  <ellipse ry="45" rx="45" cy="53.5" cx="807.455" stroke-width="NaN" stroke="#000000" fill="url(#svg_102)" id="svg_100"/>
  <text xml:space="preserve" y="66.5" x="784.4998" text-anchor="start" stroke-width="0" stroke="#000000" fill="#ffffff" style="cursor: move; pointer-events: inherit;" font-weight="bold" font-size="14px" font-family="Helvetica,Arial,sans-serif" id="svg_104">Trades</text>
  <text xml:space="preserve" y="48.5" x="779.8598" text-anchor="start" stroke-width="0" stroke="#000000" fill="#ffffff" style="cursor: move; pointer-events: inherit;" font-weight="bold" font-size="14px" font-family="Helvetica,Arial,sans-serif" id="svg_105">Last Day</text>
  <ellipse ry="45" rx="45" cy="52.5" cx="272.5" stroke-width="NaN" stroke="#000000" fill="url(#svg_101)" id="svg_106"/>
  <text xml:space="preserve" y="57.5" x="263.555" text-anchor="start" stroke-width="0" stroke="#000000" fill="#ffffff" font-weight="bold" font-size="14px" font-family="Helvetica,Arial,sans-serif" id="svg_107">All</text>
  <text xml:space="preserve" y="72.5" x="249.54" text-anchor="start" stroke-width="0" stroke="#000000" fill="#ffffff" font-weight="bold" font-size="14px" font-family="Helvetica,Arial,sans-serif" id="svg_108">Trades</text>
  <text xml:space="preserve" y="42.5" x="249.54" text-anchor="start" stroke-width="0" stroke="#000000" fill="#ffffff" font-weight="bold" font-size="14px" font-family="Helvetica,Arial,sans-serif" id="svg_109">Cancel</text>
  <ellipse ry="45" rx="45" cy="52.5" cx="462.455" stroke-width="NaN" stroke="#000000" fill="url(#svg_1)" id="svg_2"/>
  <text xml:space="preserve" y="57.5" x="427.5097" text-anchor="start" stroke-width="0" stroke="#000000" fill="#ffffff" font-weight="bold" font-size="14px" font-family="Helvetica,Arial,sans-serif" id="svg_48">Uncovered</text>
  <text xml:space="preserve" y="72.5" x="447.3447" text-anchor="start" stroke-width="0" stroke="#000000" fill="#ffffff" font-weight="bold" font-size="14px" font-family="Helvetica,Arial,sans-serif" id="svg_52">Sells</text>
  <text xml:space="preserve" y="42.5" x="440.7348" text-anchor="start" stroke-width="0" stroke="#000000" fill="#ffffff" font-weight="bold" font-size="14px" font-family="Helvetica,Arial,sans-serif" id="svg_61">Cancel</text>
  <ellipse ry="45" rx="45" cy="51.5" cx="640.455" stroke-width="NaN" stroke="#000000" fill="url(#svg_74)" id="svg_75"/>
  <text xml:space="preserve" y="64.5" x="617.4998" text-anchor="start" stroke-width="0" stroke="#000000" fill="#ffffff" style="cursor: move; pointer-events: inherit;" font-weight="bold" font-size="14px" font-family="Helvetica,Arial,sans-serif" id="svg_76">Trades</text>
  <text xml:space="preserve" y="46.5" x="612.8598" text-anchor="start" stroke-width="0" stroke="#000000" fill="#ffffff" style="cursor: move; pointer-events: inherit;" font-weight="bold" font-size="14px" font-family="Helvetica,Arial,sans-serif" id="svg_82">Morning</text>
  <text xml:space="preserve" y="71" x="82.0763" text-anchor="start" stroke-width="0" stroke-opacity="null" stroke="#000" fill="#000000" font-size="14px" font-family="Helvetica,Arial,sans-serif" id="svg_103">Paper</text>
  <text xml:space="preserve" y="86.5" x="98.0763" text-anchor="start" stroke-width="0" stroke-opacity="null" stroke="#000" fill="#000000" font-size="10px" font-family="Helvetica,Arial,sans-serif" id="svg_110">3001</text>
  <rect ry="5" height="10" width="47" y="79" x="46.5763" stroke="null" fill="#ff0000" id="svg_111"/>
  <ellipse ry="7.5" rx="7.5" cy="84" cx="57.576" stroke="#000000" fill="#ffffff" id="svg_112"/>
  <text xml:space="preserve" y="71" x="18.0763" text-anchor="start" stroke-width="0" stroke-opacity="null" stroke="#000" fill="#000000" font-size="14px" font-family="Helvetica,Arial,sans-serif" id="svg_113">Live</text>
  <text xml:space="preserve" y="86.5" x="18.0763" text-anchor="start" stroke-width="0" stroke-opacity="null" stroke="#000" fill="#000000" font-size="10px" font-family="Helvetica,Arial,sans-serif" id="svg_114">3000</text>
 </g>
</svg>